<svg width="68" height="68" viewBox="0 0 68 68" fill="none" xmlns="http://www.w3.org/2000/svg">
<g filter="url(#filter0_d_75_330)">
<rect x="12" y="8" width="44" height="44" rx="20" fill="white" shape-rendering="crispEdges"/>
<path d="M31 40H37C42 40 44 38 44 33V27C44 22 42 20 37 20H31C26 20 24 22 24 27V33C24 38 26 40 31 40Z" stroke="black" stroke-width="1.5" stroke-linecap="round" stroke-linejoin="round"/>
<path d="M38.2802 31.61C37.1502 32.74 35.5302 33.09 34.1002 32.64L31.5102 35.22C31.3302 35.41 30.9602 35.53 30.6902 35.49L29.4902 35.33C29.0902 35.28 28.7302 34.9 28.6702 34.51L28.5102 33.31C28.4702 33.05 28.6002 32.68 28.7802 32.49L31.3602 29.91C30.9202 28.48 31.2602 26.86 32.3902 25.73C34.0102 24.11 36.6502 24.11 38.2802 25.73C39.9002 27.34 39.9002 29.98 38.2802 31.61Z" stroke="black" stroke-width="1.5" stroke-miterlimit="10" stroke-linecap="round" stroke-linejoin="round"/>
<path d="M32.4501 34.28L31.6001 33.42" stroke="black" stroke-width="1.5" stroke-miterlimit="10" stroke-linecap="round" stroke-linejoin="round"/>
<path d="M35.3944 28.7H35.4034" stroke="black" stroke-width="2" stroke-linecap="round" stroke-linejoin="round"/>
</g>
<defs>
<filter id="filter0_d_75_330" x="0" y="0" width="68" height="68" filterUnits="userSpaceOnUse" color-interpolation-filters="sRGB">
<feFlood flood-opacity="0" result="BackgroundImageFix"/>
<feColorMatrix in="SourceAlpha" type="matrix" values="0 0 0 0 0 0 0 0 0 0 0 0 0 0 0 0 0 0 127 0" result="hardAlpha"/>
<feOffset dy="4"/>
<feGaussianBlur stdDeviation="6"/>
<feComposite in2="hardAlpha" operator="out"/>
<feColorMatrix type="matrix" values="0 0 0 0 0.152941 0 0 0 0 0.133333 0 0 0 0 0.27451 0 0 0 0.1 0"/>
<feBlend mode="normal" in2="BackgroundImageFix" result="effect1_dropShadow_75_330"/>
<feBlend mode="normal" in="SourceGraphic" in2="effect1_dropShadow_75_330" result="shape"/>
</filter>
</defs>
</svg>
