<svg width="30" height="30" viewBox="0 0 30 30" fill="none" xmlns="http://www.w3.org/2000/svg">
<circle cx="15" cy="15" r="15" fill="black"/>
<path d="M9.68585 20.3143C9.85728 20.4857 10.0287 20.5714 10.2859 20.5714C10.543 20.5714 10.7144 20.4857 10.8859 20.3143L15.4287 15.7714L19.9716 20.3143C20.143 20.4857 20.4001 20.5714 20.5716 20.5714C20.743 20.5714 21.0001 20.4857 21.1716 20.3143C21.5144 19.9714 21.5144 19.4571 21.1716 19.1143L16.6287 14.5714L21.1716 10.0286C21.5144 9.6857 21.5144 9.17141 21.1716 8.82855C20.8287 8.4857 20.3144 8.4857 19.9716 8.82855L15.4287 13.3714L10.8859 8.82855C10.543 8.4857 10.0287 8.4857 9.68585 8.82855C9.343 9.17141 9.343 9.6857 9.68585 10.0286L14.2287 14.5714L9.68585 19.1143C9.343 19.4571 9.343 19.9714 9.68585 20.3143Z" fill="white"/>
</svg>
