<svg width="32" height="32" viewBox="0 0 32 32" fill="none" xmlns="http://www.w3.org/2000/svg">
<rect width="32" height="32" rx="7" fill="#F8F8F8"/>
<path fill-rule="evenodd" clip-rule="evenodd" d="M23.2 19.2C23.6103 19.2 23.9484 19.5088 23.9946 19.9067L24 20V21.6C24 22.8781 23.0009 23.9229 21.741 23.9959L21.6 24H10.4C9.12186 24 8.07707 23.0009 8.00407 21.741L8 21.6V20C8 19.5582 8.35817 19.2 8.8 19.2C9.21027 19.2 9.54841 19.5088 9.59462 19.9067L9.6 20V21.6C9.6 22.0103 9.90883 22.3484 10.3067 22.3946L10.4 22.4H21.6C22.0103 22.4 22.3484 22.0912 22.3946 21.6933L22.4 21.6V20C22.4 19.5582 22.7582 19.2 23.2 19.2ZM16 8C16.4418 8 16.8 8.35817 16.8 8.8V16.468L17.8343 15.4343C18.1227 15.1459 18.5765 15.1237 18.8903 15.3678L18.9657 15.4343C19.2541 15.7227 19.2763 16.1765 19.0322 16.4903L18.9657 16.5657L16.5657 18.9657L16.5305 18.9988L16.4762 19.0429L16.3872 19.1003L16.2971 19.143L16.2128 19.1713L16.094 19.1945L16 19.2L15.9398 19.1978L15.8394 19.1838L15.7503 19.1602L15.6614 19.1251L15.5834 19.0832L15.5066 19.0298C15.4812 19.0099 15.4571 18.9885 15.4343 18.9657L13.0343 16.5657C12.7219 16.2533 12.7219 15.7467 13.0343 15.4343C13.3227 15.1459 13.7765 15.1237 14.0903 15.3678L14.1657 15.4343L15.2 16.468V8.8C15.2 8.35817 15.5582 8 16 8Z" fill="black"/>
</svg>
