<svg width="43" height="43" viewBox="0 0 43 43" fill="none" xmlns="http://www.w3.org/2000/svg">
<circle cx="21.5" cy="21.5" r="21.5" fill="#090A0C"/>
<path d="M20.391 28.6024L20.3911 13.2635C20.3911 13.1666 20.3117 13.0872 20.2147 13.0872L18.8922 13.0872C18.7952 13.0872 18.7159 13.1666 18.7159 13.2635L18.7159 26.6032L14.6822 23.4226C14.5676 23.3322 14.3957 23.4138 14.3957 23.5615L14.3957 25.1595C14.3957 25.2675 14.4442 25.3689 14.5301 25.4372L19.2493 29.1579C19.7122 29.5215 20.391 29.1931 20.391 28.6024ZM25.5929 29.1336L25.5929 15.7939L29.6265 18.9746C29.7412 19.0649 29.9131 18.9834 29.9131 18.8357L29.9131 17.2377C29.9131 17.1297 29.8646 17.0283 29.7786 16.96L25.0595 13.2393C24.5966 12.8756 23.9177 13.204 23.9177 13.7926L23.9177 29.1336C23.9177 29.2306 23.9971 29.3099 24.0941 29.3099L25.4166 29.3099C25.5136 29.3099 25.5929 29.2306 25.5929 29.1336Z" fill="white"/>
</svg>
