<svg width="100" height="60" viewBox="0 0 100 60" fill="none" xmlns="http://www.w3.org/2000/svg">
<rect width="100" height="60" rx="30" fill="white"/>
<rect x="0.5" y="0.5" width="99" height="59" rx="29.5" stroke="black" stroke-opacity="0.1"/>
<path d="M62 30C62 23.3726 56.6274 18 50 18C43.3726 18 38 23.3725 38 30C38 35.9895 42.3882 40.954 48.125 41.8542V33.4688H45.0781V30H48.125V27.3563C48.125 24.3488 49.9166 22.6875 52.6575 22.6875C53.9705 22.6875 55.3438 22.9219 55.3438 22.9219V25.875H53.8306C52.3398 25.875 51.875 26.8 51.875 27.7491V30H55.2031L54.6711 33.4688H51.875V41.8542C57.6118 40.954 62 35.9896 62 30Z" fill="#1877F2"/>
<path d="M54.6711 33.4688L55.2031 30H51.875V27.7491C51.875 26.7999 52.3399 25.875 53.8306 25.875H55.3438V22.9219C55.3438 22.9219 53.9705 22.6875 52.6575 22.6875C49.9166 22.6875 48.125 24.3488 48.125 27.3563V30H45.0781V33.4688H48.125V41.8542C48.7453 41.9514 49.3722 42.0002 50 42C50.6278 42.0002 51.2547 41.9514 51.875 41.8542V33.4688H54.6711Z" fill="white"/>
</svg>
