<svg width="306" height="272" viewBox="0 0 306 272" fill="none" xmlns="http://www.w3.org/2000/svg">
<rect x="133.286" y="5.44086" width="190" height="190" rx="30" transform="rotate(36.6012 133.286 5.44086)" fill="url(#paint0_linear_38_161)" fill-opacity="0.4"/>
<circle cx="44.5" cy="85.5" r="19.5" fill="#F5D7FF" fill-opacity="0.09"/>
<circle cx="44.5" cy="85.5" r="19" stroke="white" stroke-opacity="0.1"/>
<path d="M44.2926 85.5995L39.5511 88.339L34.8096 85.5995V80.1205L39.5511 77.381L44.2926 80.1205V81.8063" stroke="#B81DEE" stroke-width="2.82519" stroke-miterlimit="10" stroke-linecap="round" stroke-linejoin="round"/>
<path d="M44.2925 85.5995L49.034 82.8599L53.7755 85.5995V91.0785L49.034 93.8181L44.2925 91.0785V89.2873" stroke="#B81DEE" stroke-width="2.82519" stroke-miterlimit="10" stroke-linecap="round" stroke-linejoin="round"/>
<circle cx="286.5" cy="21.5" r="19.5" fill="#B0DFEA" fill-opacity="0.1"/>
<circle cx="286.5" cy="21.5" r="19" stroke="white" stroke-opacity="0.1"/>
<circle cx="15.5" cy="200.5" r="15.5" fill="#26A17B" fill-opacity="0.1"/>
<circle cx="15.5" cy="200.5" r="15" stroke="#26A17B" stroke-opacity="0.2"/>
<circle cx="269.5" cy="130.5" r="16.5" fill="#342955"/>
<circle cx="269.5" cy="130.5" r="16" stroke="#B0BEF4" stroke-opacity="0.1"/>
<g filter="url(#filter0_d_38_161)">
<path d="M269.56 120C275.392 120 280.12 124.728 280.12 130.56C280.12 136.392 275.392 141.12 269.56 141.12C263.728 141.12 259 136.392 259 130.56C259 124.728 263.728 120 269.56 120Z" fill="black"/>
</g>
<path d="M269.56 120C275.392 120 280.12 124.728 280.12 130.56C280.12 136.392 275.392 141.12 269.56 141.12C263.728 141.12 259 136.392 259 130.56C259 124.728 263.728 120 269.56 120Z" fill="#627EEA"/>
<path d="M269.56 120C275.392 120 280.12 124.728 280.12 130.56C280.12 136.392 275.392 141.12 269.56 141.12C263.728 141.12 259 136.392 259 130.56C259 124.728 263.728 120 269.56 120Z" fill="url(#paint1_linear_38_161)"/>
<path d="M269.56 120.352C275.198 120.352 279.768 124.922 279.768 130.56C279.768 136.198 275.198 140.768 269.56 140.768C263.922 140.768 259.352 136.198 259.352 130.56C259.352 124.922 263.922 120.352 269.56 120.352Z" stroke="black" stroke-opacity="0.097" stroke-width="2.104"/>
<g filter="url(#filter1_d_38_161)">
<path d="M269.911 126.359L275.192 129.422L269.911 122.116L264.632 129.423L269.911 126.36V126.359ZM269.911 139.008L275.189 130.405L269.911 127.341L264.632 130.405L269.911 139.008Z" fill="black"/>
</g>
<path d="M269.911 139.008V132.764L275.189 130.405L269.911 139.008Z" fill="white" fill-opacity="0.602"/>
<path d="M269.911 139.008L264.632 130.405L269.911 132.764V139.008Z" fill="white"/>
<path d="M269.911 126.359V122.116L275.192 129.422L269.911 126.359Z" fill="white" fill-opacity="0.602"/>
<path d="M269.911 122.116V126.359L264.632 129.422L269.911 122.116Z" fill="white"/>
<path d="M269.911 127.341L275.189 130.405L269.911 132.762V127.341Z" fill="white" fill-opacity="0.2"/>
<path d="M264.632 130.405L269.911 127.341V132.762L264.632 130.405Z" fill="white" fill-opacity="0.602"/>
<path d="M15.56 208.12C19.7353 208.12 23.12 204.735 23.12 200.56C23.12 196.385 19.7353 193 15.56 193C11.3847 193 8 196.385 8 200.56C8 204.735 11.3847 208.12 15.56 208.12Z" fill="#26A17B"/>
<path fill-rule="evenodd" clip-rule="evenodd" d="M16.4682 201.214V201.213C16.4162 201.216 16.1483 201.232 15.5506 201.232C15.0734 201.232 14.7374 201.218 14.6193 201.213V201.214C12.7822 201.133 11.411 200.813 11.411 200.431C11.411 200.048 12.7822 199.728 14.6193 199.646V200.896C14.7393 200.904 15.0833 200.924 15.5586 200.924C16.1289 200.924 16.4148 200.901 16.4682 200.896V199.647C18.3015 199.729 19.6694 200.049 19.6694 200.431C19.6694 200.813 18.3015 201.132 16.4682 201.214ZM16.4682 199.517V198.399H19.0263V196.695H12.0612V198.399H14.6193V199.517C12.5403 199.612 10.9768 200.024 10.9768 200.518C10.9768 201.011 12.5403 201.422 14.6193 201.518V205.101H16.4682V201.517C18.5439 201.422 20.1036 201.01 20.1036 200.518C20.1036 200.025 18.5439 199.613 16.4682 199.517Z" fill="white"/>
<path d="M285.387 20.1415C287.596 20.1415 289.388 18.3501 289.388 16.1402C289.388 13.9304 287.596 12.1389 285.387 12.1389C283.177 12.1389 281.385 13.9304 281.385 16.1402C281.385 18.3501 283.177 20.1415 285.387 20.1415Z" fill="#F5E48F"/>
<path opacity="0.6" d="M289.288 16.1391C289.288 17.065 288.967 17.9622 288.379 18.6779C287.792 19.3937 286.974 19.8836 286.066 20.0641C285.158 20.2447 284.216 20.1048 283.399 19.6683C282.582 19.2318 281.943 18.5256 281.588 17.6702C281.852 17.5218 282.145 17.4318 282.446 17.4061C282.748 17.3805 283.051 17.4198 283.336 17.5214C283.759 17.6756 284.124 17.9642 284.55 18.111C285.472 18.4288 286.583 17.9578 287.037 17.0955C287.492 16.2333 287.285 15.0864 286.586 14.4042C286.229 14.0571 285.774 13.826 285.307 13.6515C284.428 13.3254 283.494 13.1762 282.557 13.2122C283.127 12.6806 283.84 12.3271 284.608 12.195C285.376 12.0629 286.166 12.1581 286.881 12.4688C287.596 12.7795 288.205 13.2922 288.632 13.944C289.06 14.5957 289.287 15.3581 289.288 16.1376V16.1391Z" fill="#DEC378"/>
<path opacity="0.5" d="M285.288 12.5573C286.311 12.5572 287.295 12.9489 288.038 13.6519C288.781 14.3548 289.227 15.3157 289.284 16.337C289.287 16.2636 289.29 16.1882 289.29 16.1153C289.29 15.0541 288.868 14.0364 288.118 13.286C287.368 12.5356 286.35 12.114 285.289 12.114C284.227 12.114 283.21 12.5356 282.459 13.286C281.709 14.0364 281.287 15.0541 281.287 16.1153C281.287 16.1897 281.287 16.2641 281.294 16.337C281.35 15.3158 281.796 14.3551 282.539 13.6522C283.282 12.9493 284.265 12.5575 285.288 12.5573Z" fill="#E1D2D5"/>
<path opacity="0.3" d="M285.288 19.5866C284.266 19.5866 283.282 19.1951 282.539 18.4923C281.796 17.7896 281.35 16.829 281.293 15.8079C281.289 15.8813 281.287 15.9566 281.287 16.0295C281.287 17.0907 281.708 18.1085 282.459 18.8589C283.209 19.6093 284.227 20.0308 285.288 20.0308C286.349 20.0308 287.367 19.6093 288.117 18.8589C288.868 18.1085 289.289 17.0907 289.289 16.0295C289.289 15.9552 289.289 15.8808 289.283 15.8079C289.226 16.8289 288.78 17.7893 288.037 18.492C287.295 19.1947 286.311 19.5864 285.288 19.5866Z" fill="#BC2727"/>
<path d="M282.562 16.6915H281.416V16.396H282.266V15.7425H282.562V16.6915Z" fill="#426572"/>
<path d="M282.404 15.9205C282.314 15.9205 282.227 15.8938 282.152 15.8439C282.077 15.7939 282.019 15.7229 281.984 15.6398C281.95 15.5567 281.941 15.4653 281.958 15.3771C281.976 15.2889 282.019 15.2079 282.083 15.1443C282.146 15.0807 282.227 15.0374 282.316 15.0199C282.404 15.0023 282.495 15.0113 282.578 15.0457C282.661 15.0802 282.732 15.1384 282.782 15.2132C282.832 15.288 282.859 15.3759 282.859 15.4658C282.859 15.5864 282.811 15.7019 282.726 15.7872C282.64 15.8724 282.525 15.9204 282.404 15.9205ZM282.404 15.3071C282.373 15.3071 282.342 15.3165 282.316 15.334C282.29 15.3515 282.269 15.3763 282.257 15.4054C282.245 15.4345 282.242 15.4665 282.248 15.4974C282.254 15.5282 282.27 15.5566 282.292 15.5789C282.314 15.6011 282.342 15.6163 282.373 15.6224C282.404 15.6285 282.436 15.6254 282.465 15.6134C282.494 15.6013 282.519 15.5809 282.537 15.5547C282.554 15.5286 282.564 15.4978 282.564 15.4663C282.564 15.4454 282.56 15.4246 282.552 15.4052C282.544 15.3859 282.532 15.3683 282.517 15.3534C282.502 15.3386 282.485 15.3268 282.465 15.3188C282.446 15.3108 282.425 15.3067 282.404 15.3067V15.3071Z" fill="#426572"/>
<path d="M285.956 13.416H284.88V12.1115H285.175V13.1205H285.956V13.416Z" fill="#426572"/>
<path d="M286.278 13.7631C286.178 13.763 286.081 13.7334 285.998 13.6781C285.916 13.6227 285.851 13.5441 285.813 13.4521C285.775 13.3601 285.765 13.259 285.785 13.1614C285.804 13.0638 285.852 12.9742 285.922 12.9038C285.993 12.8335 286.083 12.7856 286.18 12.7662C286.278 12.7468 286.379 12.7568 286.471 12.7949C286.563 12.8331 286.641 12.8976 286.697 12.9803C286.752 13.0631 286.781 13.1603 286.781 13.2599C286.781 13.3934 286.728 13.5214 286.634 13.6157C286.539 13.7101 286.411 13.7631 286.278 13.7631ZM286.278 13.0516C286.237 13.0516 286.196 13.0638 286.162 13.0866C286.128 13.1094 286.101 13.1419 286.086 13.1799C286.07 13.2178 286.066 13.2596 286.074 13.2999C286.082 13.3402 286.102 13.3772 286.131 13.4063C286.16 13.4353 286.197 13.4551 286.237 13.4631C286.277 13.4711 286.319 13.467 286.357 13.4513C286.395 13.4356 286.428 13.4089 286.45 13.3748C286.473 13.3406 286.485 13.3004 286.485 13.2594C286.485 13.2043 286.463 13.1515 286.424 13.1126C286.385 13.0737 286.333 13.0517 286.278 13.0516Z" fill="#426572"/>
<path d="M288.294 17.1566H287.998V16.1913H289.164V16.4868H288.294V17.1566Z" fill="#426572"/>
<path d="M288.156 17.9008C288.065 17.9008 287.976 17.8738 287.9 17.8231C287.824 17.7725 287.765 17.7006 287.73 17.6164C287.696 17.5322 287.686 17.4396 287.704 17.3503C287.722 17.2609 287.766 17.1789 287.83 17.1144C287.895 17.05 287.977 17.0061 288.066 16.9884C288.155 16.9706 288.248 16.9797 288.332 17.0146C288.416 17.0494 288.488 17.1085 288.539 17.1842C288.59 17.26 288.617 17.349 288.617 17.4401C288.616 17.5623 288.568 17.6794 288.481 17.7657C288.395 17.8521 288.278 17.9006 288.156 17.9008ZM288.156 17.2745C288.123 17.2746 288.091 17.2844 288.064 17.3026C288.037 17.3208 288.016 17.3466 288.004 17.3768C287.991 17.407 287.988 17.4402 287.995 17.4722C288.001 17.5042 288.017 17.5335 288.04 17.5566C288.063 17.5796 288.092 17.5953 288.124 17.6016C288.156 17.608 288.19 17.6047 288.22 17.5921C288.25 17.5796 288.276 17.5585 288.294 17.5313C288.312 17.5042 288.322 17.4723 288.322 17.4396C288.322 17.4179 288.317 17.3963 288.309 17.3761C288.301 17.356 288.289 17.3377 288.273 17.3222C288.258 17.3068 288.24 17.2946 288.219 17.2862C288.199 17.2778 288.178 17.2735 288.156 17.2735V17.2745Z" fill="#426572"/>
<path d="M285.589 20.1435H285.294V19.3041H284.649V19.0085H285.589V20.1435Z" fill="#426572"/>
<path d="M284.375 19.6149C284.286 19.6149 284.199 19.5884 284.125 19.5388C284.05 19.4892 283.993 19.4188 283.958 19.3363C283.924 19.2539 283.915 19.1632 283.933 19.0756C283.95 18.9881 283.993 18.9077 284.056 18.8446C284.119 18.7815 284.2 18.7385 284.287 18.7211C284.375 18.7037 284.465 18.7127 284.548 18.7468C284.63 18.781 284.701 18.8388 284.75 18.913C284.8 18.9872 284.826 19.0744 284.826 19.1637C284.826 19.2833 284.779 19.398 284.694 19.4826C284.61 19.5672 284.495 19.6147 284.375 19.6149ZM284.375 19.008C284.344 19.008 284.314 19.0171 284.289 19.0342C284.263 19.0513 284.243 19.0756 284.231 19.1041C284.22 19.1325 284.217 19.1638 284.223 19.194C284.229 19.2242 284.243 19.252 284.265 19.2738C284.287 19.2955 284.315 19.3104 284.345 19.3164C284.375 19.3224 284.406 19.3193 284.435 19.3075C284.463 19.2957 284.488 19.2758 284.505 19.2502C284.522 19.2246 284.531 19.1945 284.531 19.1637C284.531 19.1224 284.515 19.0828 284.485 19.0536C284.456 19.0244 284.417 19.008 284.375 19.008Z" fill="#426572"/>
<path d="M286.607 16.1159C286.51 16.0491 286.4 16.0014 286.284 15.9751C286.37 15.926 286.446 15.863 286.511 15.7886C286.57 15.6941 286.605 15.5871 286.615 15.4763C286.62 15.4014 286.633 15.087 286.388 14.9061C286.199 14.7662 285.982 14.7107 285.691 14.6924V14.0577H285.3V14.6844H285.002V14.0577H284.611V14.6844H283.843V15.0905H284.069C284.13 15.0905 284.24 15.0975 284.287 15.1495C284.333 15.2016 284.342 15.2288 284.342 15.3305C284.342 15.4321 284.342 16.9097 284.342 16.9484C284.343 16.9696 284.34 16.9909 284.333 17.011C284.327 17.0311 284.316 17.0496 284.301 17.0654C284.269 17.0966 284.235 17.1036 284.157 17.1036H283.923L283.843 17.5731H284.612V18.1983H285.003V17.5736H285.3V18.1983H285.691V17.5627C285.79 17.5567 285.887 17.5493 285.939 17.5419C286.153 17.523 286.359 17.4515 286.539 17.3336C286.774 17.169 286.827 16.9117 286.833 16.6524C286.838 16.393 286.74 16.215 286.607 16.1159ZM285.002 15.1242C285.002 15.1242 285.126 15.1133 285.249 15.1153C285.382 15.114 285.513 15.1337 285.639 15.1738C285.8 15.2234 285.895 15.3439 285.898 15.4862C285.903 15.5469 285.89 15.6076 285.86 15.6605C285.83 15.7135 285.785 15.7564 285.73 15.7837C285.605 15.846 285.467 15.8799 285.327 15.8828C285.184 15.8883 285.002 15.8828 285.002 15.8828V15.1242ZM285.876 16.9955C285.736 17.0578 285.586 17.0938 285.433 17.1016C285.26 17.1145 285.001 17.109 285.001 17.109V16.2701C285.001 16.2701 285.248 16.2572 285.443 16.2701C285.591 16.2775 285.736 16.3111 285.872 16.3692C285.932 16.3971 285.982 16.4412 286.017 16.4965C286.052 16.5518 286.071 16.6159 286.072 16.6815C286.072 16.7471 286.054 16.8115 286.019 16.8671C285.984 16.9228 285.935 16.9674 285.876 16.996V16.9955Z" fill="#426572"/>
<path d="M287.925 14.0746C288.267 14.5065 288.499 15.0146 288.603 15.5556C288.619 15.6488 288.762 15.6097 288.745 15.5164C288.635 14.9509 288.39 14.4203 288.031 13.97C287.973 13.8951 287.869 14.0002 287.926 14.0746H287.925Z" fill="#BC2727"/>
<path d="M287.245 13.3973C287.409 13.5209 287.561 13.6608 287.697 13.8148C287.763 13.8842 287.867 13.7796 287.802 13.7102C287.656 13.5476 287.495 13.4001 287.32 13.2699C287.242 13.2148 287.168 13.3433 287.245 13.3973H287.245Z" fill="#BC2727"/>
<path d="M285.248 20.3904C284.418 20.39 283.607 20.1436 282.918 19.6823C282.228 19.2211 281.691 18.5657 281.373 17.7991C281.056 17.0325 280.973 16.189 281.136 15.3753C281.298 14.5617 281.697 13.8144 282.284 13.2279C282.871 12.6414 283.619 12.2421 284.432 12.0804C285.246 11.9188 286.09 12.002 286.856 12.3197C287.623 12.6373 288.278 13.1751 288.738 13.865C289.199 14.5549 289.445 15.366 289.445 16.1957C289.444 17.3082 289.001 18.3747 288.214 19.1612C287.427 19.9476 286.36 20.3897 285.248 20.3904ZM285.248 12.3877C284.495 12.3877 283.759 12.6111 283.132 13.0295C282.506 13.4479 282.018 14.0426 281.73 14.7384C281.442 15.4343 281.366 16.1999 281.513 16.9386C281.66 17.6772 282.023 18.3557 282.555 18.8883C283.088 19.4208 283.766 19.7835 284.505 19.9304C285.244 20.0774 286.009 20.002 286.705 19.7138C287.401 19.4255 287.996 18.9375 288.414 18.3113C288.832 17.685 289.056 16.9488 289.056 16.1957C289.055 15.1861 288.653 14.2181 287.939 13.5042C287.225 12.7903 286.257 12.3888 285.248 12.3877Z" fill="#426572"/>
<path d="M288.401 20.1964C290.611 20.1964 292.402 18.405 292.402 16.1951C292.402 13.9853 290.611 12.1938 288.401 12.1938C286.191 12.1938 284.399 13.9853 284.399 16.1951C284.399 18.405 286.191 20.1964 288.401 20.1964Z" fill="#F5E48F"/>
<path opacity="0.6" d="M292.302 16.1947C292.302 17.1206 291.981 18.0178 291.393 18.7335C290.806 19.4493 289.989 19.9392 289.08 20.1197C288.172 20.3003 287.23 20.1605 286.413 19.7239C285.597 19.2874 284.957 18.5812 284.603 17.7258C284.866 17.5774 285.159 17.4874 285.46 17.4617C285.762 17.4361 286.065 17.4754 286.35 17.577C286.773 17.7312 287.138 18.0198 287.564 18.1666C288.486 18.4844 289.597 18.0134 290.052 17.1511C290.506 16.2889 290.3 15.142 289.6 14.4598C289.243 14.1127 288.788 13.8816 288.321 13.7071C287.442 13.3811 286.508 13.2318 285.571 13.2678C286.141 12.7362 286.854 12.3827 287.622 12.2506C288.391 12.1185 289.181 12.2137 289.895 12.5244C290.61 12.8351 291.219 13.3478 291.646 13.9996C292.074 14.6513 292.302 15.4138 292.302 16.1932V16.1947Z" fill="#DEC378"/>
<path opacity="0.5" d="M288.302 12.6129C289.325 12.6128 290.309 13.0045 291.052 13.7075C291.795 14.4104 292.241 15.3713 292.298 16.3926C292.302 16.3192 292.304 16.2438 292.304 16.1709C292.304 15.1097 291.883 14.092 291.132 13.3416C290.382 12.5912 289.364 12.1696 288.303 12.1696C287.242 12.1696 286.224 12.5912 285.473 13.3416C284.723 14.092 284.302 15.1097 284.302 16.1709C284.302 16.2453 284.302 16.3197 284.308 16.3926C284.365 15.3714 284.81 14.4107 285.553 13.7078C286.296 13.0049 287.28 12.6131 288.302 12.6129Z" fill="#E1D2D5"/>
<path opacity="0.3" d="M288.303 19.6427C287.28 19.6427 286.296 19.251 285.553 18.5481C284.81 17.8451 284.364 16.8843 284.307 15.863C284.303 15.9364 284.301 16.0117 284.301 16.0846C284.301 16.6101 284.404 17.1304 284.605 17.6158C284.806 18.1013 285.101 18.5424 285.473 18.914C285.844 19.2855 286.285 19.5803 286.771 19.7813C287.256 19.9824 287.777 20.0859 288.302 20.0859C288.828 20.0859 289.348 19.9824 289.833 19.7813C290.319 19.5803 290.76 19.2855 291.131 18.914C291.503 18.5424 291.798 18.1013 291.999 17.6158C292.2 17.1304 292.303 16.6101 292.303 16.0846C292.303 16.0102 292.303 15.9359 292.297 15.863C292.24 16.8841 291.795 17.8448 291.052 18.5477C290.309 19.2507 289.325 19.6425 288.303 19.6427Z" fill="#BC2727"/>
<path d="M285.575 16.7466H284.43V16.4516H285.28V15.7981H285.575V16.7466Z" fill="#426572"/>
<path d="M285.42 15.9756C285.33 15.9755 285.242 15.9487 285.168 15.8987C285.093 15.8487 285.035 15.7776 285 15.6945C284.966 15.6115 284.957 15.5201 284.975 15.4319C284.992 15.3437 285.036 15.2628 285.099 15.1992C285.163 15.1357 285.244 15.0924 285.332 15.0749C285.42 15.0574 285.512 15.0665 285.595 15.1009C285.678 15.1353 285.749 15.1936 285.799 15.2683C285.849 15.3431 285.875 15.431 285.875 15.5209C285.875 15.6415 285.827 15.7572 285.742 15.8424C285.656 15.9277 285.541 15.9756 285.42 15.9756ZM285.42 15.3622C285.388 15.3619 285.357 15.371 285.331 15.3884C285.305 15.4057 285.284 15.4305 285.272 15.4596C285.26 15.4886 285.256 15.5207 285.262 15.5517C285.268 15.5827 285.283 15.6112 285.306 15.6336C285.328 15.656 285.356 15.6712 285.387 15.6774C285.418 15.6836 285.45 15.6805 285.479 15.6684C285.509 15.6564 285.533 15.6359 285.551 15.6096C285.568 15.5833 285.578 15.5525 285.578 15.5209C285.578 15.479 285.561 15.4389 285.531 15.4092C285.502 15.3795 285.462 15.3626 285.42 15.3622Z" fill="#426572"/>
<path d="M288.97 13.4716H287.894V12.1671H288.19V13.1761H288.97V13.4716Z" fill="#426572"/>
<path d="M289.291 13.8188C289.192 13.8188 289.094 13.7892 289.012 13.7339C288.929 13.6786 288.864 13.6 288.826 13.5081C288.788 13.4161 288.778 13.3149 288.798 13.2173C288.817 13.1197 288.865 13.03 288.935 12.9596C289.006 12.8892 289.095 12.8413 289.193 12.8219C289.291 12.8025 289.392 12.8124 289.484 12.8505C289.576 12.8886 289.654 12.9531 289.71 13.0359C289.765 13.1187 289.794 13.216 289.794 13.3155C289.794 13.4489 289.741 13.5769 289.647 13.6712C289.552 13.7656 289.425 13.8186 289.291 13.8188ZM289.291 13.1072C289.25 13.1072 289.21 13.1194 289.176 13.1423C289.142 13.1651 289.115 13.1975 289.099 13.2355C289.083 13.2735 289.079 13.3152 289.087 13.3555C289.095 13.3958 289.115 13.4328 289.144 13.4619C289.173 13.4909 289.21 13.5107 289.251 13.5188C289.291 13.5268 289.333 13.5227 289.371 13.5069C289.409 13.4912 289.441 13.4646 289.464 13.4304C289.487 13.3962 289.499 13.3561 289.499 13.315C289.499 13.2599 289.477 13.2072 289.438 13.1682C289.399 13.1293 289.346 13.1074 289.291 13.1072Z" fill="#426572"/>
<path d="M291.308 17.212H291.012V16.2467H292.179V16.5422H291.308V17.212Z" fill="#426572"/>
<path d="M291.167 17.9554C291.076 17.9557 290.987 17.9289 290.911 17.8785C290.835 17.8281 290.776 17.7563 290.741 17.6722C290.706 17.5881 290.696 17.4954 290.714 17.406C290.732 17.3166 290.775 17.2344 290.84 17.1698C290.904 17.1052 290.986 17.0611 291.075 17.0432C291.165 17.0252 291.257 17.0342 291.342 17.0689C291.426 17.1037 291.498 17.1626 291.549 17.2383C291.599 17.3141 291.626 17.4031 291.627 17.4943C291.627 17.6162 291.578 17.7332 291.492 17.8196C291.406 17.9061 291.289 17.9549 291.167 17.9554ZM291.167 17.3292C291.135 17.3293 291.103 17.339 291.076 17.3572C291.049 17.3754 291.028 17.4013 291.015 17.4314C291.003 17.4616 291 17.4948 291.006 17.5268C291.012 17.5588 291.028 17.5882 291.051 17.6112C291.074 17.6342 291.104 17.6499 291.136 17.6562C291.168 17.6626 291.201 17.6593 291.231 17.6468C291.261 17.6343 291.287 17.6131 291.305 17.586C291.323 17.5588 291.333 17.5269 291.333 17.4943C291.333 17.4504 291.315 17.4084 291.284 17.3775C291.253 17.3465 291.211 17.3292 291.167 17.3292Z" fill="#426572"/>
<path d="M288.603 20.1984H288.308V19.3594H287.663V19.0639H288.603V20.1984Z" fill="#426572"/>
<path d="M287.389 19.6705C287.3 19.6705 287.213 19.644 287.139 19.5945C287.065 19.5449 287.007 19.4744 286.973 19.392C286.938 19.3095 286.929 19.2188 286.947 19.1313C286.964 19.0437 287.007 18.9634 287.07 18.9003C287.133 18.8371 287.214 18.7942 287.301 18.7768C287.389 18.7594 287.48 18.7683 287.562 18.8024C287.645 18.8366 287.715 18.8944 287.765 18.9686C287.814 19.0428 287.841 19.1301 287.841 19.2193C287.841 19.3389 287.793 19.4536 287.708 19.5382C287.624 19.6228 287.509 19.6704 287.389 19.6705ZM287.389 19.0636C287.359 19.0636 287.329 19.0727 287.303 19.0898C287.277 19.107 287.257 19.1313 287.246 19.1597C287.234 19.1882 287.231 19.2195 287.237 19.2497C287.243 19.2799 287.258 19.3076 287.279 19.3294C287.301 19.3512 287.329 19.366 287.359 19.372C287.389 19.378 287.421 19.3749 287.449 19.3631C287.477 19.3514 287.502 19.3314 287.519 19.3058C287.536 19.2802 287.545 19.2501 287.545 19.2193C287.545 19.178 287.529 19.1384 287.5 19.1092C287.47 19.08 287.431 19.0636 287.389 19.0636Z" fill="#426572"/>
<path d="M289.621 16.1705C289.523 16.1036 289.413 16.0558 289.297 16.0297C289.382 15.9807 289.459 15.9176 289.523 15.8433C289.582 15.7488 289.618 15.6418 289.627 15.5309C289.633 15.456 289.646 15.1417 289.401 14.9607C289.211 14.8209 288.994 14.7654 288.703 14.747V14.1133H288.312V14.7401H288.014V14.1133H287.624V14.7401H286.855V15.1461H287.081C287.143 15.1461 287.252 15.1531 287.299 15.2051C287.346 15.2572 287.354 15.2845 287.354 15.3861C287.354 15.4878 287.354 16.9653 287.354 17.004C287.356 17.0252 287.353 17.0465 287.346 17.0666C287.339 17.0867 287.328 17.1052 287.314 17.121C287.281 17.1523 287.248 17.1592 287.17 17.1592H286.936L286.855 17.6287H287.624V18.2535H288.015V17.6282H288.312V18.253H288.702V17.6178C288.801 17.6119 288.897 17.6044 288.95 17.597C289.164 17.5782 289.369 17.5066 289.549 17.3888C289.785 17.2242 289.838 16.9668 289.843 16.7075C289.849 16.4482 289.754 16.2707 289.621 16.1705ZM288.015 15.1818C288.015 15.1818 288.14 15.1709 288.263 15.1729C288.395 15.1706 288.526 15.1892 288.652 15.228C288.813 15.2775 288.908 15.398 288.911 15.5403C288.916 15.601 288.903 15.6617 288.873 15.7147C288.843 15.7677 288.798 15.8105 288.743 15.8378C288.618 15.9002 288.48 15.934 288.34 15.937C288.197 15.9424 288.014 15.937 288.014 15.937L288.015 15.1818ZM288.891 17.0506C288.751 17.113 288.601 17.1489 288.448 17.1567C288.275 17.1696 288.015 17.1642 288.015 17.1642V16.3257C288.015 16.3257 288.263 16.3128 288.458 16.3257C288.606 16.3331 288.751 16.3667 288.887 16.4249C288.946 16.4528 288.997 16.4969 289.032 16.5521C289.067 16.6074 289.086 16.6716 289.087 16.7371C289.087 16.8027 289.069 16.8671 289.034 16.9227C288.999 16.9784 288.95 17.0231 288.891 17.0516V17.0506Z" fill="#426572"/>
<path d="M290.939 14.1295C291.28 14.5617 291.512 15.07 291.615 15.611C291.632 15.7042 291.775 15.665 291.757 15.5718C291.648 15.0063 291.403 14.4757 291.043 14.0254C290.985 13.9505 290.881 14.0556 290.939 14.13L290.939 14.1295Z" fill="#BC2727"/>
<path d="M290.259 13.4527C290.423 13.5764 290.575 13.7162 290.711 13.8702C290.777 13.9396 290.881 13.835 290.816 13.7656C290.67 13.603 290.509 13.4555 290.334 13.3253C290.256 13.2703 290.182 13.3987 290.26 13.4527H290.259Z" fill="#BC2727"/>
<path d="M288.262 20.446C287.432 20.4461 286.621 20.2001 285.931 19.7392C285.241 19.2783 284.703 18.6231 284.386 17.8566C284.068 17.09 283.985 16.2465 284.147 15.4326C284.309 14.6188 284.708 13.8713 285.295 13.2845C285.882 12.6978 286.629 12.2982 287.443 12.1363C288.257 11.9743 289.1 12.0574 289.867 12.3749C290.633 12.6924 291.289 13.2301 291.75 13.92C292.211 14.6099 292.457 15.421 292.457 16.2508C292.456 17.363 292.013 18.4293 291.227 19.2157C290.441 20.0022 289.374 20.4446 288.262 20.446ZM288.262 12.4433C287.509 12.4433 286.773 12.6667 286.147 13.0851C285.52 13.5035 285.032 14.0982 284.744 14.794C284.456 15.4899 284.38 16.2555 284.527 16.9942C284.674 17.7328 285.037 18.4113 285.569 18.9439C286.102 19.4764 286.781 19.8391 287.519 19.986C288.258 20.133 289.024 20.0576 289.719 19.7694C290.415 19.4811 291.01 18.9931 291.428 18.3669C291.847 17.7406 292.07 17.0044 292.07 16.2513C292.069 15.2416 291.668 14.2735 290.954 13.5595C290.24 12.8455 289.272 12.4439 288.262 12.4428V12.4433Z" fill="#426572"/>
<path d="M292.93 14.8143H279.504C278.276 14.8143 277.281 15.8094 277.281 17.0371V24.7769C277.281 26.0045 278.276 26.9997 279.504 26.9997H292.93C294.158 26.9997 295.153 26.0045 295.153 24.7769V17.0371C295.153 15.8094 294.158 14.8143 292.93 14.8143Z" fill="#B0DFEA"/>
<path d="M295.169 24.7342V26.0883C295.169 26.354 295.117 26.6172 295.015 26.8627C294.914 27.1082 294.765 27.3313 294.577 27.5192C294.389 27.7071 294.166 27.8562 293.92 27.9579C293.675 28.0595 293.412 28.1118 293.146 28.1118H279.321C279.055 28.1118 278.792 28.0595 278.546 27.9578C278.301 27.8561 278.078 27.707 277.89 27.5191C277.702 27.3311 277.553 27.108 277.451 26.8624C277.349 26.6168 277.297 26.3536 277.297 26.0878V24.7342C277.297 24.9999 277.35 25.2631 277.451 25.5086C277.553 25.7541 277.702 25.9772 277.89 26.1651C278.078 26.3531 278.301 26.5021 278.546 26.6038C278.792 26.7054 279.055 26.7577 279.321 26.7577H293.146C293.412 26.7577 293.675 26.7053 293.921 26.6036C294.166 26.5019 294.389 26.3529 294.577 26.165C294.765 25.9771 294.914 25.754 295.016 25.5085C295.117 25.263 295.169 24.9999 295.169 24.7342Z" fill="#95BCC9"/>
<path d="M292.947 28.45H279.52C278.852 28.4493 278.212 28.1835 277.739 27.711C277.267 27.2385 277.001 26.5979 277 25.9298V18.1899C277.001 17.5217 277.267 16.8812 277.739 16.4087C278.212 15.9362 278.852 15.6704 279.52 15.6696H292.947C293.615 15.6704 294.255 15.9362 294.728 16.4087C295.2 16.8812 295.466 17.5217 295.467 18.1899V25.9298C295.466 26.5979 295.2 27.2385 294.728 27.711C294.255 28.1835 293.615 28.4493 292.947 28.45ZM279.52 16.2646C279.01 16.2652 278.52 16.4682 278.159 16.8291C277.799 17.1901 277.596 17.6795 277.595 18.1899V25.9298C277.596 26.4402 277.799 26.9296 278.159 27.2906C278.52 27.6515 279.01 27.8545 279.52 27.8551H292.947C293.457 27.8545 293.947 27.6515 294.308 27.2906C294.668 26.9296 294.871 26.4402 294.872 25.9298V18.1899C294.871 17.6795 294.668 17.1901 294.308 16.8291C293.947 16.4682 293.457 16.2652 292.947 16.2646H279.52Z" fill="#426572"/>
<path d="M292.877 27.1826H292.282V26.8356H292.877V27.1826ZM291.694 27.1826H291.105V26.8356H291.694V27.1826ZM290.517 27.1826H289.928V26.8356H290.517V27.1826ZM289.34 27.1826H288.751V26.8356H289.34V27.1826ZM288.163 27.1826H287.574V26.8356H288.163V27.1826ZM286.985 27.1826H286.397V26.8356H286.986L286.985 27.1826ZM285.808 27.1826H285.22V26.8356H285.809L285.808 27.1826ZM284.631 27.1826H284.041V26.8356H284.629L284.631 27.1826ZM283.454 27.1826H282.866V26.8356H283.455L283.454 27.1826ZM282.277 27.1826H281.689V26.8356H282.278L282.277 27.1826ZM281.1 27.1826H280.512V26.8356H281.1L281.1 27.1826ZM279.925 27.1826H279.732C279.582 27.1828 279.433 27.1608 279.29 27.1172L279.389 26.785C279.5 26.8183 279.615 26.835 279.73 26.8346H279.925V27.1826ZM293.522 27.0364L293.373 26.723C293.528 26.6491 293.665 26.5423 293.774 26.4102L294.042 26.6308C293.899 26.8024 293.722 26.9408 293.52 27.0364H293.522ZM278.717 26.7914C278.552 26.642 278.422 26.4584 278.336 26.2535L278.657 26.1191C278.723 26.277 278.823 26.4185 278.95 26.5336L278.717 26.7914ZM294.336 26.0422L293.999 25.957C294.023 25.863 294.035 25.7664 294.035 25.6694V25.4145H294.382V25.6694C294.382 25.795 294.368 25.9203 294.338 26.0422H294.336ZM278.566 25.6119H278.219V25.0233H278.566V25.6119ZM294.383 24.826H294.036V24.2374H294.383V24.826ZM278.566 24.4348H278.219V23.8462H278.566V24.4348ZM294.383 23.6489H294.036V23.0604H294.383V23.6489ZM278.566 23.2557H278.219V22.6696H278.566V23.2557ZM294.383 22.4698H294.036V21.8833H294.383V22.4698ZM278.566 22.0786H278.219V21.4926H278.566V22.0786ZM294.383 21.2927H294.036V20.7067H294.383V21.2927ZM278.566 20.9015H278.219V20.3155H278.566V20.9015ZM294.383 20.1156H294.036V19.5296H294.383V20.1156ZM278.566 19.7244H278.219V19.1404H278.566V19.7244ZM294.383 18.9386H294.036V18.3525H294.383V18.9386ZM278.566 18.5474H278.219V18.2975C278.219 18.1704 278.236 18.044 278.268 17.9211L278.605 18.0074C278.58 18.1022 278.568 18.1996 278.568 18.2975L278.566 18.5474ZM293.946 17.8428C293.879 17.685 293.778 17.5437 293.651 17.4288L293.884 17.1709C294.049 17.3199 294.179 17.5032 294.266 17.7079L293.946 17.8428ZM278.835 17.5537L278.567 17.3326C278.709 17.1615 278.887 17.0234 279.087 16.928L279.236 17.2418C279.081 17.3153 278.944 17.4218 278.835 17.5537ZM293.211 17.1799C293.101 17.1468 292.987 17.1301 292.872 17.1303H292.678V16.7832H292.872C293.021 16.783 293.169 16.8048 293.311 16.8477L293.211 17.1799ZM292.089 17.1303H291.499V16.7832H292.088L292.089 17.1303ZM290.912 17.1303H290.322V16.7832H290.911L290.912 17.1303ZM289.735 17.1303H289.148V16.7832H289.736L289.735 17.1303ZM288.558 17.1303H287.968V16.7832H288.557L288.558 17.1303ZM287.381 17.1303H286.791V16.7832H287.38L287.381 17.1303ZM286.204 17.1303H285.614V16.7832H286.203L286.204 17.1303ZM285.027 17.1303H284.437V16.7832H285.026L285.027 17.1303ZM283.85 17.1303H283.26V16.7832H283.849L283.85 17.1303ZM282.673 17.1303H282.083V16.7832H282.672L282.673 17.1303ZM281.496 17.1303H280.906V16.7832H281.495L281.496 17.1303ZM280.319 17.1303H279.732L279.729 16.7832H280.318L280.319 17.1303Z" fill="#426572"/>
<path d="M294.861 24.3992L291.589 24.6163C291.464 24.6259 291.338 24.6238 291.214 24.6099C290.724 24.5494 290.273 24.3119 289.946 23.942C289.619 23.5722 289.439 23.0955 289.438 22.6018C289.438 22.0653 289.652 21.5508 290.031 21.1713C290.41 20.7919 290.924 20.5786 291.461 20.5783H294.274C294.811 20.5783 295.326 20.7915 295.705 21.171C296.085 21.5505 296.298 22.0651 296.298 22.6018C296.298 23.7189 295.978 24.3992 294.861 24.3992Z" fill="#95BCC9"/>
<path d="M294.861 19.8564H292.048C290.931 19.8564 290.025 20.7622 290.025 21.8796C290.025 22.997 290.931 23.9028 292.048 23.9028H294.861C295.979 23.9028 296.885 22.997 296.885 21.8796C296.885 20.7622 295.979 19.8564 294.861 19.8564Z" fill="#D9F4F9"/>
<path d="M295.087 24.3807H292.271C291.964 24.3852 291.658 24.3285 291.373 24.2139C291.087 24.0993 290.827 23.9291 290.608 23.7131C290.389 23.4972 290.215 23.2399 290.096 22.9561C289.977 22.6723 289.916 22.3677 289.916 22.06C289.916 21.7524 289.977 21.4478 290.096 21.164C290.215 20.8802 290.389 20.6229 290.608 20.4069C290.827 20.191 291.087 20.0207 291.373 19.9061C291.658 19.7915 291.964 19.7348 292.271 19.7393H295.085C295.393 19.7348 295.698 19.7915 295.984 19.9061C296.269 20.0207 296.529 20.191 296.748 20.4069C296.967 20.6229 297.141 20.8802 297.26 21.164C297.379 21.4478 297.44 21.7524 297.44 22.06C297.44 22.3677 297.379 22.6723 297.26 22.9561C297.141 23.2399 296.967 23.4972 296.748 23.7131C296.529 23.9291 296.269 24.0993 295.984 24.2139C295.698 24.3285 295.393 24.3852 295.085 24.3807H295.087ZM292.271 20.3343C292.042 20.3304 291.814 20.3722 291.602 20.4572C291.389 20.5422 291.195 20.6687 291.032 20.8293C290.868 20.9899 290.739 21.1815 290.65 21.3928C290.562 21.6041 290.516 21.8309 290.516 22.06C290.516 22.2892 290.562 22.516 290.65 22.7273C290.739 22.9386 290.868 23.1301 291.032 23.2908C291.195 23.4514 291.389 23.5779 291.602 23.6629C291.814 23.7479 292.042 23.7896 292.271 23.7858H295.085C295.314 23.7896 295.542 23.7479 295.754 23.6629C295.967 23.5779 296.161 23.4514 296.324 23.2908C296.488 23.1301 296.617 22.9386 296.706 22.7273C296.795 22.516 296.84 22.2892 296.84 22.06C296.84 21.8309 296.795 21.6041 296.706 21.3928C296.617 21.1815 296.488 20.9899 296.324 20.8293C296.161 20.6687 295.967 20.5422 295.754 20.4572C295.542 20.3722 295.314 20.3304 295.085 20.3343H292.271Z" fill="#426572"/>
<path d="M279.386 17.9782C279.348 17.9842 279.312 18.0021 279.284 18.0294C279.256 18.0567 279.238 18.092 279.231 18.1304V18.1503V18.1875L279.228 18.2608C279.218 18.4537 279.204 18.6278 279.187 18.7735C279.153 19.0656 279.105 19.2461 279.053 19.2461C279 19.2461 278.953 19.0656 278.918 18.7735C278.901 18.6278 278.887 18.4537 278.877 18.2608L278.874 18.1875V18.1503C278.874 18.1334 278.874 18.1131 278.874 18.0947C278.88 18.0168 278.903 17.9412 278.941 17.8731C278.981 17.8016 279.037 17.7401 279.104 17.6934C279.172 17.6467 279.249 17.6159 279.33 17.6034C279.351 17.6001 279.372 17.5983 279.393 17.5979H279.524L279.684 17.6009C279.789 17.6034 279.89 17.6074 279.987 17.6118C280.18 17.6212 280.354 17.6351 280.499 17.6525C280.791 17.6867 280.972 17.7343 280.972 17.7868C280.972 17.8394 280.791 17.886 280.499 17.9212C280.354 17.9386 280.18 17.9524 279.987 17.9619C279.89 17.9668 279.788 17.9703 279.684 17.9728L279.524 17.9758H279.406C279.399 17.976 279.393 17.9768 279.386 17.9782Z" fill="#BC2727"/>
<path d="M282.152 17.9757C282.454 17.9757 282.7 17.8907 282.7 17.7858C282.7 17.6809 282.454 17.5959 282.152 17.5959C281.85 17.5959 281.605 17.6809 281.605 17.7858C281.605 17.8907 281.85 17.9757 282.152 17.9757Z" fill="#BC2727"/>
<path d="M281.81 23.9336C281.712 23.9321 281.616 23.9489 281.525 23.9832C281.56 23.9106 281.584 23.8325 281.594 23.7521C281.591 23.6606 281.567 23.5711 281.523 23.4908C281.492 23.4372 281.357 23.2166 281.108 23.2047C280.914 23.1958 280.741 23.2568 280.533 23.3777L280.243 22.9444L279.975 23.1254L280.263 23.5533L280.059 23.6891L279.773 23.2607L279.506 23.4392L279.792 23.8676L279.267 24.2192L279.452 24.4968L279.606 24.3962C279.648 24.3679 279.726 24.3228 279.782 24.3372C279.838 24.3515 279.856 24.3664 279.902 24.4363L280.642 25.5366C280.652 25.5505 280.66 25.5665 280.665 25.5835C280.669 25.6006 280.67 25.6183 280.667 25.6357C280.659 25.6719 280.64 25.6918 280.586 25.728L280.426 25.8341L280.586 26.1916L281.112 25.84L281.397 26.2669L281.664 26.0884L281.379 25.6615L281.582 25.5257L281.868 25.9526L282.135 25.7741L281.845 25.3402C281.911 25.2906 281.972 25.2411 282.007 25.2118C282.144 25.1012 282.252 24.9583 282.321 24.7958C282.407 24.5757 282.325 24.3753 282.21 24.1959C282.095 24.0164 281.948 23.9415 281.81 23.9336ZM280.261 23.9921C280.261 23.9921 280.341 23.9276 280.425 23.8731C280.515 23.8105 280.614 23.7628 280.719 23.7318C280.775 23.7108 280.837 23.7088 280.895 23.726C280.952 23.7431 281.003 23.7786 281.039 23.827C281.07 23.8663 281.088 23.9139 281.092 23.9638C281.096 24.0137 281.085 24.0636 281.06 24.1071C281.002 24.2071 280.924 24.2931 280.829 24.359C280.734 24.4279 280.607 24.5077 280.607 24.5077L280.261 23.9921ZM281.713 24.8697C281.645 24.9759 281.559 25.0689 281.459 25.1439C281.346 25.2321 281.166 25.3467 281.166 25.3467L280.783 24.7735C280.783 24.7735 280.947 24.651 281.085 24.5717C281.189 24.5092 281.304 24.4657 281.423 24.4433C281.477 24.435 281.531 24.442 281.581 24.4636C281.63 24.4851 281.673 24.5203 281.703 24.565C281.733 24.6097 281.75 24.6621 281.752 24.716C281.753 24.77 281.74 24.8233 281.712 24.8697H281.713Z" fill="#426572"/>
<path fill-rule="evenodd" clip-rule="evenodd" d="M192.797 29.8371C196.11 25.9475 198.353 21.1807 197.978 15.8393C196.898 0.449414 175.475 3.835 171.308 11.6025C167.141 19.37 167.636 39.0729 173.022 40.4612C175.17 41.0148 179.745 39.6586 184.402 36.8517L181.479 57.531H198.738L192.797 29.8371Z" fill="#915B3C"/>
<path fill-rule="evenodd" clip-rule="evenodd" d="M194.123 33.3015C196.289 23.6643 202.46 17.0949 201.518 12.7875C200.889 9.91589 199.215 8.13013 196.494 7.43023C195.086 1.73708 190.547 -0.684441 182.877 0.165672C171.372 1.44084 164.349 6.21894 167.382 16.7328C170.17 16.7328 173.535 15.7247 178.188 17.452C179.665 18 180.721 19.6996 181.357 22.5507H183.46C185.5 19.1672 187.513 17.9239 189.497 18.8207C191.481 19.7175 191.931 21.8959 190.85 25.3558L191.885 33.3015H194.123Z" fill="#191847"/>
<path fill-rule="evenodd" clip-rule="evenodd" d="M246.921 147.423H164.22C157.865 147.423 152.713 152.575 152.713 158.93V225.09C152.713 231.445 157.865 236.596 164.22 236.596H246.921C253.275 236.596 258.427 231.445 258.427 225.09V158.93C258.427 152.575 253.275 147.423 246.921 147.423ZM235.414 167.559C237.003 167.559 238.291 168.847 238.291 170.436V213.584C238.291 215.173 237.003 216.461 235.414 216.461H175.726C174.137 216.461 172.849 215.173 172.849 213.584V170.436C172.849 168.847 174.137 167.559 175.726 167.559H235.414Z" fill="#C5CFD6"/>
<path fill-rule="evenodd" clip-rule="evenodd" d="M81.4045 233.001C95.5829 215.687 105.176 202.851 110.185 194.494C118.761 180.183 125.78 167.45 127.995 162.586C133.276 150.987 115.835 145.555 111.887 150.966C105.913 159.154 93.153 184.921 73.6083 228.267L81.4045 233.001Z" fill="#B28B67"/>
<path fill-rule="evenodd" clip-rule="evenodd" d="M110.459 227.967L136.846 161.545C142.489 149.437 115.235 141.478 111.087 147.113C101.671 159.906 79.2903 210.372 76.4848 214.184L110.459 227.967Z" fill="#2F3676"/>
<path fill-rule="evenodd" clip-rule="evenodd" d="M180.736 214.646C175.596 207.148 156.9 181.924 146.716 171.486C143.79 168.487 140.935 165.609 138.234 162.926C130.207 154.953 114.222 168.354 122.235 175.617C142.188 193.703 171.302 218.12 173.735 220.297C177.144 223.348 183.966 219.358 180.736 214.646Z" fill="#915B3C"/>
<path fill-rule="evenodd" clip-rule="evenodd" d="M179.534 211.259C181.305 212.717 182.456 213.908 182.99 214.831C183.638 215.954 184.397 217.701 185.267 220.072L150.14 240.352C147.485 237.861 147.071 235.928 148.899 234.552C150.727 233.176 152.235 232.015 153.424 231.07L165.548 214.366C165.782 214.044 166.231 213.973 166.553 214.206C166.558 214.21 166.564 214.214 166.569 214.218L169.088 216.158C171.399 215.956 173.124 215.527 174.262 214.87C175.187 214.336 176.249 213.225 177.447 211.537C177.907 210.889 178.805 210.737 179.452 211.197C179.48 211.217 179.507 211.238 179.534 211.259Z" fill="#E4E4E4"/>
<path fill-rule="evenodd" clip-rule="evenodd" d="M87.5034 230.413C88.3079 232.561 88.7102 234.168 88.7102 235.234C88.7102 236.531 88.4942 238.423 88.0621 240.911H47.5014C46.4474 237.427 47.0558 235.546 49.3267 235.268C51.5976 234.99 53.4841 234.739 54.9862 234.515L73.8384 226.111C74.2012 225.949 74.6264 226.112 74.7881 226.475C74.7908 226.481 74.7935 226.487 74.7961 226.493L76.0079 229.433C78.1102 230.414 79.8185 230.904 81.1329 230.904C82.2008 230.904 83.6755 230.473 85.5572 229.61C86.2792 229.279 87.133 229.596 87.464 230.318C87.4782 230.35 87.4914 230.381 87.5034 230.413Z" fill="#E4E4E4"/>
<path fill-rule="evenodd" clip-rule="evenodd" d="M146.34 164.862C168.272 161.29 182.962 158.846 190.41 157.533C211.641 153.789 217.833 142.364 214.172 117.437H175.054C169.877 118.932 148.247 128.177 110.164 145.174C103.312 148.575 104.588 158.604 105.84 161.908C105.891 162.043 117.442 181.836 140.494 221.288L172.494 200.902L146.28 167.265C145.588 165.87 145.608 165.07 146.34 164.862Z" fill="#5C63AB"/>
<path fill-rule="evenodd" clip-rule="evenodd" d="M143.522 108.023L120.583 124.868C114.361 126.546 109.163 128.635 104.989 131.134C104.003 132.032 102.811 133.852 106.9 133.537C110.99 133.223 115.305 133.076 115.87 134.471C116.434 135.866 113.959 137.534 115.1 139.416C115.86 140.67 119.453 137.524 125.877 129.978L148.593 120.558L143.522 108.023ZM231.597 108.604L216.569 108.663C225.848 138.618 230.858 154.512 231.597 156.345C233.261 160.469 229.74 166.749 228.234 170.124C233.139 172.319 232.616 164.191 238.803 167.07C244.45 169.697 248.746 174.458 255.27 170.432C256.073 169.937 256.952 168.073 254.828 166.617C249.537 162.989 241.912 156.639 240.881 154.549C239.476 151.698 236.382 136.384 231.597 108.604Z" fill="#915B3C"/>
<path fill-rule="evenodd" clip-rule="evenodd" d="M188.89 45.5445L182.671 44.4779C159.599 64.4091 150.122 102.699 121.841 122.983L128.648 131.421C177.711 125.346 189.871 78.6412 188.89 45.5445Z" fill="#E87613"/>
<path fill-rule="evenodd" clip-rule="evenodd" d="M215.998 123.692H160.975C158.461 123.692 158.935 120.061 159.298 118.229C163.493 97.0864 179.867 74.2953 179.867 44.1988L195.738 41.71C208.866 62.8228 213.405 88.8168 215.998 123.692Z" fill="#DDE3E9"/>
<path fill-rule="evenodd" clip-rule="evenodd" d="M215.555 62.4629C217.86 61.8003 219.686 60.2549 221.031 57.8268C226.832 47.3597 224.737 41.5967 218.538 39.7024C212.339 37.8081 206.81 41.71 196.933 41.71C196.396 41.71 195.904 41.7437 195.457 41.8111L190.488 42.0946C176.233 90.4066 172.302 122.64 178.694 138.794H222.001C224.567 144.777 227.022 149.811 229.367 153.896H241.167C242.278 117.987 233.741 87.5094 215.555 62.4629Z" fill="#FF9B21"/>
<path fill-rule="evenodd" clip-rule="evenodd" d="M212.571 113.982C211.209 125.377 208.995 133.648 205.93 138.794H222.001C219.008 131.815 215.865 123.544 212.571 113.982Z" fill="black" fill-opacity="0.1"/>
<defs>
<filter id="filter0_d_38_161" x="256.896" y="118.948" width="25.3281" height="25.328" filterUnits="userSpaceOnUse" color-interpolation-filters="sRGB">
<feFlood flood-opacity="0" result="BackgroundImageFix"/>
<feColorMatrix in="SourceAlpha" type="matrix" values="0 0 0 0 0 0 0 0 0 0 0 0 0 0 0 0 0 0 127 0" result="hardAlpha"/>
<feOffset dy="1.052"/>
<feGaussianBlur stdDeviation="1.052"/>
<feComposite in2="hardAlpha" operator="out"/>
<feColorMatrix type="matrix" values="0 0 0 0 0 0 0 0 0 0 0 0 0 0 0 0 0 0 0.199474 0"/>
<feBlend mode="normal" in2="BackgroundImageFix" result="effect1_dropShadow_38_161"/>
<feBlend mode="normal" in="SourceGraphic" in2="effect1_dropShadow_38_161" result="shape"/>
</filter>
<filter id="filter1_d_38_161" x="262.528" y="121.064" width="14.7681" height="21.1005" filterUnits="userSpaceOnUse" color-interpolation-filters="sRGB">
<feFlood flood-opacity="0" result="BackgroundImageFix"/>
<feColorMatrix in="SourceAlpha" type="matrix" values="0 0 0 0 0 0 0 0 0 0 0 0 0 0 0 0 0 0 127 0" result="hardAlpha"/>
<feOffset dy="1.052"/>
<feGaussianBlur stdDeviation="1.052"/>
<feComposite in2="hardAlpha" operator="out"/>
<feColorMatrix type="matrix" values="0 0 0 0 0 0 0 0 0 0 0 0 0 0 0 0 0 0 0.204257 0"/>
<feBlend mode="normal" in2="BackgroundImageFix" result="effect1_dropShadow_38_161"/>
<feBlend mode="normal" in="SourceGraphic" in2="effect1_dropShadow_38_161" result="shape"/>
</filter>
<linearGradient id="paint0_linear_38_161" x1="228.286" y1="5.44086" x2="228.286" y2="195.441" gradientUnits="userSpaceOnUse">
<stop stop-color="#F3E2CC"/>
<stop offset="1" stop-color="white"/>
</linearGradient>
<linearGradient id="paint1_linear_38_161" x1="1315" y1="141.12" x2="1315" y2="-1970.88" gradientUnits="userSpaceOnUse">
<stop stop-color="white" stop-opacity="0.5"/>
<stop offset="1" stop-opacity="0.5"/>
</linearGradient>
</defs>
</svg>
