<svg width="167" height="133" viewBox="0 0 167 133" fill="none" xmlns="http://www.w3.org/2000/svg">
<path opacity="0.5" d="M7.3375 120.402V121.38H4.5595V129H3.3955V121.38H0.6055V120.402H7.3375ZM8.39163 129V120.162H9.45963V123.738C9.71963 123.462 10.0076 123.242 10.3236 123.078C10.6396 122.91 11.0036 122.826 11.4156 122.826C11.7476 122.826 12.0396 122.882 12.2916 122.994C12.5476 123.102 12.7596 123.258 12.9276 123.462C13.0996 123.662 13.2296 123.904 13.3176 124.188C13.4056 124.472 13.4496 124.786 13.4496 125.13V129H12.3816V125.13C12.3816 124.67 12.2756 124.314 12.0636 124.062C11.8556 123.806 11.5356 123.678 11.1036 123.678C10.7876 123.678 10.4916 123.754 10.2156 123.906C9.94363 124.058 9.69163 124.264 9.45963 124.524V129H8.39163ZM17.4656 122.826C17.8296 122.826 18.1656 122.888 18.4736 123.012C18.7816 123.132 19.0476 123.308 19.2716 123.54C19.4956 123.768 19.6696 124.052 19.7936 124.392C19.9216 124.728 19.9856 125.112 19.9856 125.544C19.9856 125.712 19.9676 125.824 19.9316 125.88C19.8956 125.936 19.8276 125.964 19.7276 125.964H15.6836C15.6916 126.348 15.7436 126.682 15.8396 126.966C15.9356 127.25 16.0676 127.488 16.2356 127.68C16.4036 127.868 16.6036 128.01 16.8356 128.106C17.0676 128.198 17.3276 128.244 17.6156 128.244C17.8836 128.244 18.1136 128.214 18.3056 128.154C18.5016 128.09 18.6696 128.022 18.8096 127.95C18.9496 127.878 19.0656 127.812 19.1576 127.752C19.2536 127.688 19.3356 127.656 19.4036 127.656C19.4916 127.656 19.5596 127.69 19.6076 127.758L19.9076 128.148C19.7756 128.308 19.6176 128.448 19.4336 128.568C19.2496 128.684 19.0516 128.78 18.8396 128.856C18.6316 128.932 18.4156 128.988 18.1916 129.024C17.9676 129.064 17.7456 129.084 17.5256 129.084C17.1056 129.084 16.7176 129.014 16.3616 128.874C16.0096 128.73 15.7036 128.522 15.4436 128.25C15.1876 127.974 14.9876 127.634 14.8436 127.23C14.6996 126.826 14.6276 126.362 14.6276 125.838C14.6276 125.414 14.6916 125.018 14.8196 124.65C14.9516 124.282 15.1396 123.964 15.3836 123.696C15.6276 123.424 15.9256 123.212 16.2776 123.06C16.6296 122.904 17.0256 122.826 17.4656 122.826ZM17.4896 123.612C16.9736 123.612 16.5676 123.762 16.2716 124.062C15.9756 124.358 15.7916 124.77 15.7196 125.298H19.0256C19.0256 125.05 18.9916 124.824 18.9236 124.62C18.8556 124.412 18.7556 124.234 18.6236 124.086C18.4916 123.934 18.3296 123.818 18.1376 123.738C17.9496 123.654 17.7336 123.612 17.4896 123.612ZM21.3526 129V122.922H21.9646C22.0806 122.922 22.1606 122.944 22.2046 122.988C22.2486 123.032 22.2786 123.108 22.2946 123.216L22.3666 124.164C22.5746 123.74 22.8306 123.41 23.1346 123.174C23.4426 122.934 23.8026 122.814 24.2146 122.814C24.3826 122.814 24.5346 122.834 24.6706 122.874C24.8066 122.91 24.9326 122.962 25.0486 123.03L24.9106 123.828C24.8826 123.928 24.8206 123.978 24.7246 123.978C24.6686 123.978 24.5826 123.96 24.4666 123.924C24.3506 123.884 24.1886 123.864 23.9806 123.864C23.6086 123.864 23.2966 123.972 23.0446 124.188C22.7966 124.404 22.5886 124.718 22.4206 125.13V129H21.3526ZM28.5984 122.826C28.9624 122.826 29.2984 122.888 29.6064 123.012C29.9144 123.132 30.1804 123.308 30.4044 123.54C30.6284 123.768 30.8024 124.052 30.9264 124.392C31.0544 124.728 31.1184 125.112 31.1184 125.544C31.1184 125.712 31.1004 125.824 31.0644 125.88C31.0284 125.936 30.9604 125.964 30.8604 125.964H26.8164C26.8244 126.348 26.8764 126.682 26.9724 126.966C27.0684 127.25 27.2004 127.488 27.3684 127.68C27.5364 127.868 27.7364 128.01 27.9684 128.106C28.2004 128.198 28.4604 128.244 28.7484 128.244C29.0164 128.244 29.2464 128.214 29.4384 128.154C29.6344 128.09 29.8024 128.022 29.9424 127.95C30.0824 127.878 30.1984 127.812 30.2904 127.752C30.3864 127.688 30.4684 127.656 30.5364 127.656C30.6244 127.656 30.6924 127.69 30.7404 127.758L31.0404 128.148C30.9084 128.308 30.7504 128.448 30.5664 128.568C30.3824 128.684 30.1844 128.78 29.9724 128.856C29.7644 128.932 29.5484 128.988 29.3244 129.024C29.1004 129.064 28.8784 129.084 28.6584 129.084C28.2384 129.084 27.8504 129.014 27.4944 128.874C27.1424 128.73 26.8364 128.522 26.5764 128.25C26.3204 127.974 26.1204 127.634 25.9764 127.23C25.8324 126.826 25.7604 126.362 25.7604 125.838C25.7604 125.414 25.8244 125.018 25.9524 124.65C26.0844 124.282 26.2724 123.964 26.5164 123.696C26.7604 123.424 27.0584 123.212 27.4104 123.06C27.7624 122.904 28.1584 122.826 28.5984 122.826ZM28.6224 123.612C28.1064 123.612 27.7004 123.762 27.4044 124.062C27.1084 124.358 26.9244 124.77 26.8524 125.298H30.1584C30.1584 125.05 30.1244 124.824 30.0564 124.62C29.9884 124.412 29.8884 124.234 29.7564 124.086C29.6244 123.934 29.4624 123.818 29.2704 123.738C29.0824 123.654 28.8664 123.612 28.6224 123.612ZM32.6846 119.952C32.8006 120.144 32.8846 120.336 32.9366 120.528C32.9886 120.72 33.0146 120.912 33.0146 121.104C33.0146 121.468 32.9246 121.816 32.7446 122.148C32.5686 122.476 32.3226 122.778 32.0066 123.054L31.6766 122.85C31.6446 122.83 31.6226 122.808 31.6106 122.784C31.6026 122.76 31.5986 122.736 31.5986 122.712C31.5986 122.656 31.6186 122.608 31.6586 122.568C31.7226 122.492 31.7846 122.41 31.8446 122.322C31.9046 122.23 31.9586 122.136 32.0066 122.04C32.0546 121.94 32.0926 121.836 32.1206 121.728C32.1486 121.62 32.1626 121.506 32.1626 121.386C32.1626 121.258 32.1426 121.126 32.1026 120.99C32.0666 120.854 32.0026 120.71 31.9106 120.558C31.8826 120.514 31.8686 120.47 31.8686 120.426C31.8686 120.33 31.9226 120.26 32.0306 120.216L32.6846 119.952ZM37.9576 123.924C37.9096 124.012 37.8356 124.056 37.7356 124.056C37.6756 124.056 37.6076 124.034 37.5316 123.99C37.4556 123.946 37.3616 123.898 37.2496 123.846C37.1416 123.79 37.0116 123.74 36.8596 123.696C36.7076 123.648 36.5276 123.624 36.3196 123.624C36.1396 123.624 35.9776 123.648 35.8336 123.696C35.6896 123.74 35.5656 123.802 35.4616 123.882C35.3616 123.962 35.2836 124.056 35.2276 124.164C35.1756 124.268 35.1496 124.382 35.1496 124.506C35.1496 124.662 35.1936 124.792 35.2816 124.896C35.3736 125 35.4936 125.09 35.6416 125.166C35.7896 125.242 35.9576 125.31 36.1456 125.37C36.3336 125.426 36.5256 125.488 36.7216 125.556C36.9216 125.62 37.1156 125.692 37.3036 125.772C37.4916 125.852 37.6596 125.952 37.8076 126.072C37.9556 126.192 38.0736 126.34 38.1616 126.516C38.2536 126.688 38.2996 126.896 38.2996 127.14C38.2996 127.42 38.2496 127.68 38.1496 127.92C38.0496 128.156 37.9016 128.362 37.7056 128.538C37.5096 128.71 37.2696 128.846 36.9856 128.946C36.7016 129.046 36.3736 129.096 36.0016 129.096C35.5776 129.096 35.1936 129.028 34.8496 128.892C34.5056 128.752 34.2136 128.574 33.9736 128.358L34.2256 127.95C34.2576 127.898 34.2956 127.858 34.3396 127.83C34.3836 127.802 34.4416 127.788 34.5136 127.788C34.5856 127.788 34.6616 127.816 34.7416 127.872C34.8216 127.928 34.9176 127.99 35.0296 128.058C35.1456 128.126 35.2836 128.188 35.4436 128.244C35.6076 128.3 35.8116 128.328 36.0556 128.328C36.2636 128.328 36.4456 128.302 36.6016 128.25C36.7576 128.194 36.8876 128.12 36.9916 128.028C37.0956 127.936 37.1716 127.83 37.2196 127.71C37.2716 127.59 37.2976 127.462 37.2976 127.326C37.2976 127.158 37.2516 127.02 37.1596 126.912C37.0716 126.8 36.9536 126.706 36.8056 126.63C36.6576 126.55 36.4876 126.482 36.2956 126.426C36.1076 126.366 35.9136 126.304 35.7136 126.24C35.5176 126.176 35.3236 126.104 35.1316 126.024C34.9436 125.94 34.7756 125.836 34.6276 125.712C34.4796 125.588 34.3596 125.436 34.2676 125.256C34.1796 125.072 34.1356 124.85 34.1356 124.59C34.1356 124.358 34.1836 124.136 34.2796 123.924C34.3756 123.708 34.5156 123.52 34.6996 123.36C34.8836 123.196 35.1096 123.066 35.3776 122.97C35.6456 122.874 35.9516 122.826 36.2956 122.826C36.6956 122.826 37.0536 122.89 37.3696 123.018C37.6896 123.142 37.9656 123.314 38.1976 123.534L37.9576 123.924ZM42.001 129V122.922H42.637C42.789 122.922 42.885 122.996 42.925 123.144L43.009 123.804C43.273 123.512 43.567 123.276 43.891 123.096C44.219 122.916 44.597 122.826 45.025 122.826C45.357 122.826 45.649 122.882 45.901 122.994C46.157 123.102 46.369 123.258 46.537 123.462C46.709 123.662 46.839 123.904 46.927 124.188C47.015 124.472 47.059 124.786 47.059 125.13V129H45.991V125.13C45.991 124.67 45.885 124.314 45.673 124.062C45.465 123.806 45.145 123.678 44.713 123.678C44.397 123.678 44.101 123.754 43.825 123.906C43.553 124.058 43.301 124.264 43.069 124.524V129H42.001ZM51.129 122.826C51.573 122.826 51.973 122.9 52.329 123.048C52.689 123.196 52.993 123.406 53.241 123.678C53.493 123.95 53.685 124.28 53.817 124.668C53.953 125.052 54.021 125.482 54.021 125.958C54.021 126.438 53.953 126.87 53.817 127.254C53.685 127.638 53.493 127.966 53.241 128.238C52.993 128.51 52.689 128.72 52.329 128.868C51.973 129.012 51.573 129.084 51.129 129.084C50.685 129.084 50.283 129.012 49.923 128.868C49.567 128.72 49.263 128.51 49.011 128.238C48.759 127.966 48.565 127.638 48.429 127.254C48.293 126.87 48.225 126.438 48.225 125.958C48.225 125.482 48.293 125.052 48.429 124.668C48.565 124.28 48.759 123.95 49.011 123.678C49.263 123.406 49.567 123.196 49.923 123.048C50.283 122.9 50.685 122.826 51.129 122.826ZM51.129 128.25C51.729 128.25 52.177 128.05 52.473 127.65C52.769 127.246 52.917 126.684 52.917 125.964C52.917 125.24 52.769 124.676 52.473 124.272C52.177 123.868 51.729 123.666 51.129 123.666C50.825 123.666 50.561 123.718 50.337 123.822C50.113 123.926 49.925 124.076 49.773 124.272C49.625 124.468 49.513 124.71 49.437 124.998C49.365 125.282 49.329 125.604 49.329 125.964C49.329 126.324 49.365 126.646 49.437 126.93C49.513 127.214 49.625 127.454 49.773 127.65C49.925 127.842 50.113 127.99 50.337 128.094C50.561 128.198 50.825 128.25 51.129 128.25ZM59.4993 129.096C59.0193 129.096 58.6493 128.962 58.3893 128.694C58.1333 128.426 58.0053 128.04 58.0053 127.536V123.816H57.2733C57.2093 123.816 57.1553 123.798 57.1113 123.762C57.0673 123.722 57.0453 123.662 57.0453 123.582V123.156L58.0413 123.03L58.2873 121.152C58.2953 121.092 58.3213 121.044 58.3652 121.008C58.4093 120.968 58.4653 120.948 58.5333 120.948H59.0733V123.042H60.8133V123.816H59.0733V127.464C59.0733 127.72 59.1353 127.91 59.2593 128.034C59.3833 128.158 59.5433 128.22 59.7393 128.22C59.8513 128.22 59.9473 128.206 60.0273 128.178C60.1113 128.146 60.1833 128.112 60.2433 128.076C60.3033 128.04 60.3533 128.008 60.3933 127.98C60.4373 127.948 60.4753 127.932 60.5073 127.932C60.5633 127.932 60.6133 127.966 60.6573 128.034L60.9693 128.544C60.7853 128.716 60.5633 128.852 60.3033 128.952C60.0433 129.048 59.7753 129.096 59.4993 129.096ZM62.1338 129V122.922H62.7458C62.8618 122.922 62.9418 122.944 62.9858 122.988C63.0298 123.032 63.0598 123.108 63.0758 123.216L63.1478 124.164C63.3558 123.74 63.6118 123.41 63.9158 123.174C64.2238 122.934 64.5838 122.814 64.9958 122.814C65.1638 122.814 65.3158 122.834 65.4518 122.874C65.5878 122.91 65.7138 122.962 65.8298 123.03L65.6918 123.828C65.6638 123.928 65.6018 123.978 65.5058 123.978C65.4498 123.978 65.3638 123.96 65.2478 123.924C65.1318 123.884 64.9698 123.864 64.7618 123.864C64.3898 123.864 64.0778 123.972 63.8258 124.188C63.5778 124.404 63.3698 124.718 63.2018 125.13V129H62.1338ZM71.215 129H70.741C70.637 129 70.553 128.984 70.489 128.952C70.425 128.92 70.383 128.852 70.363 128.748L70.243 128.184C70.083 128.328 69.927 128.458 69.775 128.574C69.623 128.686 69.463 128.782 69.295 128.862C69.127 128.938 68.947 128.996 68.755 129.036C68.567 129.076 68.357 129.096 68.125 129.096C67.889 129.096 67.667 129.064 67.459 129C67.255 128.932 67.077 128.832 66.925 128.7C66.773 128.568 66.651 128.402 66.559 128.202C66.471 127.998 66.427 127.758 66.427 127.482C66.427 127.242 66.493 127.012 66.625 126.792C66.757 126.568 66.969 126.37 67.261 126.198C67.557 126.026 67.943 125.886 68.419 125.778C68.895 125.666 69.477 125.602 70.165 125.586V125.112C70.165 124.64 70.063 124.284 69.859 124.044C69.659 123.8 69.361 123.678 68.965 123.678C68.705 123.678 68.485 123.712 68.305 123.78C68.129 123.844 67.975 123.918 67.843 124.002C67.715 124.082 67.603 124.156 67.507 124.224C67.415 124.288 67.323 124.32 67.231 124.32C67.159 124.32 67.095 124.302 67.039 124.266C66.987 124.226 66.945 124.178 66.913 124.122L66.721 123.78C67.057 123.456 67.419 123.214 67.807 123.054C68.195 122.894 68.625 122.814 69.097 122.814C69.437 122.814 69.739 122.87 70.003 122.982C70.267 123.094 70.489 123.25 70.669 123.45C70.849 123.65 70.985 123.892 71.077 124.176C71.169 124.46 71.215 124.772 71.215 125.112V129ZM68.443 128.346C68.631 128.346 68.803 128.328 68.959 128.292C69.115 128.252 69.261 128.198 69.397 128.13C69.537 128.058 69.669 127.972 69.793 127.872C69.921 127.772 70.045 127.658 70.165 127.53V126.264C69.673 126.28 69.255 126.32 68.911 126.384C68.567 126.444 68.287 126.524 68.071 126.624C67.855 126.724 67.697 126.842 67.597 126.978C67.501 127.114 67.453 127.266 67.453 127.434C67.453 127.594 67.479 127.732 67.531 127.848C67.583 127.964 67.653 128.06 67.741 128.136C67.829 128.208 67.933 128.262 68.053 128.298C68.173 128.33 68.303 128.346 68.443 128.346ZM72.833 129V122.922H73.469C73.621 122.922 73.717 122.996 73.757 123.144L73.841 123.804C74.105 123.512 74.399 123.276 74.723 123.096C75.051 122.916 75.429 122.826 75.857 122.826C76.189 122.826 76.481 122.882 76.733 122.994C76.989 123.102 77.201 123.258 77.369 123.462C77.541 123.662 77.671 123.904 77.759 124.188C77.847 124.472 77.891 124.786 77.891 125.13V129H76.823V125.13C76.823 124.67 76.717 124.314 76.505 124.062C76.297 123.806 75.977 123.678 75.545 123.678C75.229 123.678 74.933 123.754 74.657 123.906C74.385 124.058 74.133 124.264 73.901 124.524V129H72.833ZM82.981 123.924C82.933 124.012 82.859 124.056 82.759 124.056C82.699 124.056 82.631 124.034 82.555 123.99C82.479 123.946 82.385 123.898 82.273 123.846C82.165 123.79 82.035 123.74 81.883 123.696C81.731 123.648 81.551 123.624 81.343 123.624C81.163 123.624 81.001 123.648 80.857 123.696C80.713 123.74 80.589 123.802 80.485 123.882C80.385 123.962 80.307 124.056 80.251 124.164C80.199 124.268 80.173 124.382 80.173 124.506C80.173 124.662 80.217 124.792 80.305 124.896C80.397 125 80.517 125.09 80.665 125.166C80.813 125.242 80.981 125.31 81.169 125.37C81.357 125.426 81.549 125.488 81.745 125.556C81.945 125.62 82.139 125.692 82.327 125.772C82.515 125.852 82.683 125.952 82.831 126.072C82.979 126.192 83.097 126.34 83.185 126.516C83.277 126.688 83.323 126.896 83.323 127.14C83.323 127.42 83.273 127.68 83.173 127.92C83.073 128.156 82.925 128.362 82.729 128.538C82.533 128.71 82.293 128.846 82.009 128.946C81.725 129.046 81.397 129.096 81.025 129.096C80.601 129.096 80.217 129.028 79.873 128.892C79.529 128.752 79.237 128.574 78.997 128.358L79.249 127.95C79.281 127.898 79.319 127.858 79.363 127.83C79.407 127.802 79.465 127.788 79.537 127.788C79.609 127.788 79.685 127.816 79.765 127.872C79.845 127.928 79.941 127.99 80.053 128.058C80.169 128.126 80.307 128.188 80.467 128.244C80.631 128.3 80.835 128.328 81.079 128.328C81.287 128.328 81.469 128.302 81.625 128.25C81.781 128.194 81.911 128.12 82.015 128.028C82.119 127.936 82.195 127.83 82.243 127.71C82.295 127.59 82.321 127.462 82.321 127.326C82.321 127.158 82.275 127.02 82.183 126.912C82.095 126.8 81.977 126.706 81.829 126.63C81.681 126.55 81.511 126.482 81.319 126.426C81.131 126.366 80.937 126.304 80.737 126.24C80.541 126.176 80.347 126.104 80.155 126.024C79.967 125.94 79.799 125.836 79.651 125.712C79.503 125.588 79.383 125.436 79.291 125.256C79.203 125.072 79.159 124.85 79.159 124.59C79.159 124.358 79.207 124.136 79.303 123.924C79.399 123.708 79.539 123.52 79.723 123.36C79.907 123.196 80.133 123.066 80.401 122.97C80.669 122.874 80.975 122.826 81.319 122.826C81.719 122.826 82.077 122.89 82.393 123.018C82.713 123.142 82.989 123.314 83.221 123.534L82.981 123.924ZM89.1681 129H88.6941C88.5901 129 88.5061 128.984 88.4421 128.952C88.3781 128.92 88.3361 128.852 88.3161 128.748L88.1961 128.184C88.0361 128.328 87.8801 128.458 87.7281 128.574C87.5761 128.686 87.4161 128.782 87.2481 128.862C87.0801 128.938 86.9001 128.996 86.7081 129.036C86.5201 129.076 86.3101 129.096 86.0781 129.096C85.8421 129.096 85.6201 129.064 85.4121 129C85.2081 128.932 85.0301 128.832 84.8781 128.7C84.7261 128.568 84.6041 128.402 84.5121 128.202C84.4241 127.998 84.3801 127.758 84.3801 127.482C84.3801 127.242 84.4461 127.012 84.5781 126.792C84.7101 126.568 84.9221 126.37 85.2141 126.198C85.5101 126.026 85.8961 125.886 86.3721 125.778C86.8481 125.666 87.4301 125.602 88.1181 125.586V125.112C88.1181 124.64 88.0161 124.284 87.8121 124.044C87.6121 123.8 87.3141 123.678 86.9181 123.678C86.6581 123.678 86.4381 123.712 86.2581 123.78C86.0821 123.844 85.9281 123.918 85.7961 124.002C85.6681 124.082 85.5561 124.156 85.4601 124.224C85.3681 124.288 85.2761 124.32 85.1841 124.32C85.1121 124.32 85.0481 124.302 84.9921 124.266C84.9401 124.226 84.8981 124.178 84.8661 124.122L84.6741 123.78C85.0101 123.456 85.3721 123.214 85.7601 123.054C86.1481 122.894 86.5781 122.814 87.0501 122.814C87.3901 122.814 87.6921 122.87 87.9561 122.982C88.2201 123.094 88.4421 123.25 88.6221 123.45C88.8021 123.65 88.9381 123.892 89.0301 124.176C89.1221 124.46 89.1681 124.772 89.1681 125.112V129ZM86.3961 128.346C86.5841 128.346 86.7561 128.328 86.9121 128.292C87.0681 128.252 87.2141 128.198 87.3501 128.13C87.4901 128.058 87.6221 127.972 87.7461 127.872C87.8741 127.772 87.9981 127.658 88.1181 127.53V126.264C87.6261 126.28 87.2081 126.32 86.8641 126.384C86.5201 126.444 86.2401 126.524 86.0241 126.624C85.8081 126.724 85.6501 126.842 85.5501 126.978C85.4541 127.114 85.4061 127.266 85.4061 127.434C85.4061 127.594 85.4321 127.732 85.4841 127.848C85.5361 127.964 85.6061 128.06 85.6941 128.136C85.7821 128.208 85.8861 128.262 86.0061 128.298C86.1261 128.33 86.2561 128.346 86.3961 128.346ZM94.9322 124.002C94.9002 124.046 94.8682 124.08 94.8362 124.104C94.8042 124.128 94.7582 124.14 94.6982 124.14C94.6382 124.14 94.5722 124.116 94.5002 124.068C94.4322 124.016 94.3442 123.96 94.2362 123.9C94.1282 123.84 93.9962 123.786 93.8402 123.738C93.6882 123.686 93.5002 123.66 93.2762 123.66C92.9802 123.66 92.7182 123.714 92.4902 123.822C92.2622 123.926 92.0702 124.078 91.9142 124.278C91.7622 124.478 91.6462 124.72 91.5662 125.004C91.4902 125.288 91.4522 125.606 91.4522 125.958C91.4522 126.326 91.4942 126.654 91.5782 126.942C91.6622 127.226 91.7802 127.466 91.9322 127.662C92.0842 127.854 92.2682 128.002 92.4842 128.106C92.7042 128.206 92.9502 128.256 93.2222 128.256C93.4822 128.256 93.6962 128.226 93.8642 128.166C94.0322 128.102 94.1722 128.032 94.2842 127.956C94.3962 127.88 94.4882 127.812 94.5602 127.752C94.6322 127.688 94.7042 127.656 94.7762 127.656C94.8682 127.656 94.9362 127.69 94.9802 127.758L95.2802 128.148C95.0162 128.472 94.6862 128.71 94.2902 128.862C93.8942 129.01 93.4762 129.084 93.0362 129.084C92.6562 129.084 92.3022 129.014 91.9742 128.874C91.6502 128.734 91.3682 128.532 91.1282 128.268C90.8882 128 90.6982 127.672 90.5582 127.284C90.4222 126.896 90.3542 126.454 90.3542 125.958C90.3542 125.506 90.4162 125.088 90.5402 124.704C90.6682 124.32 90.8522 123.99 91.0922 123.714C91.3362 123.434 91.6362 123.216 91.9922 123.06C92.3482 122.904 92.7562 122.826 93.2162 122.826C93.6402 122.826 94.0162 122.896 94.3442 123.036C94.6722 123.172 94.9622 123.366 95.2142 123.618L94.9322 124.002ZM98.2297 129.096C97.7497 129.096 97.3797 128.962 97.1197 128.694C96.8637 128.426 96.7357 128.04 96.7357 127.536V123.816H96.0037C95.9397 123.816 95.8857 123.798 95.8417 123.762C95.7977 123.722 95.7757 123.662 95.7757 123.582V123.156L96.7717 123.03L97.0177 121.152C97.0257 121.092 97.0517 121.044 97.0957 121.008C97.1397 120.968 97.1957 120.948 97.2637 120.948H97.8037V123.042H99.5437V123.816H97.8037V127.464C97.8037 127.72 97.8657 127.91 97.9897 128.034C98.1137 128.158 98.2737 128.22 98.4697 128.22C98.5817 128.22 98.6777 128.206 98.7577 128.178C98.8417 128.146 98.9137 128.112 98.9737 128.076C99.0337 128.04 99.0837 128.008 99.1237 127.98C99.1677 127.948 99.2057 127.932 99.2377 127.932C99.2937 127.932 99.3437 127.966 99.3877 128.034L99.6997 128.544C99.5157 128.716 99.2937 128.852 99.0337 128.952C98.7737 129.048 98.5057 129.096 98.2297 129.096ZM102.052 122.922V129H100.984V122.922H102.052ZM102.292 121.014C102.292 121.118 102.27 121.216 102.226 121.308C102.186 121.396 102.13 121.476 102.058 121.548C101.99 121.616 101.91 121.67 101.818 121.71C101.726 121.75 101.628 121.77 101.524 121.77C101.42 121.77 101.322 121.75 101.23 121.71C101.142 121.67 101.062 121.616 100.99 121.548C100.922 121.476 100.868 121.396 100.828 121.308C100.788 121.216 100.768 121.118 100.768 121.014C100.768 120.91 100.788 120.812 100.828 120.72C100.868 120.624 100.922 120.542 100.99 120.474C101.062 120.402 101.142 120.346 101.23 120.306C101.322 120.266 101.42 120.246 101.524 120.246C101.628 120.246 101.726 120.266 101.818 120.306C101.91 120.346 101.99 120.402 102.058 120.474C102.13 120.542 102.186 120.624 102.226 120.72C102.27 120.812 102.292 120.91 102.292 121.014ZM106.395 122.826C106.839 122.826 107.239 122.9 107.595 123.048C107.955 123.196 108.259 123.406 108.507 123.678C108.759 123.95 108.951 124.28 109.083 124.668C109.219 125.052 109.287 125.482 109.287 125.958C109.287 126.438 109.219 126.87 109.083 127.254C108.951 127.638 108.759 127.966 108.507 128.238C108.259 128.51 107.955 128.72 107.595 128.868C107.239 129.012 106.839 129.084 106.395 129.084C105.951 129.084 105.549 129.012 105.189 128.868C104.833 128.72 104.529 128.51 104.277 128.238C104.025 127.966 103.831 127.638 103.695 127.254C103.559 126.87 103.491 126.438 103.491 125.958C103.491 125.482 103.559 125.052 103.695 124.668C103.831 124.28 104.025 123.95 104.277 123.678C104.529 123.406 104.833 123.196 105.189 123.048C105.549 122.9 105.951 122.826 106.395 122.826ZM106.395 128.25C106.995 128.25 107.443 128.05 107.739 127.65C108.035 127.246 108.183 126.684 108.183 125.964C108.183 125.24 108.035 124.676 107.739 124.272C107.443 123.868 106.995 123.666 106.395 123.666C106.091 123.666 105.827 123.718 105.603 123.822C105.379 123.926 105.191 124.076 105.039 124.272C104.891 124.468 104.779 124.71 104.703 124.998C104.631 125.282 104.595 125.604 104.595 125.964C104.595 126.324 104.631 126.646 104.703 126.93C104.779 127.214 104.891 127.454 105.039 127.65C105.191 127.842 105.379 127.99 105.603 128.094C105.827 128.198 106.091 128.25 106.395 128.25ZM110.603 129V122.922H111.239C111.391 122.922 111.487 122.996 111.527 123.144L111.611 123.804C111.875 123.512 112.169 123.276 112.493 123.096C112.821 122.916 113.199 122.826 113.627 122.826C113.959 122.826 114.251 122.882 114.503 122.994C114.759 123.102 114.971 123.258 115.139 123.462C115.311 123.662 115.441 123.904 115.529 124.188C115.617 124.472 115.661 124.786 115.661 125.13V129H114.593V125.13C114.593 124.67 114.487 124.314 114.275 124.062C114.067 123.806 113.747 123.678 113.315 123.678C112.999 123.678 112.703 123.754 112.427 123.906C112.155 124.058 111.903 124.264 111.671 124.524V129H110.603ZM120.751 123.924C120.703 124.012 120.629 124.056 120.529 124.056C120.469 124.056 120.401 124.034 120.325 123.99C120.249 123.946 120.155 123.898 120.043 123.846C119.935 123.79 119.805 123.74 119.653 123.696C119.501 123.648 119.321 123.624 119.113 123.624C118.933 123.624 118.771 123.648 118.627 123.696C118.483 123.74 118.359 123.802 118.255 123.882C118.155 123.962 118.077 124.056 118.021 124.164C117.969 124.268 117.943 124.382 117.943 124.506C117.943 124.662 117.987 124.792 118.075 124.896C118.167 125 118.287 125.09 118.435 125.166C118.583 125.242 118.751 125.31 118.939 125.37C119.127 125.426 119.319 125.488 119.515 125.556C119.715 125.62 119.909 125.692 120.097 125.772C120.285 125.852 120.453 125.952 120.601 126.072C120.749 126.192 120.867 126.34 120.955 126.516C121.047 126.688 121.093 126.896 121.093 127.14C121.093 127.42 121.043 127.68 120.943 127.92C120.843 128.156 120.695 128.362 120.499 128.538C120.303 128.71 120.063 128.846 119.779 128.946C119.495 129.046 119.167 129.096 118.795 129.096C118.371 129.096 117.987 129.028 117.643 128.892C117.299 128.752 117.007 128.574 116.767 128.358L117.019 127.95C117.051 127.898 117.089 127.858 117.133 127.83C117.177 127.802 117.235 127.788 117.307 127.788C117.379 127.788 117.455 127.816 117.535 127.872C117.615 127.928 117.711 127.99 117.823 128.058C117.939 128.126 118.077 128.188 118.237 128.244C118.401 128.3 118.605 128.328 118.849 128.328C119.057 128.328 119.239 128.302 119.395 128.25C119.551 128.194 119.681 128.12 119.785 128.028C119.889 127.936 119.965 127.83 120.013 127.71C120.065 127.59 120.091 127.462 120.091 127.326C120.091 127.158 120.045 127.02 119.953 126.912C119.865 126.8 119.747 126.706 119.599 126.63C119.451 126.55 119.281 126.482 119.089 126.426C118.901 126.366 118.707 126.304 118.507 126.24C118.311 126.176 118.117 126.104 117.925 126.024C117.737 125.94 117.569 125.836 117.421 125.712C117.273 125.588 117.153 125.436 117.061 125.256C116.973 125.072 116.929 124.85 116.929 124.59C116.929 124.358 116.977 124.136 117.073 123.924C117.169 123.708 117.309 123.52 117.493 123.36C117.677 123.196 117.903 123.066 118.171 122.97C118.439 122.874 118.745 122.826 119.089 122.826C119.489 122.826 119.847 122.89 120.163 123.018C120.483 123.142 120.759 123.314 120.991 123.534L120.751 123.924ZM126.636 129.096C126.156 129.096 125.786 128.962 125.526 128.694C125.27 128.426 125.142 128.04 125.142 127.536V123.816H124.41C124.346 123.816 124.292 123.798 124.248 123.762C124.204 123.722 124.182 123.662 124.182 123.582V123.156L125.178 123.03L125.424 121.152C125.432 121.092 125.458 121.044 125.502 121.008C125.546 120.968 125.602 120.948 125.67 120.948H126.21V123.042H127.95V123.816H126.21V127.464C126.21 127.72 126.272 127.91 126.396 128.034C126.52 128.158 126.68 128.22 126.876 128.22C126.988 128.22 127.084 128.206 127.164 128.178C127.248 128.146 127.32 128.112 127.38 128.076C127.44 128.04 127.49 128.008 127.53 127.98C127.574 127.948 127.612 127.932 127.644 127.932C127.7 127.932 127.75 127.966 127.794 128.034L128.106 128.544C127.922 128.716 127.7 128.852 127.44 128.952C127.18 129.048 126.912 129.096 126.636 129.096ZM130.459 122.922V129H129.391V122.922H130.459ZM130.699 121.014C130.699 121.118 130.677 121.216 130.633 121.308C130.593 121.396 130.537 121.476 130.465 121.548C130.397 121.616 130.317 121.67 130.225 121.71C130.133 121.75 130.035 121.77 129.931 121.77C129.827 121.77 129.729 121.75 129.637 121.71C129.549 121.67 129.469 121.616 129.397 121.548C129.329 121.476 129.275 121.396 129.235 121.308C129.195 121.216 129.175 121.118 129.175 121.014C129.175 120.91 129.195 120.812 129.235 120.72C129.275 120.624 129.329 120.542 129.397 120.474C129.469 120.402 129.549 120.346 129.637 120.306C129.729 120.266 129.827 120.246 129.931 120.246C130.035 120.246 130.133 120.266 130.225 120.306C130.317 120.346 130.397 120.402 130.465 120.474C130.537 120.542 130.593 120.624 130.633 120.72C130.677 120.812 130.699 120.91 130.699 121.014ZM133.529 120.162V129H132.461V120.162H133.529ZM136.599 120.162V129H135.531V120.162H136.599ZM140.802 129V122.922H141.438C141.59 122.922 141.686 122.996 141.726 123.144L141.81 123.804C142.074 123.512 142.368 123.276 142.692 123.096C143.02 122.916 143.398 122.826 143.826 122.826C144.158 122.826 144.45 122.882 144.702 122.994C144.958 123.102 145.17 123.258 145.338 123.462C145.51 123.662 145.64 123.904 145.728 124.188C145.816 124.472 145.86 124.786 145.86 125.13V129H144.792V125.13C144.792 124.67 144.686 124.314 144.474 124.062C144.266 123.806 143.946 123.678 143.514 123.678C143.198 123.678 142.902 123.754 142.626 123.906C142.354 124.058 142.102 124.264 141.87 124.524V129H140.802ZM149.93 122.826C150.374 122.826 150.774 122.9 151.13 123.048C151.49 123.196 151.794 123.406 152.042 123.678C152.294 123.95 152.486 124.28 152.618 124.668C152.754 125.052 152.822 125.482 152.822 125.958C152.822 126.438 152.754 126.87 152.618 127.254C152.486 127.638 152.294 127.966 152.042 128.238C151.794 128.51 151.49 128.72 151.13 128.868C150.774 129.012 150.374 129.084 149.93 129.084C149.486 129.084 149.084 129.012 148.724 128.868C148.368 128.72 148.064 128.51 147.812 128.238C147.56 127.966 147.366 127.638 147.23 127.254C147.094 126.87 147.026 126.438 147.026 125.958C147.026 125.482 147.094 125.052 147.23 124.668C147.366 124.28 147.56 123.95 147.812 123.678C148.064 123.406 148.368 123.196 148.724 123.048C149.084 122.9 149.486 122.826 149.93 122.826ZM149.93 128.25C150.53 128.25 150.978 128.05 151.274 127.65C151.57 127.246 151.718 126.684 151.718 125.964C151.718 125.24 151.57 124.676 151.274 124.272C150.978 123.868 150.53 123.666 149.93 123.666C149.626 123.666 149.362 123.718 149.138 123.822C148.914 123.926 148.726 124.076 148.574 124.272C148.426 124.468 148.314 124.71 148.238 124.998C148.166 125.282 148.13 125.604 148.13 125.964C148.13 126.324 148.166 126.646 148.238 126.93C148.314 127.214 148.426 127.454 148.574 127.65C148.726 127.842 148.914 127.99 149.138 128.094C149.362 128.198 149.626 128.25 149.93 128.25ZM153.346 122.922H154.186C154.274 122.922 154.346 122.944 154.402 122.988C154.458 123.032 154.496 123.084 154.516 123.144L155.68 127.056C155.712 127.2 155.742 127.34 155.77 127.476C155.798 127.608 155.822 127.742 155.842 127.878C155.874 127.742 155.91 127.608 155.95 127.476C155.99 127.34 156.032 127.2 156.076 127.056L157.36 123.12C157.38 123.06 157.414 123.01 157.462 122.97C157.514 122.93 157.578 122.91 157.654 122.91H158.116C158.196 122.91 158.262 122.93 158.314 122.97C158.366 123.01 158.402 123.06 158.422 123.12L159.676 127.056C159.72 127.196 159.758 127.334 159.79 127.47C159.826 127.606 159.86 127.74 159.892 127.872C159.912 127.74 159.938 127.602 159.97 127.458C160.002 127.314 160.036 127.18 160.072 127.056L161.26 123.144C161.28 123.08 161.318 123.028 161.374 122.988C161.43 122.944 161.496 122.922 161.572 122.922H162.376L160.408 129H159.562C159.458 129 159.386 128.932 159.346 128.796L158.002 124.674C157.97 124.582 157.944 124.49 157.924 124.398C157.904 124.302 157.884 124.208 157.864 124.116C157.844 124.208 157.824 124.302 157.804 124.398C157.784 124.494 157.758 124.588 157.726 124.68L156.364 128.796C156.32 128.932 156.238 129 156.118 129H155.314L153.346 122.922ZM165.029 120.402V123.834C165.029 124.014 165.025 124.19 165.017 124.362C165.013 124.534 165.005 124.708 164.993 124.884C164.981 125.056 164.965 125.234 164.945 125.418C164.929 125.598 164.909 125.792 164.885 126H164.159C164.135 125.792 164.113 125.598 164.093 125.418C164.077 125.234 164.063 125.056 164.051 124.884C164.039 124.708 164.029 124.534 164.021 124.362C164.017 124.19 164.015 124.014 164.015 123.834V120.402H165.029ZM163.757 128.34C163.757 128.236 163.775 128.138 163.811 128.046C163.851 127.954 163.903 127.874 163.967 127.806C164.035 127.738 164.115 127.684 164.207 127.644C164.299 127.604 164.397 127.584 164.501 127.584C164.605 127.584 164.703 127.604 164.795 127.644C164.887 127.684 164.967 127.738 165.035 127.806C165.103 127.874 165.155 127.954 165.191 128.046C165.231 128.138 165.251 128.236 165.251 128.34C165.251 128.448 165.231 128.548 165.191 128.64C165.155 128.728 165.103 128.806 165.035 128.874C164.967 128.942 164.887 128.994 164.795 129.03C164.703 129.07 164.605 129.09 164.501 129.09C164.397 129.09 164.299 129.07 164.207 129.03C164.115 128.994 164.035 128.942 163.967 128.874C163.903 128.806 163.851 128.728 163.811 128.64C163.775 128.548 163.757 128.448 163.757 128.34Z" fill="#1A1A1A"/>
<rect opacity="0.01" x="33" width="100" height="100" fill="white"/>
<ellipse cx="83.0002" cy="89.726" rx="41.0959" ry="3.42466" fill="#F2F2F2"/>
<path d="M72.9162 11.8668C73.0383 10.5692 72.6104 9.28014 71.7398 8.32249C70.8691 7.36485 69.6381 6.82928 68.355 6.84989H111.207C112.49 6.82928 113.721 7.36485 114.592 8.32249C115.463 9.28014 115.891 10.5692 115.768 11.8668H72.9162Z" fill="#E7E7E7" stroke="#E7E7E7" stroke-linejoin="round"/>
<path d="M68.3662 6.84989C65.5904 6.89329 63.2947 9.05816 63.046 11.8668L58.6554 70.325C58.4085 73.133 56.1139 75.2983 53.3389 75.3419H96.1911C98.9669 75.2985 101.263 73.1336 101.511 70.325L105.902 11.8668C106.149 9.05874 108.443 6.89347 111.218 6.84989L68.3662 6.84989Z" fill="white" stroke="#E7E7E7"/>
<path d="M91.6261 70.325C91.504 71.6226 91.9319 72.9116 92.8025 73.8693C93.6732 74.8269 94.9042 75.3625 96.1873 75.3419H53.3351C52.052 75.3625 50.821 74.8269 49.9503 73.8693C49.0797 72.9116 48.6518 71.6226 48.7739 70.325H91.6261Z" fill="#E7E7E7"/>
<path d="M66.5428 69.1703C66.7063 67.0345 66.0453 65.3081 63.9463 65.3081H96.9425C99.0415 65.3081 100.621 67.2595 99.5427 69.1703H66.5428Z" fill="#E0E0E0"/>
<path d="M91.6261 70.325C91.8678 67.5125 94.1638 65.3411 96.9427 65.297H54.0905C51.3154 65.3406 49.0208 67.5058 48.7739 70.3139L91.6261 70.325Z" fill="#E7E7E7"/>
<rect x="63.7163" y="57.0584" width="33.8944" height="2.95113" rx="1.47556" fill="#E7E7E7"/>
<rect x="64.2007" y="50.6643" width="33.8944" height="2.95113" rx="1.47556" fill="#E7E7E7"/>
<rect x="64.6851" y="44.2702" width="33.8944" height="2.95113" rx="1.47556" fill="#E7E7E7"/>
<rect x="65.1689" y="37.8761" width="33.8944" height="2.95113" rx="1.47556" fill="#E7E7E7"/>
<rect x="65.6533" y="31.482" width="33.8944" height="2.95113" rx="1.47556" fill="#E7E7E7"/>
<rect x="66.1377" y="25.0879" width="33.8944" height="2.95113" rx="1.47556" fill="#E7E7E7"/>
<rect x="66.6216" y="18.6938" width="33.8944" height="2.95113" rx="1.47556" fill="#E7E7E7"/>
</svg>
