<svg width="24" height="22" viewBox="0 0 24 22" fill="none" xmlns="http://www.w3.org/2000/svg">
<path d="M21.0652 21.544H2.87253C1.31658 21.544 0 20.2274 0 18.6715V13.1658H2.39378V18.1927C2.39378 18.9108 2.87253 19.1502 3.59067 19.1502H20.3471C21.0652 19.1502 21.544 18.6715 21.544 17.9533V13.1658H23.9378V18.6715C23.9378 20.2274 22.6212 21.544 21.0652 21.544Z" fill="white"/>
<path d="M15.9186 10.8917L13.6445 13.1658V8.37822C13.6445 5.98444 13.6445 2.51347 16.517 0C12.4476 0.718133 10.4129 3.83004 10.2932 8.37822V13.1658L8.01909 10.8917L5.98438 11.9689L11.9688 17.9533L17.9533 11.9689L15.9186 10.8917Z" fill="white"/>
</svg>
