<svg width="19" height="21" viewBox="0 0 19 21" fill="none" xmlns="http://www.w3.org/2000/svg">
<path d="M3.84912 19.99V13.3435" stroke="#656565" stroke-width="2" stroke-miterlimit="10" stroke-linecap="round" stroke-linejoin="round"/>
<path d="M3.84912 3.84849V1" stroke="#656565" stroke-width="2" stroke-miterlimit="10" stroke-linecap="round" stroke-linejoin="round"/>
<path d="M14.2935 19.9899V17.1414" stroke="#656565" stroke-width="2" stroke-miterlimit="10" stroke-linecap="round" stroke-linejoin="round"/>
<path d="M14.2935 7.64648V1" stroke="#656565" stroke-width="2" stroke-miterlimit="10" stroke-linecap="round" stroke-linejoin="round"/>
<path d="M6.69699 5.74754V11.4445C6.69699 12.489 6.22224 13.3435 4.79799 13.3435H2.899C1.47475 13.3435 1 12.489 1 11.4445V5.74754C1 4.70309 1.47475 3.84854 2.899 3.84854H4.79799C6.22224 3.84854 6.69699 4.70309 6.69699 5.74754Z" stroke="#656565" stroke-width="2" stroke-miterlimit="10" stroke-linecap="round" stroke-linejoin="round"/>
<path d="M17.1408 9.54548V15.2425C17.1408 16.2869 16.6661 17.1415 15.2418 17.1415H13.3428C11.9186 17.1415 11.4438 16.2869 11.4438 15.2425V9.54548C11.4438 8.50103 11.9186 7.64648 13.3428 7.64648H15.2418C16.6661 7.64648 17.1408 8.50103 17.1408 9.54548Z" stroke="#656565" stroke-width="2" stroke-miterlimit="10" stroke-linecap="round" stroke-linejoin="round"/>
</svg>
