<svg width="28" height="28" viewBox="0 0 28 28" fill="none" xmlns="http://www.w3.org/2000/svg">
<path d="M12.0201 6.41C8.71009 6.41 6.02009 9.1 6.02009 12.41V15.3C6.02009 15.91 5.76009 16.84 5.45009 17.36L4.30009 19.27C3.59009 20.45 4.08009 21.76 5.38009 22.2C9.69009 23.64 14.3401 23.64 18.6501 22.2C19.8601 21.8 20.3901 20.37 19.7301 19.27L18.5801 17.36C18.2801 16.84 18.0201 15.91 18.0201 15.3V12.41C18.0201 9.11 15.3201 6.41 12.0201 6.41Z" stroke="black" stroke-width="1.75" stroke-miterlimit="10" stroke-linecap="round"/>
<path d="M13.8699 6.7C13.5599 6.61 13.2399 6.54 12.9099 6.5C11.9499 6.38 11.0299 6.45 10.1699 6.7C10.4599 5.96 11.1799 5.44 12.0199 5.44C12.8599 5.44 13.5799 5.96 13.8699 6.7Z" stroke="black" stroke-width="1.75" stroke-miterlimit="10" stroke-linecap="round" stroke-linejoin="round"/>
<path d="M15.02 22.56C15.02 24.21 13.67 25.56 12.02 25.56C11.2 25.56 10.44 25.22 9.90002 24.68C9.36002 24.14 9.02002 23.38 9.02002 22.56" stroke="black" stroke-width="1.75" stroke-miterlimit="10"/>
<circle cx="20" cy="8" r="8" fill="#F02D2D"/>
<path d="M17.408 11V5.84H16.264V5.04H18.344V11H17.408ZM19.6128 11V10.32L21.2448 8.576C21.5648 8.23467 21.8155 7.96 21.9968 7.752C22.1835 7.53867 22.3168 7.352 22.3968 7.192C22.4821 7.032 22.5248 6.864 22.5248 6.688C22.5248 6.4 22.4368 6.17867 22.2608 6.024C22.0848 5.864 21.8581 5.784 21.5808 5.784C21.2928 5.784 21.0448 5.86667 20.8368 6.032C20.6288 6.192 20.4848 6.42667 20.4048 6.736L19.5728 6.496C19.6368 6.18133 19.7648 5.90933 19.9568 5.68C20.1488 5.44533 20.3835 5.264 20.6608 5.136C20.9435 5.008 21.2475 4.944 21.5728 4.944C21.9515 4.944 22.2821 5.016 22.5648 5.16C22.8475 5.29867 23.0661 5.49333 23.2208 5.744C23.3808 5.99467 23.4608 6.28533 23.4608 6.616C23.4608 6.83467 23.4181 7.048 23.3328 7.256C23.2528 7.45867 23.1275 7.67467 22.9568 7.904C22.7861 8.128 22.5675 8.38133 22.3008 8.664L20.8608 10.2H23.5728V11H19.6128Z" fill="white"/>
</svg>
