<svg width="68" height="68" viewBox="0 0 68 68" fill="none" xmlns="http://www.w3.org/2000/svg">
<g filter="url(#filter0_d_75_318)">
<rect x="12" y="8" width="44" height="44" rx="20" fill="white" shape-rendering="crispEdges"/>
<path d="M34.0201 20.91C30.7101 20.91 28.0201 23.6 28.0201 26.91V29.8C28.0201 30.41 27.7601 31.34 27.4501 31.86L26.3001 33.77C25.5901 34.95 26.0801 36.26 27.3801 36.7C31.6901 38.14 36.3401 38.14 40.6501 36.7C41.8601 36.3 42.3901 34.87 41.7301 33.77L40.5801 31.86C40.2801 31.34 40.0201 30.41 40.0201 29.8V26.91C40.0201 23.61 37.3201 20.91 34.0201 20.91Z" stroke="black" stroke-width="1.5" stroke-miterlimit="10" stroke-linecap="round"/>
<path d="M35.8699 21.2C35.5599 21.11 35.2399 21.04 34.9099 21C33.9499 20.88 33.0299 20.95 32.1699 21.2C32.4599 20.46 33.1799 19.94 34.0199 19.94C34.8599 19.94 35.5799 20.46 35.8699 21.2Z" stroke="black" stroke-width="1.5" stroke-miterlimit="10" stroke-linecap="round" stroke-linejoin="round"/>
<path d="M37.02 37.06C37.02 38.71 35.67 40.06 34.02 40.06C33.2 40.06 32.44 39.72 31.9 39.18C31.36 38.64 31.02 37.88 31.02 37.06" stroke="black" stroke-width="1.5" stroke-miterlimit="10"/>
</g>
<defs>
<filter id="filter0_d_75_318" x="0" y="0" width="68" height="68" filterUnits="userSpaceOnUse" color-interpolation-filters="sRGB">
<feFlood flood-opacity="0" result="BackgroundImageFix"/>
<feColorMatrix in="SourceAlpha" type="matrix" values="0 0 0 0 0 0 0 0 0 0 0 0 0 0 0 0 0 0 127 0" result="hardAlpha"/>
<feOffset dy="4"/>
<feGaussianBlur stdDeviation="6"/>
<feComposite in2="hardAlpha" operator="out"/>
<feColorMatrix type="matrix" values="0 0 0 0 0.152941 0 0 0 0 0.133333 0 0 0 0 0.27451 0 0 0 0.1 0"/>
<feBlend mode="normal" in2="BackgroundImageFix" result="effect1_dropShadow_75_318"/>
<feBlend mode="normal" in="SourceGraphic" in2="effect1_dropShadow_75_318" result="shape"/>
</filter>
</defs>
</svg>
