<svg width="290" height="288" viewBox="0 0 290 288" fill="none" xmlns="http://www.w3.org/2000/svg">
<path fill-rule="evenodd" clip-rule="evenodd" d="M84.3879 70.7326C110.287 52.3 140.614 55.889 168.95 59.2013C196.881 62.4663 227.218 65.8357 239.478 88.8618C252.352 113.042 243.743 144.823 229.701 173.299C214.635 203.85 194.037 236.093 161.502 246.985C128.759 257.946 99.4624 242.446 75.5529 224.904C52.4777 207.973 33.4952 185.029 35.253 154.355C37.0403 123.166 55.9851 90.9472 84.3879 70.7326Z" fill="#FEECD4" fill-opacity="0.1" stroke="#FEECD4"/>
<path opacity="0.5" fill-rule="evenodd" clip-rule="evenodd" d="M79.332 212.799C57.8622 189.356 57.7047 158.818 57.5168 130.289C57.3316 102.169 56.9549 71.6475 78.3036 56.656C100.722 40.9134 133.319 45.5598 163.303 56.0042C195.47 67.2093 229.996 83.6975 244.796 114.651C259.69 145.802 247.901 176.779 233.423 202.659C219.45 227.637 199.007 249.29 168.349 251.307C137.176 253.358 102.877 238.508 79.332 212.799Z" fill="#FEECD4" fill-opacity="0.1" stroke="#FEECD4"/>
<circle cx="97.0498" cy="51.9625" r="18" fill="#E0F6FF"/>
<path d="M94.9657 50.5887C97.5785 50.5887 99.6967 48.4705 99.6967 45.8577C99.6967 43.2448 97.5785 41.1266 94.9657 41.1266C92.3528 41.1266 90.2346 43.2448 90.2346 45.8577C90.2346 48.4705 92.3528 50.5887 94.9657 50.5887Z" fill="#F5E48F"/>
<path opacity="0.6" d="M99.5781 45.8565C99.5782 46.9512 99.1986 48.0121 98.5041 48.8584C97.8096 49.7046 96.8431 50.2838 95.7694 50.4974C94.6957 50.7109 93.5811 50.5455 92.6157 50.0294C91.6503 49.5132 90.8937 48.6783 90.4749 47.6668C90.7867 47.4914 91.1325 47.385 91.489 47.3546C91.8455 47.3243 92.2044 47.3708 92.5414 47.4909C93.0415 47.6733 93.4729 48.0145 93.9765 48.188C95.0664 48.5638 96.3801 48.0068 96.9177 46.9874C97.4553 45.9679 97.2109 44.6119 96.3837 43.8052C95.9621 43.3948 95.4234 43.1216 94.8717 42.9153C93.8327 42.5297 92.7278 42.3532 91.6204 42.3959C92.2944 41.7673 93.1372 41.3493 94.0455 41.1931C94.9537 41.037 95.8878 41.1495 96.733 41.5169C97.5782 41.8842 98.2977 42.4905 98.8031 43.2611C99.3086 44.0317 99.5779 44.9331 99.5781 45.8547V45.8565Z" fill="#DEC378"/>
<path opacity="0.5" d="M94.8496 41.6214C96.059 41.6214 97.2225 42.0845 98.1011 42.9156C98.9797 43.7468 99.5066 44.8828 99.5736 46.0904C99.5783 46.0036 99.5812 45.9145 99.5812 45.8284C99.5812 44.5736 99.0828 43.3702 98.1955 42.483C97.3083 41.5958 96.1049 41.0973 94.8502 41.0973C93.5954 41.0973 92.3921 41.5958 91.5048 42.483C90.6176 43.3702 90.1191 44.5736 90.1191 45.8284C90.1191 45.9163 90.1191 46.0042 90.1268 46.0904C90.1937 44.883 90.7205 43.7472 91.5988 42.916C92.4771 42.0849 93.6404 41.6217 94.8496 41.6214Z" fill="#E1D2D5"/>
<path opacity="0.3" d="M94.8495 49.9327C93.6403 49.9328 92.4769 49.4698 91.5984 48.6389C90.7199 47.808 90.1928 46.6722 90.1255 45.4649C90.1209 45.5516 90.1179 45.6407 90.1179 45.7269C90.1179 46.9817 90.6164 48.185 91.5036 49.0723C92.3908 49.9595 93.5942 50.458 94.849 50.458C96.1037 50.458 97.3071 49.9595 98.1943 49.0723C99.0815 48.185 99.58 46.9817 99.58 45.7269C99.58 45.639 99.58 45.5511 99.5724 45.4649C99.5051 46.672 98.9782 47.8076 98.0999 48.6385C97.2216 49.4694 96.0586 49.9325 94.8495 49.9327Z" fill="#BC2727"/>
<path d="M91.6258 46.5096H90.271V46.1602H91.2764V45.3875H91.6258V46.5096Z" fill="#426572"/>
<path d="M91.4399 45.5979C91.3336 45.5979 91.2297 45.5664 91.1413 45.5073C91.0529 45.4483 90.984 45.3643 90.9433 45.2661C90.9026 45.1679 90.8919 45.0598 90.9127 44.9555C90.9334 44.8512 90.9846 44.7554 91.0598 44.6802C91.135 44.605 91.2308 44.5538 91.3351 44.5331C91.4393 44.5124 91.5474 44.523 91.6457 44.5637C91.7439 44.6044 91.8279 44.6733 91.8869 44.7617C91.946 44.8501 91.9775 44.954 91.9775 45.0604C91.9774 45.2029 91.9207 45.3395 91.8199 45.4403C91.7191 45.5411 91.5825 45.5978 91.4399 45.5979ZM91.4399 44.8728C91.4027 44.8728 91.3663 44.8838 91.3354 44.9045C91.3044 44.9252 91.2803 44.9545 91.2661 44.9889C91.2518 45.0233 91.2481 45.0612 91.2554 45.0977C91.2626 45.1342 91.2805 45.1677 91.3069 45.194C91.3332 45.2203 91.3667 45.2383 91.4032 45.2455C91.4397 45.2528 91.4776 45.249 91.512 45.2348C91.5463 45.2206 91.5757 45.1964 91.5964 45.1655C91.6171 45.1345 91.6281 45.0982 91.6281 45.0609C91.6282 45.0362 91.6234 45.0116 91.614 44.9887C91.6045 44.9658 91.5907 44.945 91.5732 44.9275C91.5557 44.91 91.535 44.896 91.5121 44.8866C91.4892 44.8771 91.4647 44.8722 91.4399 44.8722V44.8728Z" fill="#426572"/>
<path d="M95.6399 42.6368H94.3672V41.0944H94.7166V42.2874H95.6399V42.6368Z" fill="#426572"/>
<path d="M96.0193 43.0471C95.9016 43.047 95.7866 43.012 95.6888 42.9466C95.5911 42.8811 95.5149 42.7881 95.4699 42.6794C95.425 42.5707 95.4133 42.451 95.4363 42.3357C95.4593 42.2203 95.5161 42.1143 95.5993 42.0311C95.6825 41.948 95.7886 41.8914 95.904 41.8684C96.0194 41.8455 96.139 41.8574 96.2477 41.9024C96.3564 41.9475 96.4493 42.0237 96.5146 42.1216C96.58 42.2194 96.6149 42.3344 96.6149 42.4521C96.6147 42.61 96.5519 42.7613 96.4402 42.8729C96.3285 42.9845 96.1771 43.0471 96.0193 43.0471ZM96.0193 42.2059C95.9707 42.2059 95.9232 42.2203 95.8828 42.2473C95.8424 42.2743 95.8109 42.3126 95.7923 42.3575C95.7737 42.4024 95.7689 42.4518 95.7783 42.4994C95.7878 42.5471 95.8112 42.5909 95.8456 42.6252C95.8799 42.6596 95.9237 42.683 95.9713 42.6924C96.019 42.7019 96.0684 42.697 96.1133 42.6785C96.1581 42.6599 96.1965 42.6284 96.2235 42.588C96.2505 42.5476 96.2649 42.5001 96.2649 42.4515C96.2647 42.3864 96.2388 42.324 96.1928 42.278C96.1468 42.232 96.0844 42.206 96.0193 42.2059Z" fill="#426572"/>
<path d="M98.4034 47.0595H98.054V45.918H99.4328V46.2674H98.4034V47.0595Z" fill="#426572"/>
<path d="M98.2404 47.9394C98.1327 47.9394 98.0274 47.9075 97.9378 47.8476C97.8483 47.7878 97.7785 47.7027 97.7373 47.6032C97.696 47.5037 97.6853 47.3942 97.7063 47.2885C97.7273 47.1829 97.7792 47.0858 97.8553 47.0097C97.9315 46.9335 98.0285 46.8816 98.1342 46.8606C98.2398 46.8396 98.3493 46.8504 98.4488 46.8916C98.5484 46.9328 98.6334 47.0026 98.6933 47.0922C98.7531 47.1818 98.7851 47.2871 98.7851 47.3948C98.7849 47.5392 98.7275 47.6776 98.6254 47.7797C98.5233 47.8818 98.3848 47.9393 98.2404 47.9394ZM98.2404 47.199C98.2018 47.1991 98.1642 47.2106 98.1321 47.2322C98.1001 47.2537 98.0752 47.2842 98.0605 47.3199C98.0458 47.3556 98.042 47.3948 98.0496 47.4326C98.0572 47.4705 98.0759 47.5052 98.1032 47.5324C98.1305 47.5597 98.1653 47.5782 98.2031 47.5857C98.241 47.5932 98.2802 47.5893 98.3159 47.5745C98.3515 47.5597 98.3819 47.5347 98.4034 47.5026C98.4248 47.4705 98.4362 47.4328 98.4362 47.3942C98.4363 47.3684 98.4313 47.3429 98.4215 47.3191C98.4117 47.2953 98.3973 47.2736 98.3791 47.2554C98.3609 47.2371 98.3393 47.2226 98.3155 47.2128C98.2917 47.2029 98.2662 47.1978 98.2404 47.1978V47.199Z" fill="#426572"/>
<path d="M95.206 50.591H94.8566V49.5985H94.0945V49.2491H95.206V50.591Z" fill="#426572"/>
<path d="M93.7703 49.9661C93.6648 49.9661 93.5616 49.9348 93.4739 49.8762C93.3862 49.8176 93.3178 49.7342 93.2774 49.6368C93.237 49.5393 93.2265 49.432 93.2471 49.3285C93.2677 49.225 93.3185 49.13 93.3931 49.0554C93.4677 48.9808 93.5627 48.9299 93.6662 48.9094C93.7697 48.8888 93.877 48.8993 93.9745 48.9397C94.0719 48.9801 94.1553 49.0485 94.2139 49.1362C94.2725 49.2239 94.3038 49.3271 94.3038 49.4326C94.3036 49.574 94.2474 49.7096 94.1474 49.8097C94.0473 49.9097 93.9117 49.9659 93.7703 49.9661ZM93.7703 49.2485C93.7339 49.2485 93.6983 49.2593 93.668 49.2795C93.6378 49.2998 93.6142 49.3285 93.6002 49.3622C93.5863 49.3958 93.5827 49.4328 93.5898 49.4685C93.5969 49.5042 93.6144 49.537 93.6401 49.5628C93.6659 49.5885 93.6987 49.606 93.7344 49.6131C93.7701 49.6202 93.8071 49.6166 93.8407 49.6027C93.8744 49.5887 93.9031 49.5651 93.9234 49.5349C93.9436 49.5046 93.9544 49.469 93.9544 49.4326C93.9544 49.3838 93.935 49.337 93.9005 49.3024C93.8659 49.2679 93.8191 49.2485 93.7703 49.2485Z" fill="#426572"/>
<path d="M96.4091 45.8289C96.2932 45.75 96.1635 45.6935 96.0268 45.6624C96.1278 45.6044 96.2184 45.5299 96.2947 45.442C96.3642 45.3303 96.4064 45.2037 96.4179 45.0726C96.4243 44.9841 96.4395 44.6124 96.1499 44.3985C95.926 44.2331 95.6692 44.1675 95.3251 44.1458V43.3954H94.8625V44.1364H94.5108V43.3954H94.0488V44.1364H93.1401V44.6165H93.4075C93.4802 44.6165 93.6097 44.6248 93.6648 44.6863C93.7199 44.7479 93.7299 44.7801 93.7299 44.9003C93.7299 45.0205 93.7299 46.7675 93.7299 46.8132C93.7317 46.8383 93.7284 46.8635 93.7202 46.8872C93.7121 46.911 93.6992 46.9329 93.6824 46.9516C93.6437 46.9885 93.6044 46.9967 93.5118 46.9967H93.2351L93.1401 47.5519H94.0494V48.2912H94.5114V47.5525H94.8631V48.2912H95.3257V47.5396C95.4429 47.5325 95.5567 47.5238 95.6188 47.515C95.8718 47.4927 96.1153 47.4081 96.3276 47.2687C96.606 47.0741 96.6688 46.7698 96.6752 46.4632C96.6817 46.1566 96.5662 45.9462 96.4091 45.8289ZM94.5102 44.6564C94.5102 44.6564 94.6573 44.6435 94.8033 44.6459C94.9596 44.6443 95.1152 44.6676 95.2641 44.715C95.4541 44.7737 95.5666 44.9161 95.5707 45.0844C95.5763 45.1561 95.5603 45.2279 95.5249 45.2905C95.4895 45.3532 95.4363 45.4039 95.372 45.4361C95.2235 45.5099 95.0605 45.5499 94.8948 45.5534C94.7265 45.5598 94.5102 45.5534 94.5102 45.5534V44.6564ZM95.5438 46.8689C95.3787 46.9426 95.2014 46.9852 95.0208 46.9944C94.8156 47.0096 94.509 47.0032 94.509 47.0032V46.0112C94.509 46.0112 94.8022 45.996 95.032 46.0112C95.2068 46.02 95.3787 46.0597 95.5397 46.1285C95.6099 46.1614 95.6693 46.2136 95.7111 46.279C95.7528 46.3443 95.7752 46.4201 95.7757 46.4977C95.7761 46.5752 95.7545 46.6513 95.7135 46.7171C95.6724 46.7829 95.6136 46.8358 95.5438 46.8695V46.8689Z" fill="#426572"/>
<path d="M97.9672 43.4153C98.3712 43.9261 98.6459 44.5268 98.768 45.1665C98.7879 45.2767 98.9567 45.2304 98.9362 45.1202C98.8065 44.4515 98.5168 43.8241 98.092 43.2916C98.0234 43.2031 97.9003 43.3274 97.9683 43.4153H97.9672Z" fill="#BC2727"/>
<path d="M97.1629 42.6145C97.3572 42.7607 97.5364 42.9261 97.6976 43.1081C97.7749 43.1902 97.8981 43.0665 97.8213 42.9844C97.6493 42.7922 97.4584 42.6178 97.2514 42.4638C97.1594 42.3988 97.072 42.5506 97.1635 42.6145H97.1629Z" fill="#BC2727"/>
<path d="M94.8022 50.883C93.8212 50.8825 92.8624 50.5912 92.047 50.0458C91.2315 49.5005 90.5961 48.7256 90.2211 47.8192C89.846 46.9127 89.7482 45.9154 89.9399 44.9534C90.1316 43.9913 90.6042 43.1077 91.2981 42.4143C91.992 41.7208 92.8759 41.2487 93.838 41.0575C94.8002 40.8664 95.7974 40.9648 96.7037 41.3404C97.6099 41.716 98.3844 42.3519 98.9292 43.1676C99.4741 43.9834 99.7649 44.9423 99.7648 45.9233C99.7632 47.2387 99.2398 48.4998 98.3093 49.4296C97.3789 50.3595 96.1176 50.8822 94.8022 50.883ZM94.8022 41.4209C93.9117 41.4209 93.0412 41.685 92.3008 42.1797C91.5603 42.6744 90.9833 43.3776 90.6425 44.2003C90.3017 45.023 90.2125 45.9283 90.3863 46.8017C90.56 47.6751 90.9888 48.4773 91.6185 49.107C92.2481 49.7367 93.0504 50.1655 93.9238 50.3392C94.7972 50.5129 95.7024 50.4238 96.5251 50.083C97.3478 49.7422 98.051 49.1651 98.5458 48.4247C99.0405 47.6843 99.3045 46.8138 99.3045 45.9233C99.3033 44.7296 98.8285 43.5851 97.9845 42.741C97.1404 41.8969 95.9959 41.4222 94.8022 41.4209Z" fill="#426572"/>
<path d="M98.5294 50.6537C101.142 50.6537 103.26 48.5356 103.26 45.9227C103.26 43.3098 101.142 41.1917 98.5294 41.1917C95.9165 41.1917 93.7983 43.3098 93.7983 45.9227C93.7983 48.5356 95.9165 50.6537 98.5294 50.6537Z" fill="#F5E48F"/>
<path opacity="0.6" d="M103.142 45.9221C103.142 47.0169 102.763 48.0778 102.068 48.924C101.374 49.7703 100.407 50.3495 99.3334 50.563C98.2596 50.7765 97.1451 50.6111 96.1797 50.095C95.2142 49.5789 94.4576 48.7439 94.0388 47.7325C94.3507 47.5571 94.6965 47.4506 95.053 47.4203C95.4095 47.3899 95.7683 47.4364 96.1053 47.5566C96.6054 47.7389 97.0369 48.0801 97.5405 48.2536C98.6303 48.6294 99.9441 48.0725 100.482 47.053C101.019 46.0335 100.775 44.6775 99.9476 43.8708C99.5261 43.4605 98.9873 43.1873 98.4357 42.9809C97.3967 42.5954 96.2918 42.4189 95.1843 42.4615C95.8583 41.8329 96.7012 41.4149 97.6095 41.2588C98.5177 41.1026 99.4518 41.2151 100.297 41.5825C101.142 41.9499 101.862 42.5561 102.367 43.3267C102.873 44.0973 103.142 44.9988 103.142 45.9204V45.9221Z" fill="#DEC378"/>
<path opacity="0.5" d="M98.4133 41.6871C99.6227 41.687 100.786 42.1501 101.665 42.9813C102.543 43.8124 103.07 44.9485 103.137 46.1561C103.142 46.0693 103.145 45.9802 103.145 45.894C103.145 44.6392 102.646 43.4359 101.759 42.5487C100.872 41.6614 99.6686 41.163 98.4139 41.163C97.1591 41.163 95.9558 41.6614 95.0685 42.5487C94.1813 43.4359 93.6829 44.6392 93.6829 45.894C93.6829 45.9819 93.6829 46.0699 93.6905 46.1561C93.7575 44.9487 94.2842 43.8128 95.1625 42.9817C96.0409 42.1506 97.2041 41.6873 98.4133 41.6871Z" fill="#E1D2D5"/>
<path opacity="0.3" d="M98.4133 49.9989C97.2038 49.999 96.0403 49.5359 95.1617 48.7047C94.2832 47.8736 93.7563 46.7375 93.6893 45.5299C93.6846 45.6167 93.6816 45.7058 93.6816 45.792C93.6816 46.4133 93.804 47.0285 94.0418 47.6025C94.2795 48.1765 94.628 48.698 95.0673 49.1373C95.5066 49.5767 96.0282 49.9251 96.6022 50.1629C97.1762 50.4007 97.7914 50.523 98.4127 50.523C99.034 50.523 99.6492 50.4007 100.223 50.1629C100.797 49.9251 101.319 49.5767 101.758 49.1373C102.197 48.698 102.546 48.1765 102.784 47.6025C103.021 47.0285 103.144 46.4133 103.144 45.792C103.144 45.7041 103.144 45.6161 103.136 45.5299C103.069 46.7373 102.542 47.8732 101.664 48.7043C100.786 49.5354 99.6225 49.9987 98.4133 49.9989Z" fill="#BC2727"/>
<path d="M95.189 46.5746H93.8347V46.2258H94.8401V45.4531H95.189V46.5746Z" fill="#426572"/>
<path d="M95.0055 45.663C94.8992 45.6629 94.7953 45.6313 94.707 45.5721C94.6187 45.513 94.5499 45.429 94.5093 45.3307C94.4687 45.2325 94.4581 45.1244 94.4789 45.0202C94.4997 44.9159 94.551 44.8202 94.6262 44.7451C94.7014 44.67 94.7972 44.6188 94.9014 44.5981C95.0057 44.5774 95.1138 44.5881 95.212 44.6288C95.3102 44.6695 95.3941 44.7384 95.4531 44.8268C95.5122 44.9152 95.5437 45.0191 95.5437 45.1254C95.5435 45.2681 95.4868 45.4048 95.3859 45.5056C95.2849 45.6064 95.1481 45.663 95.0055 45.663ZM95.0055 44.9378C94.9682 44.9375 94.9316 44.9482 94.9004 44.9687C94.8692 44.9892 94.8448 45.0185 94.8303 45.0529C94.8158 45.0873 94.8119 45.1252 94.819 45.1618C94.8261 45.1985 94.844 45.2322 94.8703 45.2586C94.8966 45.2851 94.9302 45.3032 94.9667 45.3105C95.0033 45.3178 95.0413 45.3141 95.0758 45.2999C95.1102 45.2856 95.1397 45.2614 95.1604 45.2303C95.1811 45.1993 95.1921 45.1627 95.1919 45.1254C95.1918 45.0759 95.1721 45.0285 95.1372 44.9933C95.1023 44.9582 95.055 44.9383 95.0055 44.9378Z" fill="#426572"/>
<path d="M99.2037 42.7025H97.9309V41.16H98.2803V42.3531H99.2037V42.7025Z" fill="#426572"/>
<path d="M99.5828 43.1128C99.4651 43.1128 99.3501 43.0779 99.2522 43.0126C99.1544 42.9472 99.0781 42.8542 99.0331 42.7455C98.9881 42.6368 98.9763 42.5171 98.9992 42.4017C99.0222 42.2863 99.0789 42.1803 99.1621 42.097C99.2453 42.0138 99.3513 41.9572 99.4667 41.9342C99.5822 41.9112 99.7018 41.923 99.8105 41.9681C99.9193 42.0131 100.012 42.0894 100.078 42.1872C100.143 42.2851 100.178 42.4001 100.178 42.5178C100.178 42.6756 100.115 42.8268 100.003 42.9384C99.8919 43.0499 99.7406 43.1127 99.5828 43.1128ZM99.5828 42.2716C99.5343 42.2716 99.4868 42.286 99.4464 42.313C99.406 42.34 99.3745 42.3783 99.3559 42.4232C99.3373 42.4681 99.3324 42.5175 99.3419 42.5651C99.3514 42.6128 99.3748 42.6566 99.4091 42.6909C99.4435 42.7253 99.4873 42.7487 99.5349 42.7581C99.5826 42.7676 99.632 42.7627 99.6768 42.7442C99.7217 42.7256 99.7601 42.6941 99.7871 42.6537C99.8141 42.6133 99.8285 42.5658 99.8285 42.5172C99.8283 42.4521 99.8024 42.3897 99.7564 42.3437C99.7103 42.2977 99.6479 42.2717 99.5828 42.2716Z" fill="#426572"/>
<path d="M101.967 47.1251H101.618V45.9837H102.997V46.3331H101.967V47.1251Z" fill="#426572"/>
<path d="M101.801 48.0039C101.694 48.0042 101.588 47.9726 101.498 47.913C101.408 47.8534 101.338 47.7685 101.297 47.669C101.255 47.5696 101.244 47.4601 101.265 47.3543C101.286 47.2486 101.338 47.1514 101.414 47.075C101.49 46.9986 101.587 46.9465 101.692 46.9253C101.798 46.9041 101.907 46.9147 102.007 46.9558C102.107 46.9968 102.192 47.0666 102.252 47.1561C102.312 47.2456 102.344 47.3509 102.344 47.4587C102.344 47.6029 102.287 47.7412 102.185 47.8434C102.084 47.9456 101.945 48.0033 101.801 48.0039ZM101.801 47.2635C101.763 47.2636 101.725 47.2751 101.693 47.2966C101.661 47.3182 101.636 47.3487 101.621 47.3844C101.607 47.4201 101.603 47.4593 101.61 47.4971C101.618 47.535 101.637 47.5697 101.664 47.5969C101.691 47.6242 101.726 47.6427 101.764 47.6502C101.802 47.6577 101.841 47.6538 101.877 47.639C101.912 47.6242 101.943 47.5992 101.964 47.5671C101.986 47.535 101.997 47.4973 101.997 47.4587C101.997 47.4068 101.976 47.3572 101.94 47.3206C101.903 47.284 101.853 47.2635 101.801 47.2635Z" fill="#426572"/>
<path d="M98.7697 50.6561H98.4203V49.6642H97.6582V49.3148H98.7697V50.6561Z" fill="#426572"/>
<path d="M97.334 50.0318C97.2285 50.0318 97.1254 50.0005 97.0376 49.9418C96.9499 49.8832 96.8815 49.7999 96.8411 49.7024C96.8008 49.6049 96.7902 49.4977 96.8108 49.3942C96.8314 49.2907 96.8822 49.1956 96.9568 49.121C97.0314 49.0464 97.1265 48.9956 97.2299 48.975C97.3334 48.9544 97.4407 48.965 97.5382 49.0054C97.6357 49.0458 97.719 49.1141 97.7776 49.2019C97.8362 49.2896 97.8675 49.3928 97.8675 49.4983C97.8674 49.6397 97.8111 49.7753 97.7111 49.8753C97.6111 49.9753 97.4755 50.0316 97.334 50.0318ZM97.334 49.3142C97.2976 49.3142 97.262 49.325 97.2318 49.3452C97.2015 49.3654 97.1779 49.3942 97.164 49.4278C97.15 49.4615 97.1464 49.4985 97.1535 49.5342C97.1606 49.5699 97.1781 49.6027 97.2039 49.6284C97.2296 49.6542 97.2624 49.6717 97.2981 49.6788C97.3338 49.6859 97.3708 49.6823 97.4045 49.6683C97.4381 49.6544 97.4669 49.6308 97.4871 49.6005C97.5073 49.5703 97.5181 49.5347 97.5181 49.4983C97.5181 49.4494 97.4987 49.4026 97.4642 49.3681C97.4297 49.3336 97.3828 49.3142 97.334 49.3142Z" fill="#426572"/>
<path d="M99.9728 45.8935C99.8564 45.8143 99.7262 45.7578 99.5888 45.727C99.6898 45.669 99.7804 45.5945 99.8568 45.5065C99.9262 45.3948 99.9684 45.2683 99.9799 45.1372C99.9863 45.0487 100.002 44.677 99.712 44.463C99.488 44.2977 99.2312 44.232 98.8871 44.2103V43.4611H98.4245V44.2021H98.0728V43.4611H97.6108V44.2021H96.7021V44.6823H96.9695C97.0422 44.6823 97.1717 44.6905 97.2268 44.752C97.2819 44.8136 97.2919 44.8458 97.2919 44.966C97.2919 45.0862 97.2919 46.8332 97.2919 46.879C97.2937 46.904 97.2904 46.9292 97.2823 46.953C97.2741 46.9767 97.2612 46.9986 97.2444 47.0173C97.2057 47.0542 97.1665 47.0625 97.0738 47.0625H96.7971L96.7021 47.6176H97.6114V48.3563H98.0734V47.617H98.4251V48.3557H98.8853V47.6047C99.0026 47.5977 99.1163 47.5889 99.1785 47.5801C99.4314 47.5578 99.6749 47.4732 99.8872 47.3339C100.166 47.1393 100.228 46.835 100.235 46.5284C100.241 46.2218 100.13 46.0119 99.9728 45.8935ZM98.074 44.7245C98.074 44.7245 98.2211 44.7116 98.3671 44.7139C98.5228 44.7112 98.6779 44.7331 98.8267 44.779C99.0167 44.8376 99.1292 44.9801 99.1333 45.1483C99.1389 45.2201 99.1229 45.2918 99.0875 45.3545C99.0521 45.4171 98.9989 45.4678 98.9346 45.5001C98.7861 45.5738 98.6231 45.6139 98.4574 45.6173C98.2891 45.6238 98.0728 45.6173 98.0728 45.6173L98.074 44.7245ZM99.1087 46.9341C98.9436 47.0078 98.7663 47.0503 98.5858 47.0595C98.3806 47.0748 98.074 47.0683 98.074 47.0683V46.077C98.074 46.077 98.3671 46.0617 98.5969 46.077C98.7717 46.0857 98.9436 46.1254 99.1046 46.1942C99.1748 46.2272 99.2342 46.2793 99.276 46.3447C99.3178 46.41 99.3402 46.4859 99.3406 46.5634C99.341 46.641 99.3195 46.7171 99.2784 46.7829C99.2374 46.8487 99.1785 46.9015 99.1087 46.9352V46.9341Z" fill="#426572"/>
<path d="M101.531 43.4804C101.934 43.9915 102.209 44.5924 102.33 45.2321C102.35 45.3423 102.519 45.296 102.498 45.1858C102.369 44.5171 102.079 43.8897 101.654 43.3573C101.585 43.2688 101.462 43.393 101.53 43.481L101.531 43.4804Z" fill="#BC2727"/>
<path d="M100.727 42.6802C100.921 42.8264 101.1 42.9918 101.261 43.1738C101.339 43.2559 101.462 43.1322 101.385 43.0501C101.213 42.8579 101.022 42.6835 100.815 42.5295C100.723 42.4644 100.636 42.6163 100.727 42.6802H100.727Z" fill="#BC2727"/>
<path d="M98.3659 50.9486C97.3848 50.9487 96.4257 50.6579 95.6099 50.113C94.7942 49.568 94.1583 48.7933 93.7828 47.887C93.4073 46.9806 93.3089 45.9833 93.5003 45.021C93.6916 44.0588 94.164 43.1749 94.8576 42.4811C95.5513 41.7874 96.4352 41.3149 97.3974 41.1235C98.3596 40.932 99.357 41.0302 100.263 41.4056C101.17 41.781 101.944 42.4168 102.49 43.2325C103.035 44.0483 103.326 45.0073 103.326 45.9884C103.324 47.3034 102.801 48.5641 101.871 49.494C100.942 50.424 99.6809 50.9471 98.3659 50.9486ZM98.3659 41.4866C97.4754 41.4866 96.6049 41.7506 95.8645 42.2453C95.1241 42.7401 94.547 43.4433 94.2062 44.266C93.8654 45.0887 93.7763 45.9939 93.95 46.8673C94.1237 47.7407 94.5525 48.543 95.1822 49.1726C95.8119 49.8023 96.6141 50.2311 97.4875 50.4048C98.3609 50.5786 99.2662 50.4894 100.089 50.1486C100.912 49.8078 101.615 49.2308 102.109 48.4903C102.604 47.7499 102.868 46.8794 102.868 45.989C102.867 44.7951 102.392 43.6505 101.548 42.8063C100.704 41.962 99.5597 41.4872 98.3659 41.486V41.4866Z" fill="#426572"/>
<path d="M103.886 44.2899H88.0107C86.5592 44.2899 85.3826 45.4666 85.3826 46.9181V56.0695C85.3826 57.5209 86.5592 58.6976 88.0107 58.6976H103.886C105.337 58.6976 106.514 57.5209 106.514 56.0695V46.9181C106.514 45.4666 105.337 44.2899 103.886 44.2899Z" fill="#B0DFEA"/>
<path d="M106.533 56.0191V57.6202C106.533 57.9344 106.471 58.2455 106.351 58.5358C106.231 58.8261 106.055 59.0899 105.832 59.3121C105.61 59.5342 105.346 59.7105 105.056 59.8307C104.766 59.9509 104.455 60.0127 104.14 60.0126H87.7941C87.4798 60.0127 87.1686 59.9509 86.8783 59.8306C86.588 59.7104 86.3242 59.5341 86.102 59.3119C85.8798 59.0896 85.7036 58.8258 85.5834 58.5354C85.4632 58.245 85.4015 57.9338 85.4016 57.6196V56.0191C85.4015 56.3333 85.4634 56.6445 85.5836 56.9348C85.7038 57.2251 85.88 57.4888 86.1022 57.711C86.3244 57.9332 86.5881 58.1094 86.8784 58.2296C87.1687 58.3498 87.4799 58.4117 87.7941 58.4116H104.141C104.455 58.4116 104.766 58.3497 105.057 58.2295C105.347 58.1092 105.61 57.933 105.833 57.7108C106.055 57.4886 106.231 57.2249 106.351 56.9346C106.471 56.6444 106.533 56.3333 106.533 56.0191Z" fill="#95BCC9"/>
<path d="M103.905 60.4125H88.0297C87.2397 60.4115 86.4823 60.0973 85.9236 59.5386C85.365 58.98 85.0507 58.2226 85.0498 57.4326V48.2812C85.0507 47.4912 85.365 46.7338 85.9236 46.1751C86.4823 45.6165 87.2397 45.3022 88.0297 45.3013H103.905C104.695 45.3022 105.452 45.6165 106.011 46.1751C106.569 46.7338 106.884 47.4912 106.885 48.2812V57.4326C106.884 58.2226 106.569 58.98 106.011 59.5386C105.452 60.0973 104.695 60.4115 103.905 60.4125ZM88.0297 46.0048C87.4262 46.0054 86.8475 46.2455 86.4207 46.6722C85.994 47.099 85.7539 47.6777 85.7533 48.2812V57.4326C85.7539 58.0361 85.994 58.6148 86.4207 59.0415C86.8475 59.4683 87.4262 59.7083 88.0297 59.709H103.905C104.508 59.7083 105.087 59.4683 105.514 59.0415C105.941 58.6148 106.181 58.0361 106.181 57.4326V48.2812C106.181 47.6777 105.941 47.099 105.514 46.6722C105.087 46.2455 104.508 46.0054 103.905 46.0048H88.0297Z" fill="#426572"/>
<path d="M103.822 58.914H103.119V58.5036H103.822V58.914ZM102.423 58.914H101.727V58.5036H102.423V58.914ZM101.031 58.914H100.336V58.5036H101.031V58.914ZM99.6397 58.914H98.9438V58.5036H99.6397V58.914ZM98.248 58.914H97.5521V58.5036H98.248V58.914ZM96.8562 58.914H96.1609V58.5036H96.8568L96.8562 58.914ZM95.4644 58.914H94.7692V58.5036H95.465L95.4644 58.914ZM94.0727 58.914H93.3745V58.5036H94.0703L94.0727 58.914ZM92.6809 58.914H91.9856V58.5036H92.6815L92.6809 58.914ZM91.2892 58.914H90.5939V58.5036H91.2898L91.2892 58.914ZM89.8974 58.914H89.2021V58.5036H89.898L89.8974 58.914ZM88.5086 58.914H88.28C88.103 58.9142 87.9269 58.8881 87.7576 58.8366L87.8749 58.4438C88.0055 58.4832 88.1412 58.503 88.2776 58.5025H88.5086V58.914ZM104.585 58.7411L104.409 58.3706C104.592 58.2832 104.753 58.1569 104.883 58.0006L105.199 58.2615C105.031 58.4644 104.821 58.628 104.583 58.7411H104.585ZM87.0799 58.4515C86.8853 58.2748 86.7316 58.0577 86.6297 57.8154L87.0084 57.6565C87.087 57.8432 87.2054 58.0105 87.3554 58.1466L87.0799 58.4515ZM105.547 57.5656L105.149 57.4648C105.177 57.3536 105.191 57.2394 105.191 57.1248V56.8234H105.601V57.1248C105.602 57.2733 105.585 57.4214 105.549 57.5656H105.547ZM86.9011 57.0568H86.4907V56.3609H86.9011V57.0568ZM105.602 56.1276H105.192V55.4317H105.602V56.1276ZM86.9011 55.665H86.4907V54.9691H86.9011V55.665ZM105.602 54.7358H105.192V54.0399H105.602V54.7358ZM86.9011 54.2709H86.4907V53.578H86.9011V54.2709ZM105.602 53.3417H105.192V52.6482H105.602V53.3417ZM86.9011 52.8792H86.4907V52.1862H86.9011V52.8792ZM105.602 51.95H105.192V51.257H105.602V51.95ZM86.9011 51.4874H86.4907V50.7945H86.9011V51.4874ZM105.602 50.5582H105.192V49.8652H105.602V50.5582ZM86.9011 50.0956H86.4907V49.405H86.9011V50.0956ZM105.602 49.1664H105.192V48.4735H105.602V49.1664ZM86.9011 48.7039H86.4907V48.4084C86.4916 48.2582 86.5113 48.1087 86.5493 47.9635L86.9468 48.0655C86.9183 48.1775 86.9039 48.2928 86.904 48.4084L86.9011 48.7039ZM105.086 47.8708C105.007 47.6843 104.888 47.5172 104.738 47.3813L105.013 47.0765C105.208 47.2526 105.362 47.4693 105.465 47.7114L105.086 47.8708ZM87.2188 47.529L86.9029 47.2676C87.0706 47.0653 87.2805 46.902 87.5178 46.7892L87.6937 47.1603C87.5105 47.2472 87.3484 47.373 87.2188 47.529ZM104.217 47.087C104.087 47.0479 103.952 47.0282 103.817 47.0284H103.587V46.618H103.817C103.992 46.6178 104.167 46.6435 104.336 46.6942L104.217 47.087ZM102.891 47.0284H102.193V46.618H102.889L102.891 47.0284ZM101.499 47.0284H100.802V46.618H101.498L101.499 47.0284ZM100.108 47.0284H99.4128V46.618H100.109L100.108 47.0284ZM98.7158 47.0284H98.0181V46.618H98.714L98.7158 47.0284ZM97.324 47.0284H96.6264V46.618H97.3223L97.324 47.0284ZM95.9323 47.0284H95.2352V46.618H95.9311L95.9323 47.0284ZM94.5405 47.0284H93.8435V46.618H94.5393L94.5405 47.0284ZM93.1488 47.0284H92.4517V46.618H93.1476L93.1488 47.0284ZM91.757 47.0284H91.06V46.618H91.7558L91.757 47.0284ZM90.3652 47.0284H89.6682V46.618H90.3641L90.3652 47.0284ZM88.9735 47.0284H88.28L88.2764 46.618H88.9723L88.9735 47.0284Z" fill="#426572"/>
<path d="M106.169 55.6228L102.3 55.8796C102.152 55.8909 102.004 55.8884 101.856 55.872C101.277 55.8004 100.744 55.5196 100.357 55.0823C99.9706 54.645 99.7571 54.0814 99.7571 53.4976C99.7571 52.8633 100.009 52.255 100.457 51.8063C100.906 51.3577 101.514 51.1055 102.148 51.1052H105.475C106.109 51.1052 106.718 51.3572 107.167 51.8059C107.615 52.2546 107.867 52.8631 107.867 53.4976C107.867 54.8185 107.49 55.6228 106.169 55.6228Z" fill="#95BCC9"/>
<path d="M106.169 50.2516H102.842C101.521 50.2516 100.45 51.3226 100.45 52.6438C100.45 53.9649 101.521 55.036 102.842 55.036H106.169C107.49 55.036 108.561 53.9649 108.561 52.6438C108.561 51.3226 107.49 50.2516 106.169 50.2516Z" fill="#D9F4F9"/>
<path d="M106.436 55.6011H103.106C102.743 55.6064 102.382 55.5394 102.044 55.4039C101.706 55.2684 101.399 55.0671 101.14 54.8118C100.881 54.5564 100.675 54.2522 100.535 53.9166C100.394 53.5811 100.322 53.2209 100.322 52.8572C100.322 52.4934 100.394 52.1333 100.535 51.7977C100.675 51.4622 100.881 51.1579 101.14 50.9026C101.399 50.6473 101.706 50.446 102.044 50.3105C102.382 50.175 102.743 50.1079 103.106 50.1132H106.433C106.797 50.1079 107.158 50.175 107.496 50.3105C107.833 50.446 108.141 50.6473 108.4 50.9026C108.659 51.1579 108.864 51.4622 109.005 51.7977C109.145 52.1333 109.218 52.4934 109.218 52.8572C109.218 53.2209 109.145 53.5811 109.005 53.9166C108.864 54.2522 108.659 54.5564 108.4 54.8118C108.141 55.0671 107.833 55.2684 107.496 55.4039C107.158 55.5394 106.797 55.6064 106.433 55.6011H106.436ZM103.106 50.8167C102.835 50.8121 102.566 50.8615 102.315 50.962C102.063 51.0625 101.834 51.2121 101.641 51.402C101.448 51.5919 101.294 51.8184 101.19 52.0682C101.085 52.3181 101.031 52.5863 101.031 52.8572C101.031 53.1281 101.085 53.3963 101.19 53.6461C101.294 53.896 101.448 54.1224 101.641 54.3124C101.834 54.5023 102.063 54.6519 102.315 54.7523C102.566 54.8528 102.835 54.9022 103.106 54.8976H106.433C106.704 54.9022 106.973 54.8528 107.225 54.7523C107.476 54.6519 107.705 54.5023 107.899 54.3124C108.092 54.1224 108.245 53.896 108.35 53.6461C108.455 53.3963 108.509 53.1281 108.509 52.8572C108.509 52.5863 108.455 52.3181 108.35 52.0682C108.245 51.8184 108.092 51.5919 107.899 51.402C107.705 51.2121 107.476 51.0625 107.225 50.962C106.973 50.8615 106.704 50.8121 106.433 50.8167H103.106Z" fill="#426572"/>
<path d="M87.8715 48.0309C87.8259 48.0379 87.7837 48.0591 87.7508 48.0914C87.7179 48.1237 87.6959 48.1654 87.688 48.2109V48.2343V48.2783L87.6839 48.3651C87.6727 48.5931 87.6563 48.7989 87.6358 48.9712C87.5953 49.3165 87.5391 49.5299 87.4769 49.5299C87.4148 49.5299 87.3597 49.3165 87.318 48.9712C87.2975 48.7989 87.2811 48.5931 87.27 48.3651L87.2659 48.2783V48.2343C87.2659 48.2144 87.2659 48.1904 87.2659 48.1687C87.2727 48.0766 87.2997 47.9871 87.345 47.9066C87.3925 47.822 87.4586 47.7494 87.5384 47.6941C87.6181 47.6389 87.7093 47.6025 87.8052 47.5877C87.8299 47.5838 87.8547 47.5817 87.8797 47.5812H88.0339L88.2232 47.5848C88.3475 47.5877 88.4671 47.5924 88.5814 47.5977C88.8095 47.6088 89.0152 47.6252 89.1876 47.6457C89.5329 47.6862 89.7463 47.7425 89.7463 47.8046C89.7463 47.8667 89.5329 47.9218 89.1876 47.9635C89.0152 47.984 88.8095 48.0004 88.5814 48.0115C88.4671 48.0174 88.3469 48.0215 88.2232 48.0244L88.0339 48.028H87.8949C87.887 48.0282 87.8792 48.0292 87.8715 48.0309Z" fill="#BC2727"/>
<path d="M91.1416 48.028C91.4991 48.028 91.7888 47.9274 91.7888 47.8034C91.7888 47.6794 91.4991 47.5789 91.1416 47.5789C90.7842 47.5789 90.4944 47.6794 90.4944 47.8034C90.4944 47.9274 90.7842 48.028 91.1416 48.028Z" fill="#BC2727"/>
<path d="M90.7364 55.0723C90.6213 55.0706 90.507 55.0905 90.3993 55.131C90.4417 55.0451 90.4694 54.9528 90.4813 54.8578C90.4779 54.7496 90.449 54.6437 90.3969 54.5488C90.3606 54.4855 90.2017 54.2246 89.9062 54.2106C89.6776 54.2 89.4724 54.2721 89.2268 54.4152L88.8844 53.9028L88.5672 54.1168L88.9073 54.6227L88.6669 54.7833L88.3286 54.2768L88.0127 54.4878L88.3509 54.9944L87.7295 55.41L87.9487 55.7383L88.1311 55.6193C88.1809 55.5859 88.2729 55.5325 88.3392 55.5495C88.4054 55.5665 88.4265 55.5841 88.4811 55.6668L89.3552 56.9677C89.3679 56.9842 89.3772 57.003 89.3824 57.0232C89.3876 57.0433 89.3887 57.0643 89.3856 57.0849C89.3757 57.1277 89.3534 57.1512 89.2895 57.194L89.1007 57.3194L89.2895 57.7421L89.9109 57.3265L90.2486 57.8312L90.5646 57.6202L90.2269 57.1154L90.4673 56.9548L90.805 57.4595L91.1209 57.2485L90.778 56.7355C90.8565 56.6769 90.9287 56.6183 90.9691 56.5837C91.1317 56.4529 91.2594 56.2839 91.3408 56.0918C91.4422 55.8315 91.3461 55.5947 91.2101 55.3825C91.074 55.1702 90.8993 55.0817 90.7364 55.0723ZM88.9049 55.1415C88.9049 55.1415 88.9993 55.0653 89.099 55.0008C89.2052 54.9269 89.3225 54.8705 89.4466 54.8337C89.5133 54.809 89.5863 54.8066 89.6545 54.8269C89.7227 54.8472 89.7824 54.8891 89.8247 54.9463C89.8614 54.9928 89.8833 55.0491 89.8878 55.1081C89.8923 55.1671 89.8791 55.2261 89.85 55.2775C89.7819 55.3957 89.6887 55.4974 89.5768 55.5753C89.4648 55.6568 89.3141 55.7512 89.3141 55.7512L88.9049 55.1415ZM90.6215 56.1792C90.5422 56.3048 90.4405 56.4147 90.3213 56.5034C90.1882 56.6077 89.9754 56.7432 89.9754 56.7432L89.5222 56.0654C89.5222 56.0654 89.7163 55.9206 89.8793 55.8268C90.0027 55.7529 90.1383 55.7015 90.2797 55.675C90.3427 55.6652 90.4073 55.6735 90.4658 55.699C90.5243 55.7245 90.5744 55.766 90.6101 55.8189C90.6459 55.8718 90.6659 55.9337 90.6678 55.9975C90.6697 56.0613 90.6534 56.1243 90.6209 56.1792H90.6215Z" fill="#426572"/>
<path fill-rule="evenodd" clip-rule="evenodd" d="M126.911 175.416C126.911 175.464 126.871 175.503 126.823 175.503C126.775 175.503 126.736 175.464 126.736 175.416C126.736 175.367 126.775 175.328 126.823 175.328C126.871 175.328 126.911 175.367 126.911 175.416Z" fill="#49A026"/>
<path fill-rule="evenodd" clip-rule="evenodd" d="M126.822 175.356C126.812 175.357 126.806 175.367 126.797 175.371C126.789 175.377 126.777 175.379 126.769 175.385C126.77 175.412 126.779 175.439 126.796 175.46C126.809 175.475 126.823 175.488 126.837 175.502C126.879 175.495 126.911 175.459 126.911 175.416C126.911 175.415 126.911 175.415 126.911 175.414C126.91 175.413 126.909 175.412 126.908 175.411C126.906 175.409 126.904 175.408 126.903 175.406C126.901 175.405 126.899 175.402 126.897 175.401C126.896 175.399 126.894 175.398 126.892 175.396C126.89 175.394 126.889 175.392 126.887 175.39C126.885 175.388 126.883 175.387 126.882 175.385C126.877 175.381 126.869 175.38 126.863 175.377C126.852 175.372 126.842 175.365 126.832 175.357C126.83 175.357 126.827 175.356 126.824 175.356C126.824 175.356 126.823 175.356 126.822 175.356" fill="black" fill-opacity="0.235"/>
<path fill-rule="evenodd" clip-rule="evenodd" d="M126.824 175.315C126.768 175.315 126.723 175.361 126.723 175.417C126.723 175.473 126.768 175.519 126.824 175.519C126.881 175.519 126.926 175.473 126.926 175.417C126.926 175.361 126.881 175.315 126.824 175.315ZM126.828 175.333C126.876 175.333 126.915 175.372 126.915 175.42C126.915 175.469 126.876 175.508 126.828 175.508C126.78 175.508 126.741 175.469 126.741 175.42C126.741 175.372 126.78 175.333 126.828 175.333Z" fill="black" fill-opacity="0.067"/>
<path fill-rule="evenodd" clip-rule="evenodd" d="M126.825 175.316C126.769 175.316 126.724 175.361 126.724 175.417C126.724 175.472 126.769 175.517 126.825 175.517C126.88 175.517 126.925 175.472 126.925 175.417C126.925 175.361 126.88 175.316 126.825 175.316ZM126.827 175.332C126.875 175.332 126.914 175.371 126.914 175.419C126.914 175.467 126.875 175.507 126.827 175.507C126.779 175.507 126.739 175.467 126.739 175.419C126.739 175.371 126.779 175.332 126.827 175.332Z" fill="black" fill-opacity="0.129"/>
<path fill-rule="evenodd" clip-rule="evenodd" d="M126.824 175.318C126.77 175.318 126.726 175.362 126.726 175.417C126.726 175.471 126.77 175.516 126.824 175.516C126.879 175.516 126.923 175.471 126.923 175.417C126.923 175.362 126.879 175.318 126.824 175.318ZM126.826 175.331C126.874 175.331 126.913 175.37 126.913 175.418C126.913 175.466 126.874 175.505 126.826 175.505C126.777 175.505 126.738 175.466 126.738 175.418C126.738 175.37 126.777 175.331 126.826 175.331Z" fill="black" fill-opacity="0.129"/>
<path fill-rule="evenodd" clip-rule="evenodd" d="M126.823 175.318C126.769 175.318 126.725 175.362 126.725 175.416C126.725 175.47 126.769 175.514 126.823 175.514C126.877 175.514 126.921 175.47 126.921 175.416C126.921 175.362 126.877 175.318 126.823 175.318ZM126.823 175.328C126.871 175.328 126.911 175.367 126.911 175.416C126.911 175.464 126.871 175.503 126.823 175.503C126.775 175.503 126.736 175.464 126.736 175.416C126.736 175.367 126.775 175.328 126.823 175.328Z" fill="white" stroke="black" stroke-opacity="0.31" stroke-width="0.00195732"/>
<path fill-rule="evenodd" clip-rule="evenodd" d="M126.824 175.356C126.82 175.356 126.816 175.357 126.815 175.358C126.803 175.37 126.778 175.381 126.769 175.383C126.769 175.421 126.794 175.477 126.824 175.477C126.855 175.477 126.88 175.421 126.88 175.383C126.871 175.381 126.846 175.37 126.834 175.358C126.832 175.357 126.828 175.356 126.824 175.356M126.853 175.385C126.854 175.385 126.856 175.385 126.856 175.385C126.857 175.386 126.858 175.387 126.858 175.388C126.859 175.389 126.859 175.39 126.859 175.391C126.859 175.392 126.858 175.393 126.857 175.394C126.839 175.41 126.828 175.427 126.819 175.446C126.819 175.447 126.818 175.448 126.817 175.448C126.816 175.449 126.816 175.449 126.815 175.449C126.814 175.449 126.813 175.449 126.812 175.449C126.811 175.448 126.81 175.448 126.81 175.447L126.791 175.426C126.79 175.425 126.79 175.424 126.79 175.422C126.79 175.421 126.79 175.42 126.791 175.419C126.792 175.418 126.793 175.417 126.795 175.417C126.796 175.416 126.797 175.417 126.798 175.417L126.81 175.424C126.822 175.407 126.836 175.394 126.85 175.386C126.85 175.386 126.85 175.386 126.85 175.386C126.85 175.386 126.85 175.385 126.851 175.385C126.851 175.385 126.852 175.385 126.852 175.385C126.853 175.385 126.853 175.385 126.853 175.385" fill="white"/>
<circle cx="238" cy="89.9837" r="13" fill="#FFD9C0"/>
<circle cx="175" cy="242.984" r="22" fill="#C3FFEC"/>
<path d="M174.94 255.864C182.087 255.864 187.88 250.07 187.88 242.924C187.88 235.777 182.087 229.984 174.94 229.984C167.793 229.984 162 235.777 162 242.924C162 250.07 167.793 255.864 174.94 255.864Z" fill="#26A17B"/>
<path fill-rule="evenodd" clip-rule="evenodd" d="M176.495 244.042V244.041C176.406 244.047 175.947 244.075 174.924 244.075C174.107 244.075 173.532 244.05 173.33 244.041V244.043C170.185 243.905 167.838 243.357 167.838 242.702C167.838 242.048 170.185 241.5 173.33 241.36V243.498C173.535 243.513 174.124 243.547 174.938 243.547C175.914 243.547 176.403 243.507 176.495 243.499V241.361C179.632 241.501 181.974 242.049 181.974 242.702C181.974 243.357 179.632 243.903 176.495 244.042ZM176.495 241.139V239.225H180.873V236.307H168.951V239.225H173.33V241.138C169.771 241.301 167.095 242.007 167.095 242.851C167.095 243.695 169.771 244.4 173.33 244.564V250.696H176.495V244.562C180.047 244.399 182.717 243.695 182.717 242.851C182.717 242.007 180.047 241.303 176.495 241.139Z" fill="white"/>
<circle cx="35" cy="164.984" r="18" fill="#D5DDFC"/>
<g filter="url(#filter0_d_37_224)">
<path d="M34.4399 153.864C40.272 153.864 44.9999 158.592 44.9999 164.424C44.9999 170.256 40.272 174.984 34.4399 174.984C28.6078 174.984 23.8799 170.256 23.8799 164.424C23.8799 158.592 28.6078 153.864 34.4399 153.864Z" fill="black"/>
</g>
<path d="M34.4399 153.864C40.272 153.864 44.9999 158.592 44.9999 164.424C44.9999 170.256 40.272 174.984 34.4399 174.984C28.6078 174.984 23.8799 170.256 23.8799 164.424C23.8799 158.592 28.6078 153.864 34.4399 153.864Z" fill="#627EEA"/>
<path d="M34.4399 153.864C40.272 153.864 44.9999 158.592 44.9999 164.424C44.9999 170.256 40.272 174.984 34.4399 174.984C28.6078 174.984 23.8799 170.256 23.8799 164.424C23.8799 158.592 28.6078 153.864 34.4399 153.864Z" fill="url(#paint0_linear_37_224)"/>
<path d="M34.4399 154.216C40.0777 154.216 44.6479 158.786 44.6479 164.424C44.6479 170.061 40.0777 174.632 34.4399 174.632C28.8022 174.632 24.2319 170.061 24.2319 164.424C24.2319 158.786 28.8022 154.216 34.4399 154.216Z" stroke="black" stroke-opacity="0.097" stroke-width="2.104"/>
<g filter="url(#filter1_d_37_224)">
<path d="M34.7906 160.222L40.072 163.286L34.7906 155.979L29.512 163.287L34.7906 160.224V160.222ZM34.7906 172.872L40.0684 164.269L34.7906 161.204L29.512 164.269L34.7906 172.872Z" fill="black"/>
</g>
<path d="M34.7905 172.872V166.627L40.0684 164.269L34.7905 172.872Z" fill="white" fill-opacity="0.602"/>
<path d="M34.7906 172.872L29.512 164.269L34.7906 166.627V172.872Z" fill="white"/>
<path d="M34.7905 160.222V155.979L40.0719 163.286L34.7905 160.222Z" fill="white" fill-opacity="0.602"/>
<path d="M34.7906 155.979V160.223L29.512 163.286L34.7906 155.979Z" fill="white"/>
<path d="M34.7905 161.204L40.0684 164.269L34.7905 166.626V161.204Z" fill="white" fill-opacity="0.2"/>
<path d="M29.512 164.269L34.7906 161.204V166.626L29.512 164.269Z" fill="white" fill-opacity="0.602"/>
<circle cx="144.5" cy="141.484" r="31.5" fill="#F4E2FF"/>
<path d="M144.104 141.674L135.052 146.904L126 141.674V131.214L135.052 125.984L144.104 131.214V134.432" stroke="#B81DEE" stroke-width="2.82519" stroke-miterlimit="10" stroke-linecap="round" stroke-linejoin="round"/>
<path d="M144.104 141.674L153.156 136.444L162.208 141.674V152.134L153.156 157.364L144.104 152.134V148.714" stroke="#B81DEE" stroke-width="2.82519" stroke-miterlimit="10" stroke-linecap="round" stroke-linejoin="round"/>
<path d="M238.057 98.0986C242.508 98.0986 246.115 94.4912 246.115 90.0412C246.115 85.5911 242.508 81.9837 238.057 81.9837C233.607 81.9837 230 85.5911 230 90.0412C230 94.4912 233.607 98.0986 238.057 98.0986Z" fill="#E0995E"/>
<path opacity="0.2" d="M241.834 86.516H240.827C240.777 86.516 240.701 86.5412 240.651 86.5664L237.176 89.6383C237 89.5879 236.723 89.5375 236.547 89.5375C235.162 89.5375 234.029 90.6706 234.029 92.0555C234.029 93.4404 235.162 94.5735 236.547 94.5735C237.932 94.5735 239.065 93.4404 239.065 92.0555C239.065 91.6526 238.989 91.3757 238.888 91.149L239.745 90.8469C239.845 90.8217 239.921 90.721 239.921 90.5951L239.896 89.6383L240.852 89.5627C240.978 89.5627 241.079 89.4368 241.079 89.3109L241.104 88.1527L241.86 87.9764C241.986 87.9512 242.061 87.8505 242.061 87.7246V86.7174C242.086 86.6167 241.986 86.516 241.834 86.516ZM235.791 92.0555C236.094 92.0555 236.345 92.2318 236.471 92.4836C236.522 92.5843 236.547 92.685 236.547 92.8109C236.547 93.239 236.219 93.5663 235.791 93.5663C235.363 93.5663 235.036 93.239 235.036 92.8109C235.036 92.3828 235.363 92.0555 235.791 92.0555Z" fill="#231F20"/>
<path d="M241.834 86.0124H240.827C240.777 86.0124 240.701 86.0376 240.651 86.0628L237.176 89.1347C237 89.0843 236.723 89.034 236.547 89.034C235.162 89.034 234.029 90.1671 234.029 91.5519C234.029 92.9368 235.162 94.0699 236.547 94.0699C237.932 94.0699 239.065 92.9368 239.065 91.5519C239.065 91.1491 238.989 90.8721 238.888 90.6455L239.745 90.3433C239.845 90.3181 239.921 90.2174 239.921 90.0915L239.896 89.1347L240.852 89.0592C240.978 89.0592 241.079 88.9333 241.079 88.8074L241.104 87.6491L241.86 87.4728C241.986 87.4477 242.061 87.3469 242.061 87.221V86.2139C242.086 86.1131 241.986 86.0124 241.834 86.0124ZM235.791 91.5519C236.094 91.5519 236.345 91.7282 236.471 91.98C236.522 92.0807 236.547 92.1814 236.547 92.3073C236.547 92.7354 236.219 93.0627 235.791 93.0627C235.363 93.0627 235.036 92.7354 235.036 92.3073C235.036 91.8793 235.363 91.5519 235.791 91.5519Z" fill="white"/>
<defs>
<filter id="filter0_d_37_224" x="21.7759" y="152.812" width="25.3281" height="25.328" filterUnits="userSpaceOnUse" color-interpolation-filters="sRGB">
<feFlood flood-opacity="0" result="BackgroundImageFix"/>
<feColorMatrix in="SourceAlpha" type="matrix" values="0 0 0 0 0 0 0 0 0 0 0 0 0 0 0 0 0 0 127 0" result="hardAlpha"/>
<feOffset dy="1.052"/>
<feGaussianBlur stdDeviation="1.052"/>
<feComposite in2="hardAlpha" operator="out"/>
<feColorMatrix type="matrix" values="0 0 0 0 0 0 0 0 0 0 0 0 0 0 0 0 0 0 0.199474 0"/>
<feBlend mode="normal" in2="BackgroundImageFix" result="effect1_dropShadow_37_224"/>
<feBlend mode="normal" in="SourceGraphic" in2="effect1_dropShadow_37_224" result="shape"/>
</filter>
<filter id="filter1_d_37_224" x="27.408" y="154.927" width="14.7681" height="21.1005" filterUnits="userSpaceOnUse" color-interpolation-filters="sRGB">
<feFlood flood-opacity="0" result="BackgroundImageFix"/>
<feColorMatrix in="SourceAlpha" type="matrix" values="0 0 0 0 0 0 0 0 0 0 0 0 0 0 0 0 0 0 127 0" result="hardAlpha"/>
<feOffset dy="1.052"/>
<feGaussianBlur stdDeviation="1.052"/>
<feComposite in2="hardAlpha" operator="out"/>
<feColorMatrix type="matrix" values="0 0 0 0 0 0 0 0 0 0 0 0 0 0 0 0 0 0 0.204257 0"/>
<feBlend mode="normal" in2="BackgroundImageFix" result="effect1_dropShadow_37_224"/>
<feBlend mode="normal" in="SourceGraphic" in2="effect1_dropShadow_37_224" result="shape"/>
</filter>
<linearGradient id="paint0_linear_37_224" x1="1079.88" y1="174.984" x2="1079.88" y2="-1937.02" gradientUnits="userSpaceOnUse">
<stop stop-color="white" stop-opacity="0.5"/>
<stop offset="1" stop-opacity="0.5"/>
</linearGradient>
</defs>
</svg>
