<svg width="50" height="15" viewBox="0 0 50 15" fill="none" xmlns="http://www.w3.org/2000/svg">
<g clip-path="url(#clip0_159_553)">
<path d="M49.8195 4.17746C49.3702 3.00873 48.1459 2.16947 46.7078 2.16947H46.6777C45.7428 2.16947 44.9003 2.52349 44.3006 3.09181C43.6998 2.52349 42.8573 2.16947 41.9235 2.16947H41.8934C41.0716 2.16947 40.3204 2.44325 39.7435 2.89639V2.66604C39.7238 2.43664 39.5163 2.25633 39.26 2.25633H37.0541C36.7843 2.25633 36.5664 2.45458 36.5664 2.70097V13.6C36.5664 13.8464 36.7843 14.0446 37.0541 14.0446H39.26C39.5059 14.0446 39.7082 13.8775 39.7404 13.6614L39.7393 5.83709C39.7393 5.80972 39.7404 5.78423 39.7435 5.75874C39.7788 5.40944 40.06 5.12245 40.504 5.08658H40.586H40.8174H40.9108C41.0965 5.10168 41.2532 5.16116 41.3767 5.25084C41.5686 5.38962 41.6755 5.60297 41.6755 5.83709L41.6838 13.6226C41.6838 13.869 41.9027 14.0682 42.1714 14.0682H44.3773C44.6378 14.0682 44.8495 13.8794 44.8619 13.6444L44.8609 5.82671C44.8598 5.56993 44.9906 5.33769 45.2199 5.19986C45.333 5.13378 45.4689 5.08941 45.6256 5.07619H45.7075H45.9389H46.0323C46.5096 5.11395 46.798 5.44343 46.797 5.82671L46.8053 13.6019C46.8053 13.8483 47.0242 14.0465 47.293 14.0465H49.4989C49.7676 14.0465 49.9865 13.8483 49.9865 13.6019V5.23951C49.9865 4.66931 49.916 4.42669 49.8195 4.17746Z" fill="#54C1F0"/>
<path d="M34.8871 2.28465H33.6254V0.424881C33.6254 0.422993 33.6254 0.421105 33.6254 0.419217C33.6254 0.195478 33.4262 0.014221 33.1802 0.014221C33.1512 0.014221 33.1232 0.017997 33.0962 0.0227172C31.6975 0.372014 31.9777 2.13455 29.4242 2.28465H29.3671H29.1762C29.1388 2.28465 29.1036 2.28937 29.0693 2.29598C28.8514 2.34035 28.6875 2.51689 28.6875 2.72836V4.7354C28.6875 4.97991 28.9064 5.1791 29.1762 5.1791H30.5074L30.5053 13.6897C30.5053 13.9323 30.7212 14.1287 30.9878 14.1287H33.1688C33.4345 14.1287 33.6503 13.9323 33.6503 13.6897L33.6513 5.1791H34.8871C35.1558 5.1791 35.3747 4.97991 35.3747 4.7354V2.72836C35.3747 2.48385 35.1558 2.28465 34.8871 2.28465Z" fill="#54C1F0"/>
<path d="M26.9494 2.28477H24.7435C24.4747 2.28477 24.2568 2.48396 24.2568 2.72847V6.8785C24.2517 7.13528 24.0234 7.34108 23.7401 7.34108H22.8167C22.5303 7.34108 22.2989 7.1315 22.2989 6.87095L22.2906 2.72847C22.2906 2.48396 22.0717 2.28477 21.8029 2.28477H19.597C19.3273 2.28477 19.1094 2.48396 19.1094 2.72847V7.27689C19.1094 9.00449 20.4634 10.2365 22.3632 10.2365C22.3632 10.2365 23.7889 10.2365 23.8325 10.244C24.0898 10.2705 24.29 10.4668 24.29 10.7085C24.29 10.9473 24.0939 11.1428 23.8397 11.172C23.8273 11.1739 23.8159 11.1767 23.8024 11.1786L20.5765 11.189C20.3067 11.189 20.0889 11.3882 20.0889 11.6327V13.6388C20.0889 13.8843 20.3067 14.0825 20.5765 14.0825H24.1832C26.084 14.0825 27.437 12.8515 27.437 11.1229V2.72847C27.437 2.48396 27.2191 2.28477 26.9494 2.28477Z" fill="#233266"/>
<path d="M5.59815 5.96223V6.89872V7.20082C5.59815 7.46043 5.36676 7.6719 5.08143 7.6719L3.68173 7.67284V5.19094H5.08143C5.36676 5.19094 5.59815 5.40052 5.59815 5.66108V5.96223ZM5.79217 2.28423H0.970514C0.70593 2.28423 0.492188 2.47964 0.492188 2.71943V4.68588C0.492188 4.68966 0.493225 4.69343 0.493225 4.69721C0.493225 4.70665 0.492188 4.71609 0.492188 4.72459V11.0318V13.6251C0.492188 13.8667 0.691404 14.064 0.938349 14.0697H0.979853H3.18576C3.45449 14.0697 3.67342 13.8715 3.67342 13.626L3.68173 10.5758H5.79217C7.55815 10.5758 8.78872 9.46087 8.78872 7.84749V5.0163C8.78872 3.40292 7.55815 2.28423 5.79217 2.28423Z" fill="#233266"/>
<path d="M14.7503 10.6741V10.9875C14.7503 11.013 14.7462 11.0375 14.742 11.0611C14.7368 11.0838 14.7296 11.1055 14.7213 11.1263C14.6528 11.3019 14.4598 11.4293 14.2305 11.4293H13.3122C13.0258 11.4293 12.7924 11.2311 12.7924 10.9875V10.609C12.7924 10.6042 12.7913 10.5995 12.7913 10.5948L12.7924 9.58749V9.5856V9.47421V9.27218L12.7934 9.26935C12.7945 9.02673 13.0258 8.83037 13.3122 8.83037H14.2305C14.5179 8.83037 14.7503 9.02767 14.7503 9.27218V10.6741ZM14.3996 2.29568H11.3387C11.0679 2.29568 10.849 2.4826 10.849 2.712V3.49273C10.849 3.49745 10.85 3.50311 10.85 3.50783C10.85 3.5135 10.849 3.51916 10.849 3.52483V4.59443C10.849 4.83705 11.0814 5.0353 11.3678 5.0353H14.2824C14.5127 5.06834 14.6953 5.22128 14.7213 5.46012V5.71879C14.6953 5.9463 14.5148 6.11246 14.2948 6.13134H12.8515C10.932 6.13134 9.56445 7.29157 9.56445 8.921V11.1952V11.2547C9.56445 12.8747 10.74 14.0273 12.6461 14.0273H16.646C17.364 14.0273 17.9461 13.5327 17.9461 12.9238V5.30813C17.9461 3.46157 16.9002 2.29568 14.3996 2.29568Z" fill="#233266"/>
</g>
<defs>
<clipPath id="clip0_159_553">
<rect width="49.5237" height="14.1429" fill="white" transform="translate(0.474609)"/>
</clipPath>
</defs>
</svg>
