<svg width="51" height="15" viewBox="0 0 51 15" fill="none" xmlns="http://www.w3.org/2000/svg">
<g clip-path="url(#clip0_1_1802)">
<path d="M50.8183 4.17734C50.3621 3.00861 49.119 2.16935 47.6587 2.16935H47.6282C46.6789 2.16935 45.8234 2.52337 45.2145 3.09169C44.6045 2.52337 43.749 2.16935 42.8008 2.16935H42.7703C41.9358 2.16935 41.1731 2.44312 40.5873 2.89627V2.66592C40.5673 2.43652 40.3566 2.2562 40.0963 2.2562H37.8565C37.5826 2.2562 37.3613 2.45445 37.3613 2.70085V13.5999C37.3613 13.8463 37.5826 14.0445 37.8565 14.0445H40.0963C40.346 14.0445 40.5515 13.8774 40.5841 13.6612L40.5831 5.83697C40.5831 5.8096 40.5841 5.78411 40.5873 5.75862C40.6231 5.40932 40.9086 5.12233 41.3596 5.08646H41.4428H41.6777H41.7725C41.9611 5.10156 42.1202 5.16104 42.2456 5.25072C42.4405 5.38949 42.549 5.60285 42.549 5.83697L42.5574 13.6225C42.5574 13.8689 42.7797 14.0681 43.0526 14.0681H45.2925C45.5569 14.0681 45.7718 13.8793 45.7845 13.6442L45.7834 5.82659C45.7824 5.56981 45.9151 5.33757 46.1479 5.19974C46.2628 5.13366 46.4008 5.08929 46.5599 5.07607H46.6431H46.878H46.9729C47.4575 5.11383 47.7504 5.44331 47.7493 5.82659L47.7578 13.6018C47.7578 13.8482 47.9801 14.0464 48.2529 14.0464H50.4928C50.7656 14.0464 50.9879 13.8482 50.9879 13.6018V5.23939C50.9879 4.66919 50.9163 4.42657 50.8183 4.17734Z" fill="#54C1F0"/>
<path d="M35.6548 2.28465H34.3737V0.424881C34.3737 0.422993 34.3737 0.421105 34.3737 0.419217C34.3737 0.195477 34.1714 0.0142212 33.9217 0.0142212C33.8922 0.0142212 33.8638 0.0179968 33.8364 0.0227175C32.4162 0.372014 32.7007 2.13455 30.1079 2.28465H30.0499H29.8561C29.8182 2.28465 29.7823 2.28937 29.7476 2.29598C29.5263 2.34035 29.3599 2.51689 29.3599 2.72836V4.7354C29.3599 4.97991 29.5822 5.1791 29.8561 5.1791H31.2078L31.2057 13.6897C31.2057 13.9323 31.4248 14.1287 31.6956 14.1287H33.9101C34.1799 14.1287 34.399 13.9323 34.399 13.6897L34.4 5.1791H35.6548C35.9277 5.1791 36.15 4.97991 36.15 4.7354V2.72836C36.15 2.48385 35.9277 2.28465 35.6548 2.28465Z" fill="#54C1F0"/>
<path d="M27.5964 2.28465H25.3565C25.0837 2.28465 24.8624 2.48384 24.8624 2.72835V6.87838C24.8571 7.13516 24.6254 7.34096 24.3377 7.34096H23.4001C23.1093 7.34096 22.8744 7.13138 22.8744 6.87083L22.8659 2.72835C22.8659 2.48384 22.6436 2.28465 22.3708 2.28465H20.1309C19.857 2.28465 19.6357 2.48384 19.6357 2.72835V7.27677C19.6357 9.00437 21.0106 10.2364 22.9397 10.2364C22.9397 10.2364 24.3873 10.2364 24.4315 10.2439C24.6928 10.2703 24.8961 10.4667 24.8961 10.7084C24.8961 10.9472 24.697 11.1426 24.4389 11.1719C24.4262 11.1738 24.4146 11.1766 24.401 11.1785L21.1255 11.1889C20.8515 11.1889 20.6303 11.3881 20.6303 11.6326V13.6387C20.6303 13.8841 20.8515 14.0824 21.1255 14.0824H24.7876C26.7177 14.0824 28.0915 12.8514 28.0915 11.1228V2.72835C28.0915 2.48384 27.8703 2.28465 27.5964 2.28465Z" fill="#233266"/>
<path d="M5.91597 5.96217V6.89866V7.20076C5.91597 7.46037 5.68103 7.67184 5.3913 7.67184L3.97006 7.67278V5.19088H5.3913C5.68103 5.19088 5.91597 5.40046 5.91597 5.66102V5.96217ZM6.11298 2.28416H1.21713C0.948477 2.28416 0.731445 2.47958 0.731445 2.71937V4.68582C0.731445 4.68959 0.732499 4.69337 0.732499 4.69715C0.732499 4.70659 0.731445 4.71603 0.731445 4.72452V11.0317V13.625C0.731445 13.8667 0.933727 14.064 1.18447 14.0696H1.22661H3.46646C3.73933 14.0696 3.96163 13.8714 3.96163 13.6259L3.97006 10.5757H6.11298C7.90612 10.5757 9.15563 9.46081 9.15563 7.84743V5.01624C9.15563 3.40286 7.90612 2.28416 6.11298 2.28416Z" fill="#233266"/>
<path d="M15.2095 10.6741V10.9875C15.2095 11.013 15.2053 11.0375 15.2011 11.0611C15.1958 11.0838 15.1884 11.1055 15.18 11.1263C15.1105 11.3019 14.9145 11.4293 14.6817 11.4293H13.7493C13.4585 11.4293 13.2214 11.2311 13.2214 10.9875V10.609C13.2214 10.6042 13.2204 10.5995 13.2204 10.5948L13.2214 9.58749V9.5856V9.47421V9.27218L13.2225 9.26935C13.2236 9.02673 13.4585 8.83037 13.7493 8.83037H14.6817C14.9735 8.83037 15.2095 9.02767 15.2095 9.27218V10.6741ZM14.8534 2.29568H11.7454C11.4704 2.29568 11.2481 2.4826 11.2481 2.712V3.49273C11.2481 3.49745 11.2492 3.50311 11.2492 3.50783C11.2492 3.5135 11.2481 3.51916 11.2481 3.52483V4.59443C11.2481 4.83705 11.4841 5.0353 11.7749 5.0353H14.7343C14.9682 5.06834 15.1537 5.22128 15.18 5.46012V5.71879C15.1537 5.9463 14.9703 6.11246 14.747 6.13134H13.2815C11.3324 6.13134 9.94385 7.29157 9.94385 8.921V11.1952V11.2547C9.94385 12.8747 11.1375 14.0273 13.0729 14.0273H17.1343C17.8634 14.0273 18.4544 13.5327 18.4544 12.9238V5.30813C18.4544 3.46157 17.3924 2.29568 14.8534 2.29568Z" fill="#233266"/>
</g>
<defs>
<clipPath id="clip0_1_1802">
<rect width="50.2857" height="14.1429" fill="white" transform="translate(0.714355)"/>
</clipPath>
</defs>
</svg>
