<svg width="30" height="30" viewBox="0 0 30 30" fill="none" xmlns="http://www.w3.org/2000/svg">
<circle cx="15" cy="15" r="15" fill="black" fill-opacity="0.2"/>
<path d="M15.4297 14V16.86Z" fill="black" fill-opacity="0.2"/>
<path d="M15.4297 14V16.86" stroke="white" stroke-linecap="round" stroke-linejoin="round"/>
<path d="M14 16.1451L16.86 14.7151Z" fill="black" fill-opacity="0.2"/>
<path d="M14 16.1451L16.86 14.7151" stroke="white" stroke-linecap="round" stroke-linejoin="round"/>
<path d="M14 14.7151L16.86 16.1451Z" fill="black" fill-opacity="0.2"/>
<path d="M14 14.7151L16.86 16.1451" stroke="white" stroke-linecap="round" stroke-linejoin="round"/>
<path d="M9.42969 14V16.86Z" fill="black" fill-opacity="0.2"/>
<path d="M9.42969 14V16.86" stroke="white" stroke-linecap="round" stroke-linejoin="round"/>
<path d="M8 16.1451L10.86 14.7151Z" fill="black" fill-opacity="0.2"/>
<path d="M8 16.1451L10.86 14.7151" stroke="white" stroke-linecap="round" stroke-linejoin="round"/>
<path d="M8 14.7151L10.86 16.1451Z" fill="black" fill-opacity="0.2"/>
<path d="M8 14.7151L10.86 16.1451" stroke="white" stroke-linecap="round" stroke-linejoin="round"/>
<path d="M21.4297 14V16.86Z" fill="black" fill-opacity="0.2"/>
<path d="M21.4297 14V16.86" stroke="white" stroke-linecap="round" stroke-linejoin="round"/>
<path d="M20 16.1451L22.86 14.7151Z" fill="black" fill-opacity="0.2"/>
<path d="M20 16.1451L22.86 14.7151" stroke="white" stroke-linecap="round" stroke-linejoin="round"/>
<path d="M20 14.7151L22.86 16.1451Z" fill="black" fill-opacity="0.2"/>
<path d="M20 14.7151L22.86 16.1451" stroke="white" stroke-linecap="round" stroke-linejoin="round"/>
</svg>
