<svg width="30" height="30" viewBox="0 0 30 30" fill="none" xmlns="http://www.w3.org/2000/svg">
<path fill-rule="evenodd" clip-rule="evenodd" d="M15 0C16.9698 0 18.9204 0.387986 20.7403 1.14181C22.5601 1.89563 24.2137 3.00052 25.6066 4.3934C26.9995 5.78628 28.1044 7.43986 28.8582 9.25975C29.612 11.0796 30 13.0302 30 15C30 23.2836 23.2836 30 15 30C6.71638 30 0 23.2836 0 15C0 6.71638 6.71638 0 15 0ZM14.9666 24.523C15.5474 24.523 16.1045 24.2923 16.5152 23.8815C16.926 23.4708 17.1567 22.9137 17.1567 22.3329C17.1567 21.752 16.926 21.1949 16.5152 20.7842C16.1045 20.3735 15.5474 20.1427 14.9666 20.1427C14.3857 20.1427 13.8286 20.3735 13.4179 20.7842C13.0072 21.1949 12.7764 21.752 12.7764 22.3329C12.7764 22.9137 13.0072 23.4708 13.4179 23.8815C13.8286 24.2923 14.3857 24.523 14.9666 24.523ZM15.4371 18.0059C16.4091 13.4315 17.9339 11.7408 17.9339 9.27231C17.9339 7.58164 16.8295 6.00026 14.9666 6.00026C13.1036 6.00026 12.0005 7.58164 12.0005 9.27231C12.0005 11.7408 13.497 13.4315 14.4947 18.0059H15.4371Z" fill="black" fill-opacity="0.2"/>
</svg>
