<svg width="48" height="47" viewBox="0 0 48 47" fill="none" xmlns="http://www.w3.org/2000/svg">
<path d="M4.2921 37.792C4.67477 37.792 5.01077 37.7454 5.3001 37.652C5.5941 37.5587 5.8391 37.428 6.0351 37.26C6.2311 37.0874 6.3781 36.8844 6.4761 36.651C6.5741 36.413 6.6231 36.1517 6.6231 35.867C6.6231 35.2884 6.43177 34.852 6.0491 34.558C5.6711 34.264 5.10177 34.117 4.3411 34.117H2.9341V37.792H4.2921ZM8.9821 43H7.6521C7.3861 43 7.19244 42.895 7.0711 42.685L4.5861 39.199C4.50677 39.0824 4.42044 39.0007 4.3271 38.954C4.23377 38.9027 4.09377 38.877 3.9071 38.877H2.9341V43H1.4431V32.948H4.3411C4.98977 32.948 5.54744 33.0157 6.0141 33.151C6.48544 33.2817 6.87277 33.4707 7.1761 33.718C7.4841 33.9607 7.71044 34.2547 7.8551 34.6C8.00444 34.9454 8.0791 35.3327 8.0791 35.762C8.0791 36.112 8.02543 36.441 7.9181 36.749C7.81077 37.057 7.6521 37.3347 7.4421 37.582C7.23677 37.8247 6.98477 38.0347 6.6861 38.212C6.38744 38.3894 6.0491 38.5247 5.6711 38.618C5.85777 38.73 6.01877 38.8864 6.1541 39.087L8.9821 43ZM14.2413 38.653C14.2413 38.3824 14.2016 38.1327 14.1223 37.904C14.0476 37.6754 13.9356 37.477 13.7863 37.309C13.637 37.141 13.455 37.0104 13.2403 36.917C13.0256 36.8237 12.7783 36.777 12.4983 36.777C11.9243 36.777 11.4716 36.9427 11.1403 37.274C10.8136 37.6054 10.606 38.065 10.5173 38.653H14.2413ZM15.3683 41.985C15.2003 42.181 15.0066 42.3514 14.7873 42.496C14.568 42.636 14.3346 42.7504 14.0873 42.839C13.84 42.9277 13.5833 42.993 13.3173 43.035C13.056 43.077 12.797 43.098 12.5403 43.098C12.0503 43.098 11.5953 43.0164 11.1753 42.853C10.76 42.685 10.3983 42.4424 10.0903 42.125C9.78696 41.803 9.54896 41.4064 9.37629 40.935C9.20829 40.459 9.12429 39.913 9.12429 39.297C9.12429 38.8024 9.20129 38.3427 9.35529 37.918C9.50929 37.4887 9.72862 37.1154 10.0133 36.798C10.3026 36.4807 10.655 36.231 11.0703 36.049C11.4856 35.867 11.9523 35.776 12.4703 35.776C12.9043 35.776 13.3033 35.8484 13.6673 35.993C14.036 36.133 14.3533 36.3384 14.6193 36.609C14.8853 36.8797 15.093 37.2134 15.2423 37.61C15.3963 38.0067 15.4733 38.4594 15.4733 38.968C15.4733 39.178 15.45 39.3204 15.4033 39.395C15.3566 39.465 15.2703 39.5 15.1443 39.5H10.4823C10.4963 39.9247 10.557 40.2957 10.6643 40.613C10.7716 40.9257 10.9186 41.187 11.1053 41.397C11.2966 41.607 11.523 41.7634 11.7843 41.866C12.0456 41.9687 12.3373 42.02 12.6593 42.02C12.9626 42.02 13.224 41.985 13.4433 41.915C13.6673 41.845 13.8586 41.7704 14.0173 41.691C14.1806 41.607 14.316 41.53 14.4233 41.46C14.5353 41.39 14.6333 41.355 14.7173 41.355C14.8293 41.355 14.9156 41.397 14.9763 41.481L15.3683 41.985ZM21.9244 37.218C21.8824 37.2694 21.8404 37.3114 21.7984 37.344C21.7611 37.372 21.7051 37.386 21.6304 37.386C21.5558 37.386 21.4764 37.358 21.3924 37.302C21.3131 37.2414 21.2104 37.1784 21.0844 37.113C20.9631 37.043 20.8138 36.98 20.6364 36.924C20.4638 36.8634 20.2491 36.833 19.9924 36.833C19.6564 36.833 19.3601 36.8937 19.1034 37.015C18.8468 37.1364 18.6321 37.309 18.4594 37.533C18.2914 37.757 18.1631 38.03 18.0744 38.352C17.9858 38.674 17.9414 39.0357 17.9414 39.437C17.9414 39.8524 17.9881 40.2234 18.0814 40.55C18.1748 40.872 18.3078 41.145 18.4804 41.369C18.6531 41.5884 18.8631 41.7564 19.1104 41.873C19.3578 41.985 19.6331 42.041 19.9364 42.041C20.2304 42.041 20.4731 42.006 20.6644 41.936C20.8558 41.8614 21.0144 41.782 21.1404 41.698C21.2664 41.614 21.3714 41.537 21.4554 41.467C21.5394 41.3924 21.6258 41.355 21.7144 41.355C21.8264 41.355 21.9128 41.397 21.9734 41.481L22.3654 41.985C22.2021 42.1857 22.0178 42.356 21.8124 42.496C21.6118 42.636 21.3971 42.7504 21.1684 42.839C20.9398 42.9277 20.6994 42.993 20.4474 43.035C20.2001 43.077 19.9481 43.098 19.6914 43.098C19.2481 43.098 18.8328 43.0164 18.4454 42.853C18.0628 42.6897 17.7291 42.4517 17.4444 42.139C17.1644 41.8264 16.9428 41.4437 16.7794 40.991C16.6161 40.5337 16.5344 40.0157 16.5344 39.437C16.5344 38.9097 16.6068 38.422 16.7514 37.974C16.9008 37.526 17.1178 37.141 17.4024 36.819C17.6918 36.4924 18.0464 36.238 18.4664 36.056C18.8864 35.8694 19.3671 35.776 19.9084 35.776C20.4171 35.776 20.8651 35.8577 21.2524 36.021C21.6398 36.1844 21.9851 36.4154 22.2884 36.714L21.9244 37.218ZM25.0677 35.888V43H23.7027V35.888H25.0677ZM25.3267 33.69C25.3267 33.816 25.301 33.9374 25.2497 34.054C25.1983 34.166 25.1283 34.2664 25.0397 34.355C24.9557 34.439 24.8553 34.5067 24.7387 34.558C24.622 34.6047 24.5007 34.628 24.3747 34.628C24.2487 34.628 24.1297 34.6047 24.0177 34.558C23.9057 34.5067 23.8053 34.439 23.7167 34.355C23.6327 34.2664 23.565 34.166 23.5137 34.054C23.467 33.9374 23.4437 33.816 23.4437 33.69C23.4437 33.5594 23.467 33.438 23.5137 33.326C23.565 33.2094 23.6327 33.109 23.7167 33.025C23.8053 32.9364 23.9057 32.8687 24.0177 32.822C24.1297 32.7707 24.2487 32.745 24.3747 32.745C24.5007 32.745 24.622 32.7707 24.7387 32.822C24.8553 32.8687 24.9557 32.9364 25.0397 33.025C25.1283 33.109 25.1983 33.2094 25.2497 33.326C25.301 33.438 25.3267 33.5594 25.3267 33.69ZM31.755 38.653C31.755 38.3824 31.7153 38.1327 31.636 37.904C31.5613 37.6754 31.4493 37.477 31.3 37.309C31.1506 37.141 30.9686 37.0104 30.754 36.917C30.5393 36.8237 30.292 36.777 30.012 36.777C29.438 36.777 28.9853 36.9427 28.654 37.274C28.3273 37.6054 28.1196 38.065 28.031 38.653H31.755ZM32.882 41.985C32.714 42.181 32.5203 42.3514 32.301 42.496C32.0816 42.636 31.8483 42.7504 31.601 42.839C31.3536 42.9277 31.097 42.993 30.831 43.035C30.5696 43.077 30.3106 43.098 30.054 43.098C29.564 43.098 29.109 43.0164 28.689 42.853C28.2736 42.685 27.912 42.4424 27.604 42.125C27.3006 41.803 27.0626 41.4064 26.89 40.935C26.722 40.459 26.638 39.913 26.638 39.297C26.638 38.8024 26.715 38.3427 26.869 37.918C27.023 37.4887 27.2423 37.1154 27.527 36.798C27.8163 36.4807 28.1686 36.231 28.584 36.049C28.9993 35.867 29.466 35.776 29.984 35.776C30.418 35.776 30.817 35.8484 31.181 35.993C31.5496 36.133 31.867 36.3384 32.133 36.609C32.399 36.8797 32.6066 37.2134 32.756 37.61C32.91 38.0067 32.987 38.4594 32.987 38.968C32.987 39.178 32.9636 39.3204 32.917 39.395C32.8703 39.465 32.784 39.5 32.658 39.5H27.996C28.01 39.9247 28.0706 40.2957 28.178 40.613C28.2853 40.9257 28.4323 41.187 28.619 41.397C28.8103 41.607 29.0366 41.7634 29.298 41.866C29.5593 41.9687 29.851 42.02 30.173 42.02C30.4763 42.02 30.7376 41.985 30.957 41.915C31.181 41.845 31.3723 41.7704 31.531 41.691C31.6943 41.607 31.8296 41.53 31.937 41.46C32.049 41.39 32.147 41.355 32.231 41.355C32.343 41.355 32.4293 41.397 32.49 41.481L32.882 41.985ZM40.4641 35.888L37.5801 43H36.3481L33.4641 35.888H34.5911C34.6984 35.888 34.7871 35.9137 34.8571 35.965C34.9271 36.0164 34.9737 36.0817 34.9971 36.161L36.6981 40.529C36.7587 40.711 36.8101 40.893 36.8521 41.075C36.8987 41.2524 36.9407 41.4297 36.9781 41.607C37.0154 41.4297 37.0574 41.2524 37.1041 41.075C37.1507 40.8977 37.2067 40.7157 37.2721 40.529L38.9941 36.161C39.0221 36.0817 39.0711 36.0164 39.1411 35.965C39.2111 35.9137 39.2951 35.888 39.3931 35.888H40.4641ZM46.0557 38.653C46.0557 38.3824 46.0161 38.1327 45.9367 37.904C45.8621 37.6754 45.7501 37.477 45.6007 37.309C45.4514 37.141 45.2694 37.0104 45.0547 36.917C44.8401 36.8237 44.5927 36.777 44.3127 36.777C43.7387 36.777 43.2861 36.9427 42.9547 37.274C42.6281 37.6054 42.4204 38.065 42.3317 38.653H46.0557ZM47.1827 41.985C47.0147 42.181 46.8211 42.3514 46.6017 42.496C46.3824 42.636 46.1491 42.7504 45.9017 42.839C45.6544 42.9277 45.3977 42.993 45.1317 43.035C44.8704 43.077 44.6114 43.098 44.3547 43.098C43.8647 43.098 43.4097 43.0164 42.9897 42.853C42.5744 42.685 42.2127 42.4424 41.9047 42.125C41.6014 41.803 41.3634 41.4064 41.1907 40.935C41.0227 40.459 40.9387 39.913 40.9387 39.297C40.9387 38.8024 41.0157 38.3427 41.1697 37.918C41.3237 37.4887 41.5431 37.1154 41.8277 36.798C42.1171 36.4807 42.4694 36.231 42.8847 36.049C43.3001 35.867 43.7667 35.776 44.2847 35.776C44.7187 35.776 45.1177 35.8484 45.4817 35.993C45.8504 36.133 46.1677 36.3384 46.4337 36.609C46.6997 36.8797 46.9074 37.2134 47.0567 37.61C47.2107 38.0067 47.2877 38.4594 47.2877 38.968C47.2877 39.178 47.2644 39.3204 47.2177 39.395C47.1711 39.465 47.0847 39.5 46.9587 39.5H42.2967C42.3107 39.9247 42.3714 40.2957 42.4787 40.613C42.5861 40.9257 42.7331 41.187 42.9197 41.397C43.1111 41.607 43.3374 41.7634 43.5987 41.866C43.8601 41.9687 44.1517 42.02 44.4737 42.02C44.7771 42.02 45.0384 41.985 45.2577 41.915C45.4817 41.845 45.6731 41.7704 45.8317 41.691C45.9951 41.607 46.1304 41.53 46.2377 41.46C46.3497 41.39 46.4477 41.355 46.5317 41.355C46.6437 41.355 46.7301 41.397 46.7907 41.481L47.1827 41.985Z" fill="black"/>
<path d="M24.1227 21.6271C20.851 21.6271 17.5793 21.6271 14.3076 21.6271C13.2699 21.6271 12.4937 21.0335 12.2896 20.0823C12.2584 19.9126 12.2452 19.7401 12.2502 19.5676C12.2502 14.4945 12.2502 9.4193 12.2502 4.34203C12.2502 3.09681 13.063 2.28742 14.311 2.28396C15.7089 2.2812 17.1072 2.2812 18.506 2.28396C19.047 2.28396 19.413 2.61602 19.4213 3.09612C19.4269 3.20431 19.4104 3.31251 19.3729 3.41413C19.3353 3.51574 19.2775 3.60864 19.2028 3.68716C19.1282 3.76568 19.0384 3.82818 18.9388 3.87083C18.8392 3.91349 18.732 3.93541 18.6236 3.93526C18.0889 3.94772 17.5534 3.94011 17.018 3.94011C16.1288 3.94011 15.2396 3.94011 14.3505 3.94011C13.979 3.94011 13.907 4.00928 13.907 4.37317C13.907 9.43153 13.907 14.4894 13.907 19.5469C13.907 19.8928 13.9824 19.9689 14.3352 19.9689H33.9129C34.2643 19.9689 34.3397 19.8941 34.3397 19.5462C34.3397 14.4878 34.3397 9.42991 34.3397 4.37247C34.3397 4.00928 34.2705 3.94011 33.8963 3.94011C32.4975 3.94011 31.0994 3.94011 29.7006 3.94011C29.1921 3.94011 28.8393 3.61082 28.8261 3.14732C28.8123 2.64715 29.172 2.29088 29.7172 2.28604C30.409 2.27981 31.1007 2.28604 31.7925 2.28604C32.5175 2.28604 33.2453 2.28604 33.9682 2.28604C35.1823 2.29157 36 3.10235 36 4.31713C36 9.40962 36 14.5021 36 19.5946C36 20.8094 35.183 21.6243 33.9661 21.6257C30.6843 21.6298 27.4031 21.6303 24.1227 21.6271Z" fill="black"/>
<path d="M24.9527 13.255C25.0613 13.1527 25.1291 13.0918 25.1942 13.0274C26.1039 12.1191 27.0101 11.2073 27.9233 10.3025C28.3965 9.83415 29.1332 9.99049 29.3228 10.5958C29.4314 10.9417 29.3345 11.2343 29.0772 11.4896C28.0681 12.4932 27.0611 13.4995 26.0561 14.5086C25.6171 14.9476 25.179 15.3883 24.7417 15.8306C24.3709 16.2034 23.8791 16.2041 23.5048 15.8306C22.0714 14.3958 20.6378 12.9615 19.204 11.5276C18.9439 11.2689 18.8124 10.9791 18.9107 10.6193C19.076 10.0209 19.8231 9.82515 20.2832 10.2651C20.7432 10.7051 21.188 11.1645 21.6398 11.6169L23.2945 13.2723V12.9375C23.2945 9.69302 23.2945 6.44876 23.2945 3.20473C23.2945 2.5759 23.7753 2.16705 24.3364 2.31924C24.7044 2.41679 24.9479 2.73432 24.95 3.14939C24.9534 4.06393 24.95 4.97917 24.95 5.89372V13.255H24.9527Z" fill="black"/>
</svg>
