<svg width="24" height="24" viewBox="0 0 24 24" fill="none" xmlns="http://www.w3.org/2000/svg">
<path d="M12.1227 21.6271C8.85097 21.6271 5.57927 21.6271 2.30757 21.6271C1.26988 21.6271 0.493697 21.0335 0.289619 20.0823C0.258446 19.9126 0.245229 19.7401 0.250186 19.5676C0.250186 14.4945 0.250186 9.41931 0.250186 4.34203C0.250186 3.09681 1.06304 2.28742 2.31103 2.28396C3.7089 2.2812 5.10724 2.2812 6.50604 2.28396C7.04701 2.28396 7.41297 2.61602 7.42127 3.09612C7.42691 3.20431 7.41045 3.31251 7.3729 3.41413C7.33534 3.51574 7.27749 3.60864 7.20285 3.68716C7.12821 3.76568 7.03836 3.82818 6.93878 3.87083C6.8392 3.91349 6.73197 3.93541 6.62364 3.93526C6.08889 3.94772 5.55344 3.9401 5.018 3.9401C4.12882 3.9401 3.23964 3.9401 2.35046 3.9401C1.97897 3.9401 1.90702 4.00928 1.90702 4.37317C1.90702 9.43153 1.90702 14.4894 1.90702 19.5469C1.90702 19.8928 1.98243 19.9689 2.33524 19.9689H21.9129C22.2643 19.9689 22.3397 19.8941 22.3397 19.5462C22.3397 14.4878 22.3397 9.42991 22.3397 4.37247C22.3397 4.00928 22.2705 3.9401 21.8963 3.9401C20.4975 3.9401 19.0994 3.9401 17.7006 3.9401C17.1921 3.9401 16.8393 3.61082 16.8261 3.14732C16.8123 2.64715 17.172 2.29088 17.7172 2.28604C18.409 2.27981 19.1007 2.28604 19.7925 2.28604C20.5175 2.28604 21.2453 2.28604 21.9682 2.28604C23.1823 2.29157 24 3.10235 24 4.31713C24 9.40962 24 14.5021 24 19.5946C24 20.8094 23.183 21.6243 21.9661 21.6257C18.6843 21.6298 15.4031 21.6303 12.1227 21.6271Z" fill="black" fill-opacity="0.5"/>
<path d="M12.9527 13.255C13.0613 13.1527 13.1291 13.0918 13.1942 13.0274C14.1039 12.1191 15.0101 11.2073 15.9233 10.3025C16.3965 9.83415 17.1332 9.99049 17.3228 10.5958C17.4314 10.9417 17.3345 11.2343 17.0772 11.4896C16.0681 12.4932 15.0611 13.4995 14.0561 14.5086C13.6171 14.9476 13.179 15.3883 12.7417 15.8306C12.3709 16.2034 11.8791 16.2041 11.5048 15.8306C10.0714 14.3958 8.63782 12.9615 7.20397 11.5276C6.94386 11.2689 6.81242 10.9791 6.91065 10.6193C7.07599 10.0209 7.82312 9.82515 8.28316 10.2651C8.7432 10.7051 9.18802 11.1645 9.63976 11.6169L11.2945 13.2723V12.9375C11.2945 9.69302 11.2945 6.44876 11.2945 3.20473C11.2945 2.5759 11.7753 2.16705 12.3364 2.31924C12.7044 2.41678 12.9479 2.73432 12.95 3.14939C12.9534 4.06393 12.95 4.97917 12.95 5.89372V13.255H12.9527Z" fill="black" fill-opacity="0.5"/>
</svg>
