<svg width="26" height="48" viewBox="0 0 26 48" fill="none" xmlns="http://www.w3.org/2000/svg">
<path d="M6.80719 34.7284C6.76052 34.8077 6.71152 34.866 6.66019 34.9034C6.60885 34.9407 6.54352 34.9594 6.46419 34.9594C6.38019 34.9594 6.28452 34.922 6.17719 34.8474C6.06985 34.768 5.93452 34.6817 5.77119 34.5884C5.61252 34.4904 5.42119 34.404 5.19719 34.3294C4.97319 34.25 4.70485 34.2104 4.39219 34.2104C4.09819 34.2104 3.83919 34.25 3.61519 34.3294C3.39585 34.404 3.21152 34.509 3.06219 34.6444C2.91285 34.775 2.79852 34.9314 2.71919 35.1134C2.64452 35.2907 2.60719 35.4844 2.60719 35.6944C2.60719 35.965 2.67485 36.189 2.81019 36.3664C2.95019 36.5437 3.13219 36.6954 3.35619 36.8214C3.58019 36.9474 3.83452 37.057 4.11919 37.1504C4.40385 37.2437 4.69552 37.3417 4.99419 37.4444C5.29285 37.5424 5.58452 37.6567 5.86919 37.7874C6.15385 37.918 6.40819 38.0837 6.63219 38.2844C6.85619 38.4804 7.03585 38.723 7.17119 39.0124C7.31119 39.297 7.38119 39.647 7.38119 40.0624C7.38119 40.5057 7.30419 40.921 7.15019 41.3084C7.00085 41.6957 6.78152 42.034 6.49219 42.3234C6.20285 42.6127 5.84585 42.8414 5.42119 43.0094C5.00119 43.1727 4.52285 43.2544 3.98619 43.2544C3.66419 43.2544 3.35152 43.2217 3.04819 43.1564C2.74485 43.0957 2.45785 43.0094 2.18719 42.8974C1.91652 42.7807 1.66219 42.643 1.42419 42.4844C1.19085 42.321 0.980854 42.139 0.794188 41.9384L1.22119 41.2244C1.26319 41.1684 1.31219 41.1217 1.36819 41.0844C1.42885 41.047 1.49652 41.0284 1.57119 41.0284C1.66919 41.0284 1.78119 41.0797 1.90719 41.1824C2.03785 41.285 2.19652 41.3994 2.38319 41.5254C2.57452 41.6467 2.80085 41.7587 3.06219 41.8614C3.32819 41.964 3.65019 42.0154 4.02819 42.0154C4.33619 42.0154 4.61152 41.9757 4.85419 41.8964C5.09685 41.8124 5.29985 41.6957 5.46319 41.5464C5.63119 41.3924 5.75952 41.208 5.84819 40.9934C5.93685 40.7787 5.98119 40.5407 5.98119 40.2794C5.98119 39.9854 5.91352 39.745 5.77819 39.5584C5.64285 39.3717 5.46319 39.2154 5.23919 39.0894C5.01519 38.9634 4.76085 38.856 4.47619 38.7674C4.19152 38.6787 3.89985 38.5877 3.60119 38.4944C3.30252 38.3964 3.01085 38.2844 2.72619 38.1584C2.44152 38.0324 2.18719 37.869 1.96319 37.6684C1.73919 37.463 1.55952 37.2087 1.42419 36.9054C1.28885 36.5974 1.22119 36.2194 1.22119 35.7714C1.22119 35.412 1.29119 35.0644 1.43119 34.7284C1.57119 34.3924 1.77419 34.096 2.04019 33.8394C2.31085 33.578 2.64219 33.3704 3.03419 33.2164C3.42619 33.0577 3.87419 32.9784 4.37819 32.9784C4.94285 32.9784 5.46085 33.0694 5.93219 33.2514C6.40819 33.4287 6.82119 33.6854 7.17119 34.0214L6.80719 34.7284ZM12.6677 39.9854C12.1124 40.004 11.6411 40.0484 11.2537 40.1184C10.8664 40.1837 10.5514 40.2724 10.3087 40.3844C10.0661 40.4964 9.89105 40.6294 9.78372 40.7834C9.67639 40.9327 9.62272 41.1007 9.62272 41.2874C9.62272 41.4647 9.65072 41.6187 9.70672 41.7494C9.76739 41.8754 9.84672 41.9804 9.94472 42.0644C10.0474 42.1437 10.1664 42.202 10.3017 42.2394C10.4371 42.2767 10.5841 42.2954 10.7427 42.2954C10.9527 42.2954 11.1441 42.2744 11.3167 42.2324C11.4941 42.1904 11.6597 42.132 11.8137 42.0574C11.9677 41.978 12.1147 41.8824 12.2547 41.7704C12.3947 41.6584 12.5324 41.53 12.6677 41.3854V39.9854ZM8.66372 37.0244C9.06039 36.6464 9.48972 36.364 9.95172 36.1774C10.4184 35.9907 10.9294 35.8974 11.4847 35.8974C11.8907 35.8974 12.2501 35.965 12.5627 36.1004C12.8754 36.231 13.1391 36.4154 13.3537 36.6534C13.5684 36.8914 13.7294 37.176 13.8367 37.5074C13.9487 37.8387 14.0047 38.205 14.0047 38.6064V43.1424H13.3957C13.2604 43.1424 13.1577 43.1214 13.0877 43.0794C13.0177 43.0327 12.9617 42.9487 12.9197 42.8274L12.7727 42.2044C12.5907 42.3724 12.4111 42.5217 12.2337 42.6524C12.0564 42.7784 11.8697 42.888 11.6737 42.9814C11.4824 43.07 11.2771 43.1377 11.0577 43.1844C10.8384 43.231 10.5957 43.2544 10.3297 43.2544C10.0497 43.2544 9.78605 43.217 9.53872 43.1424C9.29605 43.063 9.08372 42.944 8.90172 42.7854C8.71972 42.6267 8.57505 42.4284 8.46772 42.1904C8.36505 41.9524 8.31372 41.6747 8.31372 41.3574C8.31372 41.0774 8.38839 40.809 8.53772 40.5524C8.69172 40.291 8.93905 40.0577 9.27972 39.8524C9.62505 39.647 10.0731 39.479 10.6237 39.3484C11.1791 39.2177 11.8604 39.143 12.6677 39.1244V38.6064C12.6677 38.0697 12.5534 37.6684 12.3247 37.4024C12.0961 37.1364 11.7601 37.0034 11.3167 37.0034C11.0181 37.0034 10.7661 37.0407 10.5607 37.1154C10.3601 37.19 10.1851 37.274 10.0357 37.3674C9.89105 37.456 9.76272 37.5377 9.65072 37.6124C9.54339 37.687 9.43139 37.7244 9.31472 37.7244C9.22139 37.7244 9.13972 37.6987 9.06972 37.6474C9.00439 37.596 8.95072 37.5354 8.90872 37.4654L8.66372 37.0244ZM17.232 32.8104V43.1424H15.86V32.8104H17.232ZM23.8927 38.7954C23.8927 38.5247 23.853 38.275 23.7737 38.0464C23.699 37.8177 23.587 37.6194 23.4377 37.4514C23.2883 37.2834 23.1063 37.1527 22.8917 37.0594C22.677 36.966 22.4297 36.9194 22.1497 36.9194C21.5757 36.9194 21.123 37.085 20.7917 37.4164C20.465 37.7477 20.2573 38.2074 20.1687 38.7954H23.8927ZM25.0197 42.1274C24.8517 42.3234 24.658 42.4937 24.4387 42.6384C24.2193 42.7784 23.986 42.8927 23.7387 42.9814C23.4913 43.07 23.2347 43.1354 22.9687 43.1774C22.7073 43.2194 22.4483 43.2404 22.1917 43.2404C21.7017 43.2404 21.2467 43.1587 20.8267 42.9954C20.4113 42.8274 20.0497 42.5847 19.7417 42.2674C19.4383 41.9454 19.2003 41.5487 19.0277 41.0774C18.8597 40.6014 18.7757 40.0554 18.7757 39.4394C18.7757 38.9447 18.8527 38.485 19.0067 38.0604C19.1607 37.631 19.38 37.2577 19.6647 36.9404C19.954 36.623 20.3063 36.3734 20.7217 36.1914C21.137 36.0094 21.6037 35.9184 22.1217 35.9184C22.5557 35.9184 22.9547 35.9907 23.3187 36.1354C23.6873 36.2754 24.0047 36.4807 24.2707 36.7514C24.5367 37.022 24.7443 37.3557 24.8937 37.7524C25.0477 38.149 25.1247 38.6017 25.1247 39.1104C25.1247 39.3204 25.1013 39.4627 25.0547 39.5374C25.008 39.6074 24.9217 39.6424 24.7957 39.6424H20.1337C20.1477 40.067 20.2083 40.438 20.3157 40.7554C20.423 41.068 20.57 41.3294 20.7567 41.5394C20.948 41.7494 21.1743 41.9057 21.4357 42.0084C21.697 42.111 21.9887 42.1624 22.3107 42.1624C22.614 42.1624 22.8753 42.1274 23.0947 42.0574C23.3187 41.9874 23.51 41.9127 23.6687 41.8334C23.832 41.7494 23.9673 41.6724 24.0747 41.6024C24.1867 41.5324 24.2847 41.4974 24.3687 41.4974C24.4807 41.4974 24.567 41.5394 24.6277 41.6234L25.0197 42.1274Z" fill="black"/>
<path d="M23 4.77687C23 3.24325 21.7568 2 20.2231 2H13.5586C13.4114 2 13.2701 2.05851 13.1659 2.16267L3.94346 11.3851C2.68551 12.6431 2.68551 14.6826 3.94346 15.9406L9.05944 21.0565C10.3174 22.3145 12.3569 22.3145 13.6149 21.0565L22.8373 11.8341C22.9415 11.7299 23 11.5886 23 11.4414V4.77687ZM13.7887 3.11075H20.2231C21.1433 3.11075 21.8893 3.8567 21.8893 4.77687V11.2113L12.8294 20.2711C12.0053 21.0953 10.669 21.0953 9.84486 20.2711L4.72888 15.1551C3.90471 14.331 3.90471 12.9947 4.72888 12.1706L13.7887 3.11075Z" fill="black"/>
<path d="M14.7341 9.61937C14.6353 9.61325 14.575 9.60805 14.5144 9.60576C13.6619 9.57747 12.8092 9.55243 11.9568 9.5209C11.5153 9.50432 11.2567 9.07669 11.4638 8.71026C11.582 8.50073 11.7676 8.41484 12.008 8.4236C12.9517 8.45679 13.8958 8.48772 14.8404 8.51639C15.2521 8.52974 15.6643 8.54191 16.0768 8.5529C16.4256 8.56323 16.6491 8.80104 16.638 9.15174C16.5938 10.4967 16.5499 11.8416 16.5063 13.1864C16.499 13.4297 16.4184 13.6249 16.1996 13.7406C15.8349 13.932 15.4011 13.6591 15.4054 13.2368C15.4096 12.8144 15.4302 12.3906 15.4443 11.9666L15.4949 10.4143L15.3328 10.5663C13.762 12.0384 12.1913 13.5105 10.6207 14.9825C10.3163 15.2678 9.90018 15.2205 9.71929 14.8798C9.59953 14.6574 9.64277 14.3954 9.84278 14.2061C10.284 13.7894 10.7287 13.3758 11.1714 12.9609L14.7354 9.62071L14.7341 9.61937Z" fill="black"/>
</svg>
