<svg width="24" height="24" viewBox="0 0 24 24" fill="none" xmlns="http://www.w3.org/2000/svg">
<path d="M12.1227 2.37292C8.85097 2.37292 5.57927 2.37292 2.30757 2.37292C1.26988 2.37292 0.493697 2.96648 0.289619 3.91769C0.258446 4.08739 0.245229 4.25991 0.250186 4.43238C0.250186 9.5055 0.250186 14.5807 0.250186 19.658C0.250186 20.9032 1.06304 21.7126 2.31103 21.716C3.7089 21.7188 5.10724 21.7188 6.50604 21.716C7.04701 21.716 7.41297 21.384 7.42127 20.9039C7.42691 20.7957 7.41045 20.6875 7.3729 20.5859C7.33534 20.4843 7.27749 20.3914 7.20285 20.3128C7.12821 20.2343 7.03836 20.1718 6.93878 20.1292C6.8392 20.0865 6.73197 20.0646 6.62364 20.0647C6.08889 20.0523 5.55344 20.0599 5.018 20.0599C4.12882 20.0599 3.23964 20.0599 2.35046 20.0599C1.97897 20.0599 1.90702 19.9907 1.90702 19.6268C1.90702 14.5685 1.90702 9.51057 1.90702 4.45313C1.90702 4.10724 1.98243 4.03114 2.33524 4.03114H21.9129C22.2643 4.03114 22.3397 4.10585 22.3397 4.45382C22.3397 9.51219 22.3397 14.5701 22.3397 19.6275C22.3397 19.9907 22.2705 20.0599 21.8963 20.0599C20.4975 20.0599 19.0994 20.0599 17.7006 20.0599C17.1921 20.0599 16.8393 20.3892 16.8261 20.8527C16.8123 21.3528 17.172 21.7091 17.7172 21.714C18.409 21.7202 19.1007 21.714 19.7925 21.714C20.5175 21.714 21.2453 21.714 21.9682 21.714C23.1823 21.7084 24 20.8977 24 19.6829C24 14.5904 24 9.49789 24 4.4054C24 3.19062 23.183 2.37569 21.9661 2.37431C18.6843 2.37016 15.4031 2.36969 12.1227 2.37292Z" fill="black"/>
<path d="M12.9527 10.745C13.0614 10.8473 13.1291 10.9082 13.1942 10.9726C14.1039 11.8809 15.0101 12.7927 15.9233 13.6975C16.3965 14.1659 17.1332 14.0095 17.3228 13.4042C17.4314 13.0583 17.3345 12.7657 17.0772 12.5104C16.0681 11.5068 15.0611 10.5005 14.0561 9.49143C13.6171 9.05238 13.179 8.61171 12.7417 8.16943C12.3709 7.79655 11.8791 7.79586 11.5048 8.16943C10.0714 9.6042 8.63782 11.0385 7.20397 12.4724C6.94386 12.7311 6.81242 13.0209 6.91065 13.3807C7.07599 13.9791 7.82312 14.1748 8.28316 13.7349C8.7432 13.2949 9.18802 12.8355 9.63976 12.3831L11.2945 10.7277V11.0625C11.2945 14.307 11.2945 17.5512 11.2945 20.7953C11.2945 21.4241 11.7753 21.833 12.3364 21.6808C12.7044 21.5832 12.9479 21.2657 12.95 20.8506C12.9534 19.9361 12.95 19.0208 12.95 18.1063V10.745H12.9527Z" fill="black"/>
</svg>
