<svg width="31" height="47" viewBox="0 0 31 47" fill="none" xmlns="http://www.w3.org/2000/svg">
<path d="M6.60016 34.586C6.55349 34.6654 6.50449 34.7237 6.45316 34.761C6.40182 34.7984 6.33649 34.817 6.25716 34.817C6.17316 34.817 6.07749 34.7797 5.97016 34.705C5.86282 34.6257 5.72749 34.5394 5.56416 34.446C5.40549 34.348 5.21416 34.2617 4.99016 34.187C4.76616 34.1077 4.49782 34.068 4.18516 34.068C3.89116 34.068 3.63216 34.1077 3.40816 34.187C3.18882 34.2617 3.00449 34.3667 2.85516 34.502C2.70582 34.6327 2.59149 34.789 2.51216 34.971C2.43749 35.1484 2.40016 35.342 2.40016 35.552C2.40016 35.8227 2.46782 36.0467 2.60316 36.224C2.74316 36.4014 2.92516 36.553 3.14916 36.679C3.37316 36.805 3.62749 36.9147 3.91216 37.008C4.19682 37.1014 4.48849 37.1994 4.78716 37.302C5.08582 37.4 5.37749 37.5144 5.66216 37.645C5.94682 37.7757 6.20116 37.9414 6.42516 38.142C6.64916 38.338 6.82882 38.5807 6.96416 38.87C7.10416 39.1547 7.17416 39.5047 7.17416 39.92C7.17416 40.3634 7.09716 40.7787 6.94316 41.166C6.79382 41.5534 6.57449 41.8917 6.28516 42.181C5.99582 42.4704 5.63882 42.699 5.21416 42.867C4.79416 43.0304 4.31582 43.112 3.77916 43.112C3.45716 43.112 3.14449 43.0794 2.84116 43.014C2.53782 42.9534 2.25082 42.867 1.98016 42.755C1.70949 42.6384 1.45516 42.5007 1.21716 42.342C0.983823 42.1787 0.773823 41.9967 0.587156 41.796L1.01416 41.082C1.05616 41.026 1.10516 40.9794 1.16116 40.942C1.22182 40.9047 1.28949 40.886 1.36416 40.886C1.46216 40.886 1.57416 40.9374 1.70016 41.04C1.83082 41.1427 1.98949 41.257 2.17616 41.383C2.36749 41.5044 2.59382 41.6164 2.85516 41.719C3.12116 41.8217 3.44316 41.873 3.82116 41.873C4.12916 41.873 4.40449 41.8334 4.64716 41.754C4.88982 41.67 5.09282 41.5534 5.25616 41.404C5.42416 41.25 5.55249 41.0657 5.64116 40.851C5.72982 40.6364 5.77416 40.3984 5.77416 40.137C5.77416 39.843 5.70649 39.6027 5.57116 39.416C5.43582 39.2294 5.25616 39.073 5.03216 38.947C4.80816 38.821 4.55382 38.7137 4.26916 38.625C3.98449 38.5364 3.69282 38.4454 3.39416 38.352C3.09549 38.254 2.80382 38.142 2.51916 38.016C2.23449 37.89 1.98016 37.7267 1.75616 37.526C1.53216 37.3207 1.35249 37.0664 1.21716 36.763C1.08182 36.455 1.01416 36.077 1.01416 35.629C1.01416 35.2697 1.08416 34.922 1.22416 34.586C1.36416 34.25 1.56716 33.9537 1.83316 33.697C2.10382 33.4357 2.43516 33.228 2.82716 33.074C3.21916 32.9154 3.66716 32.836 4.17116 32.836C4.73582 32.836 5.25382 32.927 5.72516 33.109C6.20116 33.2864 6.61416 33.543 6.96416 33.879L6.60016 34.586ZM13.4044 38.653C13.4044 38.3824 13.3647 38.1327 13.2854 37.904C13.2107 37.6754 13.0987 37.477 12.9494 37.309C12.8 37.141 12.618 37.0104 12.4034 36.917C12.1887 36.8237 11.9414 36.777 11.6614 36.777C11.0874 36.777 10.6347 36.9427 10.3034 37.274C9.97671 37.6054 9.76904 38.065 9.68038 38.653H13.4044ZM14.5314 41.985C14.3634 42.181 14.1697 42.3514 13.9504 42.496C13.731 42.636 13.4977 42.7504 13.2504 42.839C13.003 42.9277 12.7464 42.993 12.4804 43.035C12.219 43.077 11.96 43.098 11.7034 43.098C11.2134 43.098 10.7584 43.0164 10.3384 42.853C9.92304 42.685 9.56138 42.4424 9.25338 42.125C8.95004 41.803 8.71204 41.4064 8.53938 40.935C8.37138 40.459 8.28738 39.913 8.28738 39.297C8.28738 38.8024 8.36438 38.3427 8.51838 37.918C8.67238 37.4887 8.89171 37.1154 9.17638 36.798C9.46571 36.4807 9.81804 36.231 10.2334 36.049C10.6487 35.867 11.1154 35.776 11.6334 35.776C12.0674 35.776 12.4664 35.8484 12.8304 35.993C13.199 36.133 13.5164 36.3384 13.7824 36.609C14.0484 36.8797 14.256 37.2134 14.4054 37.61C14.5594 38.0067 14.6364 38.4594 14.6364 38.968C14.6364 39.178 14.613 39.3204 14.5664 39.395C14.5197 39.465 14.4334 39.5 14.3074 39.5H9.64538C9.65938 39.9247 9.72004 40.2957 9.82738 40.613C9.93471 40.9257 10.0817 41.187 10.2684 41.397C10.4597 41.607 10.686 41.7634 10.9474 41.866C11.2087 41.9687 11.5004 42.02 11.8224 42.02C12.1257 42.02 12.387 41.985 12.6064 41.915C12.8304 41.845 13.0217 41.7704 13.1804 41.691C13.3437 41.607 13.479 41.53 13.5864 41.46C13.6984 41.39 13.7964 41.355 13.8804 41.355C13.9924 41.355 14.0787 41.397 14.1394 41.481L14.5314 41.985ZM17.3845 36.875C17.5385 36.7117 17.6995 36.5624 17.8675 36.427C18.0355 36.2917 18.2129 36.1774 18.3995 36.084C18.5909 35.986 18.7939 35.9114 19.0085 35.86C19.2279 35.804 19.4612 35.776 19.7085 35.776C20.1005 35.776 20.4435 35.8414 20.7375 35.972C21.0362 36.1027 21.2859 36.287 21.4865 36.525C21.6872 36.7584 21.8389 37.0407 21.9415 37.372C22.0442 37.7034 22.0955 38.0697 22.0955 38.471V43H20.7235V38.471C20.7235 37.9624 20.6069 37.568 20.3735 37.288C20.1402 37.0034 19.7832 36.861 19.3025 36.861C18.9525 36.861 18.6235 36.945 18.3155 37.113C18.0122 37.2764 17.7299 37.5004 17.4685 37.785V43H16.1035V35.888H16.9225C17.1139 35.888 17.2329 35.979 17.2795 36.161L17.3845 36.875ZM28.5225 37.61C28.2985 37.316 28.0558 37.1107 27.7945 36.994C27.5378 36.8774 27.2485 36.819 26.9265 36.819C26.3012 36.819 25.8158 37.0454 25.4705 37.498C25.1298 37.946 24.9595 38.6017 24.9595 39.465C24.9595 39.9177 24.9968 40.305 25.0715 40.627C25.1508 40.9444 25.2628 41.2057 25.4075 41.411C25.5568 41.6117 25.7388 41.761 25.9535 41.859C26.1682 41.9524 26.4108 41.999 26.6815 41.999C27.0782 41.999 27.4212 41.9104 27.7105 41.733C27.9998 41.5557 28.2705 41.306 28.5225 40.984V37.61ZM29.8945 32.668V43H29.0685C28.8772 43 28.7582 42.909 28.7115 42.727L28.5925 41.908C28.2892 42.2674 27.9438 42.5567 27.5565 42.776C27.1738 42.9907 26.7305 43.098 26.2265 43.098C25.8205 43.098 25.4518 43.0187 25.1205 42.86C24.7938 42.7014 24.5138 42.4704 24.2805 42.167C24.0472 41.859 23.8675 41.4787 23.7415 41.026C23.6155 40.5734 23.5525 40.053 23.5525 39.465C23.5525 38.9377 23.6225 38.4477 23.7625 37.995C23.9025 37.5424 24.1055 37.1504 24.3715 36.819C24.6375 36.4877 24.9595 36.2287 25.3375 36.042C25.7155 35.8507 26.1425 35.755 26.6185 35.755C27.0478 35.755 27.4118 35.825 27.7105 35.965C28.0138 36.105 28.2845 36.3034 28.5225 36.56V32.668H29.8945Z" fill="black"/>
<path d="M16.1227 2.37292C12.851 2.37292 9.57927 2.37292 6.30757 2.37292C5.26988 2.37292 4.4937 2.96648 4.28962 3.91769C4.25845 4.08739 4.24523 4.25991 4.25019 4.43238C4.25019 9.5055 4.25019 14.5807 4.25019 19.658C4.25019 20.9032 5.06304 21.7126 6.31103 21.716C7.7089 21.7188 9.10724 21.7188 10.506 21.716C11.047 21.716 11.413 21.384 11.4213 20.9039C11.4269 20.7957 11.4104 20.6875 11.3729 20.5859C11.3353 20.4843 11.2775 20.3914 11.2028 20.3128C11.1282 20.2343 11.0384 20.1718 10.9388 20.1292C10.8392 20.0865 10.732 20.0646 10.6236 20.0647C10.0889 20.0523 9.55344 20.0599 9.018 20.0599C8.12882 20.0599 7.23964 20.0599 6.35046 20.0599C5.97897 20.0599 5.90702 19.9907 5.90702 19.6268C5.90702 14.5685 5.90702 9.51057 5.90702 4.45313C5.90702 4.10724 5.98243 4.03114 6.33524 4.03114H25.9129C26.2643 4.03114 26.3397 4.10585 26.3397 4.45382C26.3397 9.51219 26.3397 14.5701 26.3397 19.6275C26.3397 19.9907 26.2705 20.0599 25.8963 20.0599C24.4975 20.0599 23.0994 20.0599 21.7006 20.0599C21.1921 20.0599 20.8393 20.3892 20.8261 20.8527C20.8123 21.3528 21.172 21.7091 21.7172 21.714C22.409 21.7202 23.1007 21.714 23.7925 21.714C24.5175 21.714 25.2453 21.714 25.9682 21.714C27.1823 21.7084 28 20.8976 28 19.6829C28 14.5904 28 9.49789 28 4.4054C28 3.19062 27.183 2.37569 25.9661 2.37431C22.6843 2.37016 19.4031 2.36969 16.1227 2.37292Z" fill="black"/>
<path d="M16.9527 10.745C17.0614 10.8473 17.1291 10.9082 17.1942 10.9726C18.1039 11.8809 19.0101 12.7927 19.9233 13.6975C20.3965 14.1659 21.1332 14.0095 21.3228 13.4042C21.4314 13.0583 21.3345 12.7657 21.0772 12.5104C20.0681 11.5068 19.0611 10.5005 18.0561 9.49143C17.6171 9.05238 17.179 8.61171 16.7417 8.16943C16.3709 7.79655 15.8791 7.79586 15.5048 8.16943C14.0714 9.6042 12.6378 11.0385 11.204 12.4724C10.9439 12.7311 10.8124 13.0209 10.9107 13.3807C11.076 13.9791 11.8231 14.1748 12.2832 13.7349C12.7432 13.2949 13.188 12.8355 13.6398 12.3831L15.2945 10.7277V11.0625C15.2945 14.307 15.2945 17.5512 15.2945 20.7953C15.2945 21.4241 15.7753 21.833 16.3364 21.6808C16.7044 21.5832 16.9479 21.2657 16.95 20.8506C16.9534 19.9361 16.95 19.0208 16.95 18.1063V10.745H16.9527Z" fill="black"/>
</svg>
