<svg width="83" height="109" viewBox="0 0 83 109" fill="none" xmlns="http://www.w3.org/2000/svg">
<circle cx="41.3655" cy="43.2692" r="29.7308" stroke="black" stroke-opacity="0.2" stroke-width="4"/>
<mask id="mask0_125_1406" style="mask-type:alpha" maskUnits="userSpaceOnUse" x="9" y="11" width="65" height="64">
<circle cx="41.3655" cy="43.2692" r="29.7308" stroke="#EB983A" stroke-width="4"/>
</mask>
<g mask="url(#mask0_125_1406)">
<path d="M46.9736 12.1028C20.423 12.1028 9.57537 34.0832 10.3721 51.5895" stroke="#EB983A" stroke-width="8"/>
</g>
<g filter="url(#filter0_d_125_1406)">
<circle cx="46.9035" cy="13.1731" r="3.17308" fill="white"/>
<circle cx="46.9035" cy="13.1731" r="2.67308" stroke="#F7931A" stroke-opacity="0.2"/>
</g>
<g filter="url(#filter1_d_125_1406)">
<g filter="url(#filter2_f_125_1406)">
<circle cx="63.5774" cy="63.5769" r="3.17308" fill="white"/>
</g>
<circle cx="63.5774" cy="63.5769" r="3.17308" fill="white"/>
</g>
<g filter="url(#filter3_d_125_1406)">
<circle cx="12.1731" cy="52.1539" r="3.17308" fill="white"/>
<circle cx="12.1731" cy="52.1539" r="2.67308" stroke="white"/>
</g>
<path d="M36.4809 54.2436L26.5808 44.2867C25.9861 43.6885 25.9861 42.7186 26.5808 42.1203L28.7348 39.954C29.3295 39.3557 30.2939 39.3557 30.8887 39.954L37.5578 46.6614L51.8424 32.2948C52.4371 31.6966 53.4015 31.6966 53.9963 32.2948L56.1502 34.4611C56.745 35.0593 56.745 36.0292 56.1502 36.6275L38.6348 54.2436C38.04 54.8418 37.0756 54.8418 36.4809 54.2436Z" fill="#F7931A"/>
<path d="M8.40194 94.254C8.33594 94.362 8.26694 94.443 8.19494 94.497C8.12294 94.545 8.03294 94.569 7.92494 94.569C7.81094 94.569 7.68194 94.521 7.53794 94.425C7.39994 94.329 7.22594 94.224 7.01594 94.11C6.81194 93.99 6.56894 93.882 6.28694 93.786C6.00494 93.684 5.66894 93.633 5.27894 93.633C4.91894 93.633 4.60094 93.678 4.32494 93.768C4.05494 93.858 3.82694 93.984 3.64094 94.146C3.45494 94.308 3.31394 94.5 3.21794 94.722C3.12794 94.938 3.08294 95.175 3.08294 95.433C3.08294 95.763 3.16994 96.039 3.34394 96.261C3.51794 96.477 3.74594 96.663 4.02794 96.819C4.31594 96.975 4.64294 97.113 5.00894 97.233C5.37494 97.347 5.74694 97.47 6.12494 97.602C6.50894 97.734 6.88394 97.884 7.24994 98.052C7.61594 98.22 7.93994 98.433 8.22194 98.691C8.50994 98.949 8.74094 99.264 8.91494 99.636C9.08894 100.008 9.17594 100.461 9.17594 100.995C9.17594 101.571 9.07694 102.111 8.87894 102.615C8.68094 103.119 8.39294 103.56 8.01494 103.938C7.64294 104.31 7.18094 104.604 6.62894 104.82C6.08294 105.036 5.45894 105.144 4.75694 105.144C4.34294 105.144 3.93794 105.102 3.54194 105.018C3.15194 104.94 2.77694 104.829 2.41694 104.685C2.06294 104.535 1.72994 104.355 1.41794 104.145C1.10594 103.935 0.826938 103.701 0.580938 103.443L1.19294 102.435C1.24694 102.351 1.31594 102.285 1.39994 102.237C1.48394 102.189 1.57694 102.165 1.67894 102.165C1.81694 102.165 1.96994 102.231 2.13794 102.363C2.30594 102.489 2.50694 102.63 2.74094 102.786C2.98094 102.936 3.26894 103.077 3.60494 103.209C3.94094 103.335 4.34294 103.398 4.81094 103.398C5.57294 103.398 6.16094 103.212 6.57494 102.84C6.99494 102.468 7.20494 101.955 7.20494 101.301C7.20494 100.935 7.11794 100.638 6.94394 100.41C6.76994 100.176 6.53894 99.981 6.25094 99.825C5.96894 99.669 5.64494 99.537 5.27894 99.429C4.91294 99.321 4.54094 99.207 4.16294 99.087C3.78494 98.961 3.41294 98.817 3.04694 98.655C2.68094 98.487 2.35394 98.271 2.06594 98.007C1.78394 97.737 1.55594 97.407 1.38194 97.017C1.20794 96.621 1.12094 96.129 1.12094 95.541C1.12094 95.073 1.21094 94.62 1.39094 94.182C1.57694 93.744 1.84394 93.357 2.19194 93.021C2.54594 92.679 2.98094 92.406 3.49694 92.202C4.01294 91.998 4.60094 91.896 5.26094 91.896C6.00494 91.896 6.68594 92.013 7.30394 92.247C7.92794 92.481 8.46494 92.814 8.91494 93.246L8.40194 94.254ZM18.6553 95.82V105H17.4853C17.2273 105 17.0623 104.877 16.9903 104.631L16.8463 103.776C16.6543 103.98 16.4503 104.166 16.2343 104.334C16.0243 104.502 15.7993 104.646 15.5593 104.766C15.3193 104.886 15.0613 104.979 14.7853 105.045C14.5153 105.111 14.2243 105.144 13.9123 105.144C13.4083 105.144 12.9643 105.06 12.5803 104.892C12.1963 104.724 11.8723 104.487 11.6083 104.181C11.3503 103.875 11.1553 103.509 11.0233 103.083C10.8913 102.651 10.8253 102.177 10.8253 101.661V95.82H12.7603V101.661C12.7603 102.279 12.9013 102.759 13.1833 103.101C13.4713 103.443 13.9063 103.614 14.4883 103.614C14.9143 103.614 15.3103 103.518 15.6763 103.326C16.0483 103.128 16.3963 102.858 16.7203 102.516V95.82H18.6553ZM27.4942 97.62C27.4342 97.698 27.3772 97.758 27.3232 97.8C27.2692 97.842 27.1912 97.863 27.0892 97.863C26.9872 97.863 26.8792 97.827 26.7652 97.755C26.6572 97.683 26.5252 97.605 26.3692 97.521C26.2192 97.431 26.0362 97.35 25.8202 97.278C25.6042 97.206 25.3342 97.17 25.0102 97.17C24.5902 97.17 24.2212 97.245 23.9032 97.395C23.5912 97.545 23.3272 97.761 23.1112 98.043C22.9012 98.319 22.7422 98.658 22.6342 99.06C22.5322 99.456 22.4812 99.903 22.4812 100.401C22.4812 100.917 22.5382 101.376 22.6522 101.778C22.7662 102.18 22.9282 102.519 23.1382 102.795C23.3542 103.071 23.6122 103.281 23.9122 103.425C24.2182 103.569 24.5602 103.641 24.9382 103.641C25.3102 103.641 25.6132 103.596 25.8472 103.506C26.0812 103.416 26.2762 103.317 26.4322 103.209C26.5882 103.101 26.7202 103.002 26.8282 102.912C26.9422 102.822 27.0622 102.777 27.1882 102.777C27.3442 102.777 27.4642 102.837 27.5482 102.957L28.0972 103.668C27.8752 103.938 27.6292 104.166 27.3592 104.352C27.0892 104.538 26.8042 104.691 26.5042 104.811C26.2042 104.925 25.8922 105.006 25.5682 105.054C25.2442 105.108 24.9172 105.135 24.5872 105.135C24.0172 105.135 23.4832 105.03 22.9852 104.82C22.4932 104.604 22.0612 104.295 21.6892 103.893C21.3232 103.485 21.0322 102.99 20.8162 102.408C20.6062 101.82 20.5012 101.151 20.5012 100.401C20.5012 99.723 20.5972 99.096 20.7892 98.52C20.9812 97.938 21.2602 97.437 21.6262 97.017C21.9982 96.597 22.4572 96.27 23.0032 96.036C23.5492 95.796 24.1792 95.676 24.8932 95.676C25.5592 95.676 26.1442 95.784 26.6482 96C27.1582 96.216 27.6112 96.522 28.0072 96.918L27.4942 97.62ZM35.9844 97.62C35.9244 97.698 35.8674 97.758 35.8134 97.8C35.7594 97.842 35.6814 97.863 35.5794 97.863C35.4774 97.863 35.3694 97.827 35.2554 97.755C35.1474 97.683 35.0154 97.605 34.8594 97.521C34.7094 97.431 34.5264 97.35 34.3104 97.278C34.0944 97.206 33.8244 97.17 33.5004 97.17C33.0804 97.17 32.7114 97.245 32.3934 97.395C32.0814 97.545 31.8174 97.761 31.6014 98.043C31.3914 98.319 31.2324 98.658 31.1244 99.06C31.0224 99.456 30.9714 99.903 30.9714 100.401C30.9714 100.917 31.0284 101.376 31.1424 101.778C31.2564 102.18 31.4184 102.519 31.6284 102.795C31.8444 103.071 32.1024 103.281 32.4024 103.425C32.7084 103.569 33.0504 103.641 33.4284 103.641C33.8004 103.641 34.1034 103.596 34.3374 103.506C34.5714 103.416 34.7664 103.317 34.9224 103.209C35.0784 103.101 35.2104 103.002 35.3184 102.912C35.4324 102.822 35.5524 102.777 35.6784 102.777C35.8344 102.777 35.9544 102.837 36.0384 102.957L36.5874 103.668C36.3654 103.938 36.1194 104.166 35.8494 104.352C35.5794 104.538 35.2944 104.691 34.9944 104.811C34.6944 104.925 34.3824 105.006 34.0584 105.054C33.7344 105.108 33.4074 105.135 33.0774 105.135C32.5074 105.135 31.9734 105.03 31.4754 104.82C30.9834 104.604 30.5514 104.295 30.1794 103.893C29.8134 103.485 29.5224 102.99 29.3064 102.408C29.0964 101.82 28.9914 101.151 28.9914 100.401C28.9914 99.723 29.0874 99.096 29.2794 98.52C29.4714 97.938 29.7504 97.437 30.1164 97.017C30.4884 96.597 30.9474 96.27 31.4934 96.036C32.0394 95.796 32.6694 95.676 33.3834 95.676C34.0494 95.676 34.6344 95.784 35.1384 96C35.6484 96.216 36.1014 96.522 36.4974 96.918L35.9844 97.62ZM44.0066 99.375C44.0066 99.051 43.9586 98.751 43.8626 98.475C43.7726 98.193 43.6376 97.95 43.4576 97.746C43.2776 97.536 43.0526 97.374 42.7826 97.26C42.5186 97.14 42.2126 97.08 41.8646 97.08C41.1626 97.08 40.6106 97.281 40.2086 97.683C39.8066 98.085 39.5516 98.649 39.4436 99.375H44.0066ZM39.3896 100.563C39.4136 101.085 39.4946 101.538 39.6326 101.922C39.7706 102.3 39.9536 102.615 40.1816 102.867C40.4156 103.119 40.6916 103.308 41.0096 103.434C41.3336 103.554 41.6936 103.614 42.0896 103.614C42.4676 103.614 42.7946 103.572 43.0706 103.488C43.3466 103.398 43.5866 103.302 43.7906 103.2C43.9946 103.092 44.1686 102.996 44.3126 102.912C44.4566 102.822 44.5886 102.777 44.7086 102.777C44.8646 102.777 44.9846 102.837 45.0686 102.957L45.6176 103.668C45.3896 103.938 45.1316 104.166 44.8436 104.352C44.5556 104.538 44.2496 104.691 43.9256 104.811C43.6016 104.925 43.2686 105.006 42.9266 105.054C42.5846 105.108 42.2516 105.135 41.9276 105.135C41.2916 105.135 40.7006 105.03 40.1546 104.82C39.6146 104.604 39.1436 104.289 38.7416 103.875C38.3456 103.461 38.0336 102.948 37.8056 102.336C37.5836 101.724 37.4726 101.019 37.4726 100.221C37.4726 99.585 37.5716 98.991 37.7696 98.439C37.9736 97.887 38.2616 97.407 38.6336 96.999C39.0116 96.591 39.4676 96.27 40.0016 96.036C40.5416 95.796 41.1506 95.676 41.8286 95.676C42.3926 95.676 42.9146 95.769 43.3946 95.955C43.8746 96.135 44.2886 96.402 44.6366 96.756C44.9846 97.11 45.2546 97.545 45.4466 98.061C45.6446 98.571 45.7436 99.153 45.7436 99.807C45.7436 100.107 45.7106 100.308 45.6446 100.41C45.5786 100.512 45.4586 100.563 45.2846 100.563H39.3896ZM53.0291 97.485C52.9811 97.569 52.9271 97.629 52.8671 97.665C52.8071 97.701 52.7321 97.719 52.6421 97.719C52.5401 97.719 52.4291 97.689 52.3091 97.629C52.1891 97.563 52.0481 97.491 51.8861 97.413C51.7241 97.335 51.5321 97.266 51.3101 97.206C51.0941 97.14 50.8391 97.107 50.5451 97.107C50.3051 97.107 50.0861 97.137 49.8881 97.197C49.6961 97.251 49.5311 97.332 49.3931 97.44C49.2611 97.542 49.1591 97.665 49.0871 97.809C49.0151 97.947 48.9791 98.097 48.9791 98.259C48.9791 98.475 49.0451 98.655 49.1771 98.799C49.3091 98.943 49.4831 99.069 49.6991 99.177C49.9151 99.279 50.1611 99.372 50.4371 99.456C50.7131 99.54 50.9951 99.63 51.2831 99.726C51.5711 99.822 51.8531 99.933 52.1291 100.059C52.4051 100.185 52.6511 100.341 52.8671 100.527C53.0831 100.707 53.2571 100.929 53.3891 101.193C53.5211 101.451 53.5871 101.766 53.5871 102.138C53.5871 102.57 53.5091 102.969 53.3531 103.335C53.1971 103.701 52.9691 104.019 52.6691 104.289C52.3691 104.559 51.9941 104.769 51.5441 104.919C51.1001 105.069 50.5901 105.144 50.0141 105.144C49.6961 105.144 49.3871 105.114 49.0871 105.054C48.7931 105 48.5111 104.925 48.2411 104.829C47.9771 104.727 47.7281 104.607 47.4941 104.469C47.2661 104.331 47.0621 104.181 46.8821 104.019L47.3321 103.281C47.3861 103.191 47.4521 103.122 47.5301 103.074C47.6141 103.02 47.7161 102.993 47.8361 102.993C47.9621 102.993 48.0851 103.035 48.2051 103.119C48.3311 103.197 48.4751 103.284 48.6371 103.38C48.8051 103.476 49.0061 103.566 49.2401 103.65C49.4741 103.728 49.7651 103.767 50.1131 103.767C50.4011 103.767 50.6501 103.734 50.8601 103.668C51.0701 103.596 51.2441 103.5 51.3821 103.38C51.5201 103.26 51.6221 103.125 51.6881 102.975C51.7541 102.819 51.7871 102.654 51.7871 102.48C51.7871 102.246 51.7211 102.054 51.5891 101.904C51.4571 101.754 51.2801 101.625 51.0581 101.517C50.8421 101.409 50.5931 101.313 50.3111 101.229C50.0351 101.145 49.7531 101.055 49.4651 100.959C49.1771 100.863 48.8921 100.752 48.6101 100.626C48.3341 100.5 48.0851 100.341 47.8631 100.149C47.6471 99.951 47.4731 99.714 47.3411 99.438C47.2091 99.156 47.1431 98.814 47.1431 98.412C47.1431 98.046 47.2151 97.698 47.3591 97.368C47.5091 97.038 47.7251 96.747 48.0071 96.495C48.2951 96.243 48.6461 96.045 49.0601 95.901C49.4801 95.751 49.9631 95.676 50.5091 95.676C51.1271 95.676 51.6881 95.775 52.1921 95.973C52.6961 96.171 53.1191 96.441 53.4611 96.783L53.0291 97.485ZM60.8866 97.485C60.8386 97.569 60.7846 97.629 60.7246 97.665C60.6646 97.701 60.5896 97.719 60.4996 97.719C60.3976 97.719 60.2866 97.689 60.1666 97.629C60.0466 97.563 59.9056 97.491 59.7436 97.413C59.5816 97.335 59.3896 97.266 59.1676 97.206C58.9516 97.14 58.6966 97.107 58.4026 97.107C58.1626 97.107 57.9436 97.137 57.7456 97.197C57.5536 97.251 57.3886 97.332 57.2506 97.44C57.1186 97.542 57.0166 97.665 56.9446 97.809C56.8726 97.947 56.8366 98.097 56.8366 98.259C56.8366 98.475 56.9026 98.655 57.0346 98.799C57.1666 98.943 57.3406 99.069 57.5566 99.177C57.7726 99.279 58.0186 99.372 58.2946 99.456C58.5706 99.54 58.8526 99.63 59.1406 99.726C59.4286 99.822 59.7106 99.933 59.9866 100.059C60.2626 100.185 60.5086 100.341 60.7246 100.527C60.9406 100.707 61.1146 100.929 61.2466 101.193C61.3786 101.451 61.4446 101.766 61.4446 102.138C61.4446 102.57 61.3666 102.969 61.2106 103.335C61.0546 103.701 60.8266 104.019 60.5266 104.289C60.2266 104.559 59.8516 104.769 59.4016 104.919C58.9576 105.069 58.4476 105.144 57.8716 105.144C57.5536 105.144 57.2446 105.114 56.9446 105.054C56.6506 105 56.3686 104.925 56.0986 104.829C55.8346 104.727 55.5856 104.607 55.3516 104.469C55.1236 104.331 54.9196 104.181 54.7396 104.019L55.1896 103.281C55.2436 103.191 55.3096 103.122 55.3876 103.074C55.4716 103.02 55.5736 102.993 55.6936 102.993C55.8196 102.993 55.9426 103.035 56.0626 103.119C56.1886 103.197 56.3326 103.284 56.4946 103.38C56.6626 103.476 56.8636 103.566 57.0976 103.65C57.3316 103.728 57.6226 103.767 57.9706 103.767C58.2586 103.767 58.5076 103.734 58.7176 103.668C58.9276 103.596 59.1016 103.5 59.2396 103.38C59.3776 103.26 59.4796 103.125 59.5456 102.975C59.6116 102.819 59.6446 102.654 59.6446 102.48C59.6446 102.246 59.5786 102.054 59.4466 101.904C59.3146 101.754 59.1376 101.625 58.9156 101.517C58.6996 101.409 58.4506 101.313 58.1686 101.229C57.8926 101.145 57.6106 101.055 57.3226 100.959C57.0346 100.863 56.7496 100.752 56.4676 100.626C56.1916 100.5 55.9426 100.341 55.7206 100.149C55.5046 99.951 55.3306 99.714 55.1986 99.438C55.0666 99.156 55.0006 98.814 55.0006 98.412C55.0006 98.046 55.0726 97.698 55.2166 97.368C55.3666 97.038 55.5826 96.747 55.8646 96.495C56.1526 96.243 56.5036 96.045 56.9176 95.901C57.3376 95.751 57.8206 95.676 58.3666 95.676C58.9846 95.676 59.5456 95.775 60.0496 95.973C60.5536 96.171 60.9766 96.441 61.3186 96.783L60.8866 97.485ZM63.884 105V97.359L62.984 97.233C62.834 97.203 62.711 97.149 62.615 97.071C62.525 96.993 62.48 96.882 62.48 96.738V95.946H63.884V95.172C63.884 94.65 63.959 94.182 64.109 93.768C64.265 93.354 64.484 93.003 64.766 92.715C65.054 92.427 65.402 92.208 65.81 92.058C66.218 91.902 66.677 91.824 67.187 91.824C67.397 91.824 67.595 91.839 67.781 91.869C67.973 91.899 68.159 91.944 68.339 92.004L68.303 92.976C68.291 93.138 68.21 93.234 68.06 93.264C67.916 93.294 67.733 93.309 67.511 93.309C67.241 93.309 66.998 93.342 66.782 93.408C66.566 93.468 66.38 93.573 66.224 93.723C66.074 93.873 65.957 94.071 65.873 94.317C65.795 94.563 65.756 94.869 65.756 95.235V95.946H68.267V97.341H65.819V105H63.884ZM77.3838 95.82V105H76.2138C75.9558 105 75.7908 104.877 75.7188 104.631L75.5748 103.776C75.3828 103.98 75.1788 104.166 74.9628 104.334C74.7528 104.502 74.5278 104.646 74.2878 104.766C74.0478 104.886 73.7898 104.979 73.5138 105.045C73.2438 105.111 72.9528 105.144 72.6408 105.144C72.1368 105.144 71.6928 105.06 71.3088 104.892C70.9248 104.724 70.6008 104.487 70.3368 104.181C70.0788 103.875 69.8838 103.509 69.7518 103.083C69.6198 102.651 69.5538 102.177 69.5538 101.661V95.82H71.4888V101.661C71.4888 102.279 71.6298 102.759 71.9118 103.101C72.1998 103.443 72.6348 103.614 73.2168 103.614C73.6428 103.614 74.0388 103.518 74.4048 103.326C74.7768 103.128 75.1248 102.858 75.4488 102.516V95.82H77.3838ZM81.7047 91.68V105H79.7697V91.68H81.7047Z" fill="black"/>
<defs>
<filter id="filter0_d_125_1406" x="33.7305" y="0" width="26.3457" height="26.3461" filterUnits="userSpaceOnUse" color-interpolation-filters="sRGB">
<feFlood flood-opacity="0" result="BackgroundImageFix"/>
<feColorMatrix in="SourceAlpha" type="matrix" values="0 0 0 0 0 0 0 0 0 0 0 0 0 0 0 0 0 0 127 0" result="hardAlpha"/>
<feOffset/>
<feGaussianBlur stdDeviation="5"/>
<feComposite in2="hardAlpha" operator="out"/>
<feColorMatrix type="matrix" values="0 0 0 0 0.968627 0 0 0 0 0.576471 0 0 0 0 0.101961 0 0 0 1 0"/>
<feBlend mode="normal" in2="BackgroundImageFix" result="effect1_dropShadow_125_1406"/>
<feBlend mode="normal" in="SourceGraphic" in2="effect1_dropShadow_125_1406" result="shape"/>
</filter>
<filter id="filter1_d_125_1406" x="56.4043" y="60.4039" width="14.3457" height="14.3461" filterUnits="userSpaceOnUse" color-interpolation-filters="sRGB">
<feFlood flood-opacity="0" result="BackgroundImageFix"/>
<feColorMatrix in="SourceAlpha" type="matrix" values="0 0 0 0 0 0 0 0 0 0 0 0 0 0 0 0 0 0 127 0" result="hardAlpha"/>
<feOffset dy="4"/>
<feGaussianBlur stdDeviation="2"/>
<feComposite in2="hardAlpha" operator="out"/>
<feColorMatrix type="matrix" values="0 0 0 0 0.968627 0 0 0 0 0.576471 0 0 0 0 0.101961 0 0 0 0.2 0"/>
<feBlend mode="normal" in2="BackgroundImageFix" result="effect1_dropShadow_125_1406"/>
<feBlend mode="normal" in="SourceGraphic" in2="effect1_dropShadow_125_1406" result="shape"/>
</filter>
<filter id="filter2_f_125_1406" x="48.4043" y="48.4039" width="30.3457" height="30.3461" filterUnits="userSpaceOnUse" color-interpolation-filters="sRGB">
<feFlood flood-opacity="0" result="BackgroundImageFix"/>
<feBlend mode="normal" in="SourceGraphic" in2="BackgroundImageFix" result="shape"/>
<feGaussianBlur stdDeviation="6" result="effect1_foregroundBlur_125_1406"/>
</filter>
<filter id="filter3_d_125_1406" x="1" y="40.9808" width="22.3457" height="22.3461" filterUnits="userSpaceOnUse" color-interpolation-filters="sRGB">
<feFlood flood-opacity="0" result="BackgroundImageFix"/>
<feColorMatrix in="SourceAlpha" type="matrix" values="0 0 0 0 0 0 0 0 0 0 0 0 0 0 0 0 0 0 127 0" result="hardAlpha"/>
<feOffset/>
<feGaussianBlur stdDeviation="4"/>
<feComposite in2="hardAlpha" operator="out"/>
<feColorMatrix type="matrix" values="0 0 0 0 0.968627 0 0 0 0 0.576471 0 0 0 0 0.101961 0 0 0 0.4 0"/>
<feBlend mode="normal" in2="BackgroundImageFix" result="effect1_dropShadow_125_1406"/>
<feBlend mode="normal" in="SourceGraphic" in2="effect1_dropShadow_125_1406" result="shape"/>
</filter>
</defs>
</svg>
