<svg width="34" height="47" viewBox="0 0 34 47" fill="none" xmlns="http://www.w3.org/2000/svg">
<path d="M6.83551 34.586C6.78884 34.6654 6.73984 34.7237 6.68851 34.761C6.63717 34.7984 6.57184 34.817 6.49251 34.817C6.40851 34.817 6.31284 34.7797 6.20551 34.705C6.09817 34.6257 5.96284 34.5394 5.79951 34.446C5.64084 34.348 5.44951 34.2617 5.22551 34.187C5.00151 34.1077 4.73317 34.068 4.42051 34.068C4.12651 34.068 3.86751 34.1077 3.64351 34.187C3.42417 34.2617 3.23984 34.3667 3.09051 34.502C2.94117 34.6327 2.82684 34.789 2.74751 34.971C2.67284 35.1484 2.63551 35.342 2.63551 35.552C2.63551 35.8227 2.70317 36.0467 2.83851 36.224C2.97851 36.4014 3.16051 36.553 3.38451 36.679C3.60851 36.805 3.86284 36.9147 4.14751 37.008C4.43217 37.1014 4.72384 37.1994 5.02251 37.302C5.32117 37.4 5.61284 37.5144 5.89751 37.645C6.18217 37.7757 6.43651 37.9414 6.66051 38.142C6.88451 38.338 7.06417 38.5807 7.19951 38.87C7.33951 39.1547 7.40951 39.5047 7.40951 39.92C7.40951 40.3634 7.33251 40.7787 7.17851 41.166C7.02917 41.5534 6.80984 41.8917 6.52051 42.181C6.23117 42.4704 5.87417 42.699 5.44951 42.867C5.02951 43.0304 4.55117 43.112 4.01451 43.112C3.69251 43.112 3.37984 43.0794 3.07651 43.014C2.77317 42.9534 2.48617 42.867 2.21551 42.755C1.94484 42.6384 1.69051 42.5007 1.45251 42.342C1.21917 42.1787 1.00917 41.9967 0.822508 41.796L1.24951 41.082C1.29151 41.026 1.34051 40.9794 1.39651 40.942C1.45717 40.9047 1.52484 40.886 1.59951 40.886C1.69751 40.886 1.80951 40.9374 1.93551 41.04C2.06617 41.1427 2.22484 41.257 2.41151 41.383C2.60284 41.5044 2.82917 41.6164 3.09051 41.719C3.35651 41.8217 3.67851 41.873 4.05651 41.873C4.36451 41.873 4.63984 41.8334 4.88251 41.754C5.12517 41.67 5.32817 41.5534 5.49151 41.404C5.65951 41.25 5.78784 41.0657 5.87651 40.851C5.96517 40.6364 6.00951 40.3984 6.00951 40.137C6.00951 39.843 5.94184 39.6027 5.80651 39.416C5.67117 39.2294 5.49151 39.073 5.26751 38.947C5.04351 38.821 4.78917 38.7137 4.50451 38.625C4.21984 38.5364 3.92817 38.4454 3.62951 38.352C3.33084 38.254 3.03917 38.142 2.75451 38.016C2.46984 37.89 2.21551 37.7267 1.99151 37.526C1.76751 37.3207 1.58784 37.0664 1.45251 36.763C1.31717 36.455 1.24951 36.077 1.24951 35.629C1.24951 35.2697 1.31951 34.922 1.45951 34.586C1.59951 34.25 1.80251 33.9537 2.06851 33.697C2.33917 33.4357 2.67051 33.228 3.06251 33.074C3.45451 32.9154 3.90251 32.836 4.40651 32.836C4.97117 32.836 5.48917 32.927 5.96051 33.109C6.43651 33.2864 6.84951 33.543 7.19951 33.879L6.83551 34.586ZM18.6283 35.888L16.3393 43H15.2473C15.1167 43 15.028 42.9137 14.9813 42.741L13.4833 38.107C13.446 37.9904 13.4133 37.876 13.3853 37.764C13.3573 37.6474 13.3317 37.5307 13.3083 37.414C13.2663 37.6567 13.208 37.8924 13.1333 38.121L11.6143 42.741C11.5677 42.9137 11.4673 43 11.3133 43H10.2773L7.98132 35.888H9.05932C9.16665 35.888 9.25532 35.9137 9.32532 35.965C9.39999 36.0164 9.44899 36.0817 9.47232 36.161L10.7533 40.529C10.7953 40.7064 10.8327 40.879 10.8653 41.047C10.898 41.215 10.9283 41.383 10.9563 41.551C10.9983 41.383 11.0427 41.215 11.0893 41.047C11.1407 40.879 11.192 40.7064 11.2433 40.529L12.6643 36.133C12.6877 36.0537 12.732 35.9907 12.7973 35.944C12.8627 35.8927 12.942 35.867 13.0353 35.867H13.6303C13.733 35.867 13.817 35.8927 13.8823 35.944C13.9523 35.9907 13.999 36.0537 14.0223 36.133L15.4083 40.529C15.4597 40.7064 15.5087 40.8814 15.5553 41.054C15.602 41.222 15.644 41.3924 15.6813 41.565C15.7093 41.397 15.742 41.229 15.7793 41.061C15.8167 40.8884 15.8587 40.711 15.9053 40.529L17.2073 36.161C17.2307 36.0817 17.2773 36.0164 17.3473 35.965C17.422 35.9137 17.506 35.888 17.5993 35.888H18.6283ZM23.5242 39.843C22.9688 39.8617 22.4975 39.906 22.1102 39.976C21.7228 40.0414 21.4078 40.13 21.1652 40.242C20.9225 40.354 20.7475 40.487 20.6402 40.641C20.5328 40.7904 20.4792 40.9584 20.4792 41.145C20.4792 41.3224 20.5072 41.4764 20.5632 41.607C20.6238 41.733 20.7032 41.838 20.8012 41.922C20.9038 42.0014 21.0228 42.0597 21.1582 42.097C21.2935 42.1344 21.4405 42.153 21.5992 42.153C21.8092 42.153 22.0005 42.132 22.1732 42.09C22.3505 42.048 22.5162 41.9897 22.6702 41.915C22.8242 41.8357 22.9712 41.74 23.1112 41.628C23.2512 41.516 23.3888 41.3877 23.5242 41.243V39.843ZM19.5202 36.882C19.9168 36.504 20.3462 36.2217 20.8082 36.035C21.2748 35.8484 21.7858 35.755 22.3412 35.755C22.7472 35.755 23.1065 35.8227 23.4192 35.958C23.7318 36.0887 23.9955 36.273 24.2102 36.511C24.4248 36.749 24.5858 37.0337 24.6932 37.365C24.8052 37.6964 24.8612 38.0627 24.8612 38.464V43H24.2522C24.1168 43 24.0142 42.979 23.9442 42.937C23.8742 42.8904 23.8182 42.8064 23.7762 42.685L23.6292 42.062C23.4472 42.23 23.2675 42.3794 23.0902 42.51C22.9128 42.636 22.7262 42.7457 22.5302 42.839C22.3388 42.9277 22.1335 42.9954 21.9142 43.042C21.6948 43.0887 21.4522 43.112 21.1862 43.112C20.9062 43.112 20.6425 43.0747 20.3952 43C20.1525 42.9207 19.9402 42.8017 19.7582 42.643C19.5762 42.4844 19.4315 42.286 19.3242 42.048C19.2215 41.81 19.1702 41.5324 19.1702 41.215C19.1702 40.935 19.2448 40.6667 19.3942 40.41C19.5482 40.1487 19.7955 39.9154 20.1362 39.71C20.4815 39.5047 20.9295 39.3367 21.4802 39.206C22.0355 39.0754 22.7168 39.0007 23.5242 38.982V38.464C23.5242 37.9274 23.4098 37.526 23.1812 37.26C22.9525 36.994 22.6165 36.861 22.1732 36.861C21.8745 36.861 21.6225 36.8984 21.4172 36.973C21.2165 37.0477 21.0415 37.1317 20.8922 37.225C20.7475 37.3137 20.6192 37.3954 20.5072 37.47C20.3998 37.5447 20.2878 37.582 20.1712 37.582C20.0778 37.582 19.9962 37.5564 19.9262 37.505C19.8608 37.4537 19.8072 37.393 19.7652 37.323L19.5202 36.882ZM28.0535 41.25C28.2775 41.544 28.5178 41.7494 28.7745 41.866C29.0358 41.9827 29.3275 42.041 29.6495 42.041C30.2748 42.041 30.7578 41.817 31.0985 41.369C31.4438 40.9164 31.6165 40.2584 31.6165 39.395C31.6165 38.9424 31.5768 38.5574 31.4975 38.24C31.4228 37.918 31.3108 37.6567 31.1615 37.456C31.0168 37.2507 30.8372 37.1014 30.6225 37.008C30.4078 36.91 30.1652 36.861 29.8945 36.861C29.4978 36.861 29.1525 36.9497 28.8585 37.127C28.5692 37.3044 28.3008 37.5564 28.0535 37.883V41.25ZM27.9835 36.952C28.1328 36.7747 28.2915 36.6137 28.4595 36.469C28.6322 36.3197 28.8165 36.1937 29.0125 36.091C29.2085 35.9837 29.4162 35.902 29.6355 35.846C29.8595 35.7854 30.0975 35.755 30.3495 35.755C30.7555 35.755 31.1218 35.8344 31.4485 35.993C31.7798 36.1517 32.0622 36.385 32.2955 36.693C32.5288 37.001 32.7085 37.3814 32.8345 37.834C32.9652 38.2867 33.0305 38.807 33.0305 39.395C33.0305 39.9224 32.9582 40.4124 32.8135 40.865C32.6735 41.313 32.4705 41.7027 32.2045 42.034C31.9432 42.3654 31.6212 42.6267 31.2385 42.818C30.8605 43.0047 30.4335 43.098 29.9575 43.098C29.5328 43.098 29.1688 43.028 28.8655 42.888C28.5622 42.748 28.2915 42.552 28.0535 42.3V45.387H26.6885V35.888H27.5075C27.6988 35.888 27.8178 35.979 27.8645 36.161L27.9835 36.952Z" fill="black"/>
<path d="M23.2881 18.3138C23.208 18.2264 23.1613 18.1713 23.1104 18.1203C22.5848 17.5947 22.0604 17.0701 21.5372 16.5465C21.1927 16.2008 21.1733 15.7678 21.4844 15.4615C21.7816 15.1686 22.228 15.1874 22.5561 15.5137C23.5543 16.5059 24.551 17.4997 25.546 18.4951C25.8711 18.8202 25.8814 19.2447 25.563 19.5643C24.5522 20.5772 23.5392 21.5867 22.5239 22.5931C22.2613 22.8533 21.8968 22.8963 21.6094 22.7144C21.469 22.6293 21.3625 22.4981 21.3082 22.3433C21.2539 22.1884 21.2551 22.0194 21.3116 21.8653C21.3689 21.7342 21.4513 21.6155 21.5542 21.516C22.0575 21.0029 22.5676 20.4965 23.0776 19.9895C23.1395 19.9345 23.2043 19.8829 23.2717 19.8348L23.2426 19.7675H22.9867C19.2265 19.7675 15.4649 19.7675 11.7019 19.7675C9.95103 19.7675 8.51064 18.6413 8.11401 16.9668C8.05161 16.7017 8.01866 16.4306 8.01576 16.1584C8.00423 15.0994 8.00605 14.0399 8.01212 12.9804C8.01515 12.4146 8.48942 12.0586 8.98248 12.2357C9.28572 12.3436 9.45917 12.6086 9.45978 12.9834C9.45978 14.0047 9.45978 15.0267 9.45978 16.048C9.45978 16.9001 9.80851 17.5678 10.546 18.0148C10.9184 18.241 11.3296 18.318 11.762 18.318C14.3577 18.3156 16.9536 18.3156 19.5498 18.318H23.2881V18.3138Z" fill="black"/>
<path d="M10.561 5.05556H10.8036C13.1273 5.05556 15.4505 5.05556 17.7733 5.05556C18.2354 5.05556 18.5617 5.33454 18.5799 5.74028C18.5861 5.83678 18.5728 5.93354 18.5408 6.02479C18.5088 6.11604 18.4587 6.19989 18.3936 6.27134C18.3284 6.34279 18.2495 6.40036 18.1616 6.44062C18.0736 6.48088 17.9785 6.503 17.8818 6.50565C17.6477 6.51414 17.413 6.50565 17.1783 6.50565H10.5125C10.5798 6.58207 10.6193 6.63241 10.6641 6.67789C11.1991 7.21361 11.7344 7.74853 12.2701 8.28263C12.446 8.45791 12.5503 8.66108 12.5212 8.91155C12.5127 9.04506 12.4652 9.17314 12.3845 9.27988C12.3039 9.38662 12.1937 9.46732 12.0675 9.51196C11.9447 9.564 11.8096 9.58023 11.6779 9.55876C11.5463 9.5373 11.4234 9.47902 11.3234 9.39067C11.2712 9.347 11.2245 9.29666 11.1766 9.24875L8.25158 6.33038C7.92105 6.00046 7.91498 5.57046 8.24066 5.24539C9.24216 4.24511 10.2441 3.24583 11.2464 2.24757C11.4714 2.02257 11.7315 1.94433 12.0348 2.04015C12.3198 2.13173 12.4818 2.34339 12.52 2.63935C12.5545 2.89953 12.446 3.10877 12.2646 3.2895C11.7495 3.80177 11.2355 4.31505 10.7224 4.82935C10.6617 4.88999 10.595 4.93669 10.5313 4.99006L10.561 5.05556Z" fill="black"/>
<path d="M25.7834 10.1991C25.7834 10.7589 25.7889 11.3187 25.7834 11.8784C25.778 12.2423 25.5821 12.4995 25.2661 12.5971C24.9671 12.6899 24.6342 12.5935 24.4722 12.3181C24.3858 12.1613 24.3399 11.9853 24.3388 11.8063C24.3267 10.8007 24.3388 9.79458 24.3321 8.78843C24.3273 7.74771 23.7699 6.93321 22.8457 6.63119C22.6288 6.56539 22.4048 6.52589 22.1785 6.51353C21.7182 6.48078 21.4125 6.18179 21.4283 5.74998C21.4435 5.33696 21.7679 5.05374 22.2222 5.05677C24.1763 5.07254 25.7531 6.68395 25.7834 8.7017C25.7901 9.20084 25.7834 9.70179 25.7834 10.1991Z" fill="black"/>
</svg>
