<svg width="24" height="24" viewBox="0 0 24 24" fill="none" xmlns="http://www.w3.org/2000/svg">
<g clip-path="url(#clip0_55_580)">
<path d="M19.1999 6.72C19.1999 6.72 7.00934 6.72 4.7999 6.72C3.32342 6.72 2.3999 8.16 2.3999 9.12V19.3843C2.3999 20.6083 3.39158 21.6 4.61558 21.6H19.3842C20.6077 21.6 21.5999 20.6083 21.5999 19.3843V9.04608C21.5999 7.82352 20.4234 6.72 19.1999 6.72Z" stroke="white" stroke-width="1.5" stroke-miterlimit="10" stroke-linecap="round" stroke-linejoin="round"/>
<path d="M17.7599 5.28001V3.67585C17.7599 2.07697 17.4148 1.61569 15.4309 2.13889C13.9737 2.52337 5.44646 4.88737 5.44646 4.88737C2.82038 5.87713 2.41958 6.71953 2.41958 8.63905L2.3999 9.81745" stroke="white" stroke-width="1.5" stroke-miterlimit="10" stroke-linejoin="round"/>
<path d="M18.481 15.36C17.8181 15.36 17.28 14.8234 17.28 14.1605C17.28 13.4976 17.8181 12.96 18.481 12.96C19.1419 12.96 19.68 13.4976 19.68 14.1605C19.68 14.8234 19.1419 15.36 18.481 15.36Z" fill="white"/>
</g>
<defs>
<clipPath id="clip0_55_580">
<rect width="24" height="24" fill="white"/>
</clipPath>
</defs>
</svg>
