<svg width="81" height="60" viewBox="0 0 81 60" fill="none" xmlns="http://www.w3.org/2000/svg">
<rect width="81" height="60" rx="30" fill="white"/>
<path d="M41.1419 22.6992C41.0644 22.7001 40.9875 22.6856 40.9156 22.6565C40.8436 22.6275 40.7781 22.5844 40.7227 22.5299C40.6673 22.4754 40.6231 22.4104 40.5927 22.3387C40.5623 22.267 40.5462 22.19 40.5453 22.112C40.5453 19.84 42.4162 18.0001 44.7198 18.0001C44.7974 17.999 44.8744 18.0134 44.9464 18.0423C45.0185 18.0713 45.0841 18.1143 45.1395 18.1689C45.195 18.2235 45.2391 18.2885 45.2695 18.3603C45.2998 18.4321 45.3158 18.5092 45.3164 18.5873C45.3164 20.8592 43.4471 22.6992 41.1419 22.6992ZM49.852 35.0688C50.0827 35.2384 50.1575 35.5488 50.027 35.8016C47.9271 39.9392 46.2519 42 44.7214 42C44.0087 42 43.3087 41.7728 42.6262 41.3312C42.1364 41.0149 41.5691 40.8409 40.9871 40.8285C40.4051 40.8161 39.8311 40.9657 39.3283 41.2608C38.501 41.7488 37.7136 42 36.9658 42C34.7147 42 31 35.1728 31 31.4272C31 27.4272 33.1302 24.3776 36.3693 24.3776C37.8933 24.3776 39.209 24.5984 40.3147 25.048C40.7824 25.2368 41.3121 25.224 41.7687 25.008C42.666 24.5824 43.8496 24.3776 45.3164 24.3776C47.1093 24.3776 48.6732 25.2576 49.9714 26.9616C50.0183 27.0231 50.0525 27.0934 50.072 27.1684C50.0914 27.2434 50.0957 27.3215 50.0846 27.3982C50.0735 27.4749 50.0472 27.5486 50.0072 27.6148C49.9673 27.6811 49.9145 27.7386 49.852 27.784C48.4027 28.856 47.7043 30.0576 47.7043 31.4272C47.7043 32.7952 48.4027 33.9984 49.852 35.0688Z" fill="black"/>
<path d="M49.852 35.1348C50.0827 35.3028 50.1575 35.6102 50.027 35.8606C47.9271 39.9588 46.2519 42 44.7214 42C44.0087 42 43.3087 41.775 42.6262 41.3376C42.1364 41.0243 41.5691 40.852 40.9871 40.8397C40.4051 40.8273 39.8311 40.9755 39.3283 41.2678C38.501 41.7512 37.7136 42 36.9658 42C34.7147 42 31 35.2378 31 31.5279C31 27.566 33.1302 24.5454 36.3693 24.5454C37.8933 24.5454 39.209 24.7641 40.3147 25.2095C40.7824 25.3965 41.3121 25.3838 41.7687 25.1698C42.666 24.7483 43.8496 24.5454 45.3164 24.5454C47.1093 24.5454 48.6732 25.4171 49.9714 27.1048C50.0183 27.1657 50.0525 27.2353 50.072 27.3096C50.0914 27.3839 50.0957 27.4613 50.0846 27.5372C50.0735 27.6132 50.0472 27.6862 50.0072 27.7518C49.9673 27.8174 49.9145 27.8744 49.852 27.9194C48.4027 28.9812 47.7043 30.1713 47.7043 31.5279C47.7043 32.8829 48.4027 34.0746 49.852 35.1348Z" fill="black"/>
</svg>
