<svg width="38" height="24" viewBox="0 0 38 24" fill="none" xmlns="http://www.w3.org/2000/svg">
<path d="M0 5C0 2.23858 2.23858 0 5 0H33C35.7614 0 38 2.23858 38 5V19C38 21.7614 35.7614 24 33 24H5C2.23858 24 0 21.7614 0 19V5Z" fill="#F3E2CC"/>
<path d="M21.3332 5.58334H14.3332C13.6915 5.58334 13.1665 6.10834 13.1665 6.75001V14.9167H14.3332V6.75001H21.3332V5.58334ZM23.0832 7.91667H16.6665C16.0248 7.91667 15.4998 8.44167 15.4998 9.08334V17.25C15.4998 17.8917 16.0248 18.4167 16.6665 18.4167H23.0832C23.7248 18.4167 24.2498 17.8917 24.2498 17.25V9.08334C24.2498 8.44167 23.7248 7.91667 23.0832 7.91667ZM23.0832 17.25H16.6665V9.08334H23.0832V17.25Z" fill="black"/>
</svg>
