<svg width="187" height="24" viewBox="0 0 187 24" fill="none" xmlns="http://www.w3.org/2000/svg">
<path d="M23.7666 9.6498H22.8V9.6H12V14.4H18.7818C17.7924 17.1942 15.1338 19.2 12 19.2C8.0238 19.2 4.8 15.9762 4.8 12C4.8 8.0238 8.0238 4.8 12 4.8C13.8354 4.8 15.5052 5.4924 16.7766 6.6234L20.1708 3.2292C18.0276 1.2318 15.1608 0 12 0C5.373 0 0 5.373 0 12C0 18.627 5.373 24 12 24C18.627 24 24 18.627 24 12C24 11.1954 23.9172 10.41 23.7666 9.6498Z" fill="#FFC107"/>
<path d="M1.38281 6.4146L5.32541 9.306C6.39221 6.6648 8.97581 4.8 11.9992 4.8C13.8346 4.8 15.5044 5.4924 16.7758 6.6234L20.17 3.2292C18.0268 1.2318 15.16 0 11.9992 0C7.39001 0 3.39281 2.6022 1.38281 6.4146Z" fill="#FF3D00"/>
<path d="M11.9994 24C15.099 24 17.9154 22.8138 20.0448 20.8848L16.3308 17.742C15.0855 18.689 13.5639 19.2012 11.9994 19.2C8.8782 19.2 6.228 17.2098 5.2296 14.4324L1.31641 17.4474C3.30241 21.3336 7.3356 24 11.9994 24Z" fill="#4CAF50"/>
<path d="M23.7666 9.64981H22.8V9.60001H12V14.4H18.7818C18.3085 15.7299 17.456 16.8919 16.3296 17.7426L16.3314 17.7414L20.0454 20.8842C19.7826 21.123 24 18 24 12C24 11.1954 23.9172 10.41 23.7666 9.64981Z" fill="#1976D2"/>
<path d="M43.472 15.632C43.5573 15.632 43.6347 15.6667 43.704 15.736L44.312 16.4C43.8427 16.944 43.272 17.368 42.6 17.672C41.9333 17.976 41.128 18.128 40.184 18.128C39.3573 18.128 38.608 17.9867 37.936 17.704C37.264 17.416 36.6907 17.016 36.216 16.504C35.7413 15.9867 35.3733 15.368 35.112 14.648C34.8507 13.928 34.72 13.136 34.72 12.272C34.72 11.408 34.8587 10.616 35.136 9.896C35.4187 9.176 35.8133 8.55733 36.32 8.04C36.8267 7.52267 37.432 7.12267 38.136 6.84C38.8453 6.552 39.6267 6.408 40.48 6.408C41.3227 6.408 42.048 6.53867 42.656 6.8C43.2693 7.06133 43.8133 7.416 44.288 7.864L43.784 8.576C43.7467 8.62933 43.704 8.67467 43.656 8.712C43.608 8.744 43.5387 8.76 43.448 8.76C43.3787 8.76 43.304 8.736 43.224 8.688C43.1493 8.63467 43.0587 8.57067 42.952 8.496C42.8453 8.42133 42.72 8.34133 42.576 8.256C42.432 8.17067 42.2613 8.09067 42.064 8.016C41.8667 7.94133 41.6373 7.88 41.376 7.832C41.1147 7.77867 40.8133 7.752 40.472 7.752C39.8587 7.752 39.296 7.85867 38.784 8.072C38.2773 8.28 37.84 8.57867 37.472 8.968C37.104 9.35733 36.816 9.832 36.608 10.392C36.4053 10.952 36.304 11.5787 36.304 12.272C36.304 12.9867 36.4053 13.624 36.608 14.184C36.816 14.744 37.096 15.2187 37.448 15.608C37.8053 15.992 38.2267 16.2853 38.712 16.488C39.1973 16.6907 39.72 16.792 40.28 16.792C40.6213 16.792 40.928 16.7733 41.2 16.736C41.472 16.6933 41.7227 16.6293 41.952 16.544C42.1867 16.4587 42.4027 16.352 42.6 16.224C42.8027 16.0907 43.0053 15.9333 43.208 15.752C43.2987 15.672 43.3867 15.632 43.472 15.632ZM49.4011 9.768C49.9931 9.768 50.5265 9.86667 51.0011 10.064C51.4811 10.2613 51.8865 10.5413 52.2171 10.904C52.5531 11.2667 52.8091 11.7067 52.9851 12.224C53.1665 12.736 53.2571 13.3093 53.2571 13.944C53.2571 14.584 53.1665 15.16 52.9851 15.672C52.8091 16.184 52.5531 16.6213 52.2171 16.984C51.8865 17.3467 51.4811 17.6267 51.0011 17.824C50.5265 18.016 49.9931 18.112 49.4011 18.112C48.8091 18.112 48.2731 18.016 47.7931 17.824C47.3185 17.6267 46.9131 17.3467 46.5771 16.984C46.2411 16.6213 45.9825 16.184 45.8011 15.672C45.6198 15.16 45.5291 14.584 45.5291 13.944C45.5291 13.3093 45.6198 12.736 45.8011 12.224C45.9825 11.7067 46.2411 11.2667 46.5771 10.904C46.9131 10.5413 47.3185 10.2613 47.7931 10.064C48.2731 9.86667 48.8091 9.768 49.4011 9.768ZM49.4011 17C50.2011 17 50.7985 16.7333 51.1931 16.2C51.5878 15.6613 51.7851 14.912 51.7851 13.952C51.7851 12.9867 51.5878 12.2347 51.1931 11.696C50.7985 11.1573 50.2011 10.888 49.4011 10.888C48.9958 10.888 48.6438 10.9573 48.3451 11.096C48.0465 11.2347 47.7958 11.4347 47.5931 11.696C47.3958 11.9573 47.2465 12.28 47.1451 12.664C47.0491 13.0427 47.0011 13.472 47.0011 13.952C47.0011 14.432 47.0491 14.8613 47.1451 15.24C47.2465 15.6187 47.3958 15.9387 47.5931 16.2C47.7958 16.456 48.0465 16.6533 48.3451 16.792C48.6438 16.9307 48.9958 17 49.4011 17ZM55.0118 18V9.896H55.8598C56.0624 9.896 56.1904 9.99467 56.2438 10.192L56.3558 11.072C56.7078 10.6827 57.0998 10.368 57.5318 10.128C57.9691 9.888 58.4731 9.768 59.0438 9.768C59.4864 9.768 59.8758 9.84267 60.2118 9.992C60.5531 10.136 60.8358 10.344 61.0598 10.616C61.2891 10.8827 61.4624 11.2053 61.5798 11.584C61.6971 11.9627 61.7558 12.3813 61.7558 12.84V18H60.3318V12.84C60.3318 12.2267 60.1904 11.752 59.9078 11.416C59.6304 11.0747 59.2038 10.904 58.6278 10.904C58.2064 10.904 57.8118 11.0053 57.4438 11.208C57.0811 11.4107 56.7451 11.6853 56.4358 12.032V18H55.0118ZM66.3584 18.128C65.7184 18.128 65.225 17.9493 64.8784 17.592C64.537 17.2347 64.3664 16.72 64.3664 16.048V11.088H63.3904C63.305 11.088 63.233 11.064 63.1744 11.016C63.1157 10.9627 63.0864 10.8827 63.0864 10.776V10.208L64.4144 10.04L64.7424 7.536C64.753 7.456 64.7877 7.392 64.8464 7.344C64.905 7.29067 64.9797 7.264 65.0704 7.264H65.7904V10.056H68.1104V11.088H65.7904V15.952C65.7904 16.2933 65.873 16.5467 66.0384 16.712C66.2037 16.8773 66.417 16.96 66.6784 16.96C66.8277 16.96 66.9557 16.9413 67.0624 16.904C67.1744 16.8613 67.2704 16.816 67.3504 16.768C67.4304 16.72 67.497 16.6773 67.5504 16.64C67.609 16.5973 67.6597 16.576 67.7024 16.576C67.777 16.576 67.8437 16.6213 67.9024 16.712L68.3184 17.392C68.073 17.6213 67.777 17.8027 67.4304 17.936C67.0837 18.064 66.7264 18.128 66.3584 18.128ZM71.4551 9.896V18H70.0311V9.896H71.4551ZM71.7751 7.352C71.7751 7.49067 71.7458 7.62133 71.6871 7.744C71.6338 7.86133 71.5591 7.968 71.4631 8.064C71.3725 8.15467 71.2658 8.22667 71.1431 8.28C71.0205 8.33333 70.8898 8.36 70.7511 8.36C70.6125 8.36 70.4818 8.33333 70.3591 8.28C70.2418 8.22667 70.1351 8.15467 70.0391 8.064C69.9485 7.968 69.8765 7.86133 69.8231 7.744C69.7698 7.62133 69.7431 7.49067 69.7431 7.352C69.7431 7.21333 69.7698 7.08267 69.8231 6.96C69.8765 6.832 69.9485 6.72267 70.0391 6.632C70.1351 6.536 70.2418 6.46133 70.3591 6.408C70.4818 6.35467 70.6125 6.328 70.7511 6.328C70.8898 6.328 71.0205 6.35467 71.1431 6.408C71.2658 6.46133 71.3725 6.536 71.4631 6.632C71.5591 6.72267 71.6338 6.832 71.6871 6.96C71.7458 7.08267 71.7751 7.21333 71.7751 7.352ZM73.9649 18V9.896H74.8129C75.0155 9.896 75.1435 9.99467 75.1969 10.192L75.3089 11.072C75.6609 10.6827 76.0529 10.368 76.4849 10.128C76.9222 9.888 77.4262 9.768 77.9969 9.768C78.4395 9.768 78.8289 9.84267 79.1649 9.992C79.5062 10.136 79.7889 10.344 80.0129 10.616C80.2422 10.8827 80.4155 11.2053 80.5329 11.584C80.6502 11.9627 80.7089 12.3813 80.7089 12.84V18H79.2849V12.84C79.2849 12.2267 79.1435 11.752 78.8609 11.416C78.5835 11.0747 78.1569 10.904 77.5809 10.904C77.1595 10.904 76.7649 11.0053 76.3969 11.208C76.0342 11.4107 75.6982 11.6853 75.3889 12.032V18H73.9649ZM84.0875 9.896V15.064C84.0875 15.6773 84.2288 16.152 84.5115 16.488C84.7942 16.824 85.2208 16.992 85.7915 16.992C86.2075 16.992 86.5995 16.8933 86.9675 16.696C87.3355 16.4987 87.6742 16.224 87.9835 15.872V9.896H89.4075V18H88.5595C88.3568 18 88.2288 17.9013 88.1755 17.704L88.0635 16.832C87.7115 17.2213 87.3168 17.536 86.8795 17.776C86.4422 18.0107 85.9408 18.128 85.3755 18.128C84.9328 18.128 84.5408 18.056 84.1995 17.912C83.8635 17.7627 83.5808 17.5547 83.3515 17.288C83.1222 17.0213 82.9488 16.6987 82.8315 16.32C82.7195 15.9413 82.6635 15.5227 82.6635 15.064V9.896H84.0875ZM94.9541 9.768C95.4395 9.768 95.8875 9.85067 96.2981 10.016C96.7088 10.176 97.0635 10.4107 97.3621 10.72C97.6608 11.024 97.8928 11.4027 98.0581 11.856C98.2288 12.304 98.3141 12.816 98.3141 13.392C98.3141 13.616 98.2901 13.7653 98.2421 13.84C98.1941 13.9147 98.1035 13.952 97.9701 13.952H92.5781C92.5888 14.464 92.6581 14.9093 92.7861 15.288C92.9141 15.6667 93.0901 15.984 93.3141 16.24C93.5381 16.4907 93.8048 16.68 94.1141 16.808C94.4235 16.9307 94.7701 16.992 95.1541 16.992C95.5115 16.992 95.8181 16.952 96.0741 16.872C96.3355 16.7867 96.5595 16.696 96.7461 16.6C96.9328 16.504 97.0875 16.416 97.2101 16.336C97.3381 16.2507 97.4475 16.208 97.5381 16.208C97.6555 16.208 97.7461 16.2533 97.8101 16.344L98.2101 16.864C98.0341 17.0773 97.8235 17.264 97.5781 17.424C97.3328 17.5787 97.0688 17.7067 96.7861 17.808C96.5088 17.9093 96.2208 17.984 95.9221 18.032C95.6235 18.0853 95.3275 18.112 95.0341 18.112C94.4741 18.112 93.9568 18.0187 93.4821 17.832C93.0128 17.64 92.6048 17.3627 92.2581 17C91.9168 16.632 91.6501 16.1787 91.4581 15.64C91.2661 15.1013 91.1701 14.4827 91.1701 13.784C91.1701 13.2187 91.2555 12.6907 91.4261 12.2C91.6021 11.7093 91.8528 11.2853 92.1781 10.928C92.5035 10.5653 92.9008 10.2827 93.3701 10.08C93.8395 9.872 94.3675 9.768 94.9541 9.768ZM94.9861 10.816C94.2981 10.816 93.7568 11.016 93.3621 11.416C92.9675 11.8107 92.7221 12.36 92.6261 13.064H97.0341C97.0341 12.7333 96.9888 12.432 96.8981 12.16C96.8075 11.8827 96.6741 11.6453 96.4981 11.448C96.3221 11.2453 96.1061 11.0907 95.8501 10.984C95.5995 10.872 95.3115 10.816 94.9861 10.816ZM102.175 9.896H103.295C103.412 9.896 103.508 9.92533 103.583 9.984C103.657 10.0427 103.708 10.112 103.735 10.192L105.287 15.408C105.329 15.6 105.369 15.7867 105.407 15.968C105.444 16.144 105.476 16.3227 105.503 16.504C105.545 16.3227 105.593 16.144 105.647 15.968C105.7 15.7867 105.756 15.6 105.815 15.408L107.527 10.16C107.553 10.08 107.599 10.0133 107.663 9.96C107.732 9.90667 107.817 9.88 107.919 9.88H108.535C108.641 9.88 108.729 9.90667 108.799 9.96C108.868 10.0133 108.916 10.08 108.943 10.16L110.615 15.408C110.673 15.5947 110.724 15.7787 110.767 15.96C110.815 16.1413 110.86 16.32 110.903 16.496C110.929 16.32 110.964 16.136 111.007 15.944C111.049 15.752 111.095 15.5733 111.143 15.408L112.727 10.192C112.753 10.1067 112.804 10.0373 112.879 9.984C112.953 9.92533 113.041 9.896 113.143 9.896H114.215L111.591 18H110.463C110.324 18 110.228 17.9093 110.175 17.728L108.383 12.232C108.34 12.1093 108.305 11.9867 108.279 11.864C108.252 11.736 108.225 11.6107 108.199 11.488C108.172 11.6107 108.145 11.736 108.119 11.864C108.092 11.992 108.057 12.1173 108.015 12.24L106.199 17.728C106.14 17.9093 106.031 18 105.871 18H104.799L102.175 9.896ZM117.065 9.896V18H115.641V9.896H117.065ZM117.385 7.352C117.385 7.49067 117.355 7.62133 117.297 7.744C117.243 7.86133 117.169 7.968 117.073 8.064C116.982 8.15467 116.875 8.22667 116.753 8.28C116.63 8.33333 116.499 8.36 116.361 8.36C116.222 8.36 116.091 8.33333 115.969 8.28C115.851 8.22667 115.745 8.15467 115.649 8.064C115.558 7.968 115.486 7.86133 115.433 7.744C115.379 7.62133 115.353 7.49067 115.353 7.352C115.353 7.21333 115.379 7.08267 115.433 6.96C115.486 6.832 115.558 6.72267 115.649 6.632C115.745 6.536 115.851 6.46133 115.969 6.408C116.091 6.35467 116.222 6.328 116.361 6.328C116.499 6.328 116.63 6.35467 116.753 6.408C116.875 6.46133 116.982 6.536 117.073 6.632C117.169 6.72267 117.243 6.832 117.297 6.96C117.355 7.08267 117.385 7.21333 117.385 7.352ZM122.03 18.128C121.39 18.128 120.897 17.9493 120.55 17.592C120.209 17.2347 120.038 16.72 120.038 16.048V11.088H119.062C118.977 11.088 118.905 11.064 118.846 11.016C118.788 10.9627 118.758 10.8827 118.758 10.776V10.208L120.086 10.04L120.414 7.536C120.425 7.456 120.46 7.392 120.518 7.344C120.577 7.29067 120.652 7.264 120.742 7.264H121.462V10.056H123.782V11.088H121.462V15.952C121.462 16.2933 121.545 16.5467 121.71 16.712C121.876 16.8773 122.089 16.96 122.35 16.96C122.5 16.96 122.628 16.9413 122.734 16.904C122.846 16.8613 122.942 16.816 123.022 16.768C123.102 16.72 123.169 16.6773 123.222 16.64C123.281 16.5973 123.332 16.576 123.374 16.576C123.449 16.576 123.516 16.6213 123.574 16.712L123.99 17.392C123.745 17.6213 123.449 17.8027 123.102 17.936C122.756 18.064 122.398 18.128 122.03 18.128ZM125.543 18V6.216H126.967V10.984C127.314 10.616 127.698 10.3227 128.119 10.104C128.54 9.88 129.026 9.768 129.575 9.768C130.018 9.768 130.407 9.84267 130.743 9.992C131.084 10.136 131.367 10.344 131.591 10.616C131.82 10.8827 131.994 11.2053 132.111 11.584C132.228 11.9627 132.287 12.3813 132.287 12.84V18H130.863V12.84C130.863 12.2267 130.722 11.752 130.439 11.416C130.162 11.0747 129.735 10.904 129.159 10.904C128.738 10.904 128.343 11.0053 127.975 11.208C127.612 11.4107 127.276 11.6853 126.967 12.032V18H125.543ZM142.863 16.872C143.173 16.872 143.455 16.8587 143.711 16.832C143.973 16.8 144.218 16.7547 144.447 16.696C144.677 16.6373 144.893 16.568 145.095 16.488C145.298 16.4027 145.501 16.3067 145.703 16.2V13.672H143.927C143.826 13.672 143.743 13.6427 143.679 13.584C143.621 13.5253 143.591 13.4533 143.591 13.368V12.488H147.111V16.888C146.823 17.096 146.522 17.2773 146.207 17.432C145.898 17.5867 145.565 17.7173 145.207 17.824C144.855 17.9253 144.477 18 144.071 18.048C143.666 18.1013 143.226 18.128 142.751 18.128C141.919 18.128 141.157 17.9867 140.463 17.704C139.77 17.416 139.173 17.016 138.671 16.504C138.17 15.9867 137.778 15.368 137.495 14.648C137.218 13.928 137.079 13.136 137.079 12.272C137.079 11.3973 137.215 10.6 137.487 9.88C137.765 9.16 138.157 8.544 138.663 8.032C139.175 7.51467 139.791 7.11467 140.511 6.832C141.237 6.54933 142.047 6.408 142.943 6.408C143.397 6.408 143.818 6.44267 144.207 6.512C144.597 6.576 144.957 6.672 145.287 6.8C145.623 6.92267 145.933 7.07467 146.215 7.256C146.498 7.432 146.762 7.632 147.007 7.856L146.567 8.56C146.477 8.704 146.359 8.776 146.215 8.776C146.13 8.776 146.037 8.74667 145.935 8.688C145.802 8.61333 145.653 8.52267 145.487 8.416C145.322 8.30933 145.119 8.208 144.879 8.112C144.645 8.01067 144.365 7.92533 144.039 7.856C143.719 7.78667 143.338 7.752 142.895 7.752C142.25 7.752 141.666 7.85867 141.143 8.072C140.621 8.28 140.175 8.58133 139.807 8.976C139.439 9.36533 139.157 9.84 138.959 10.4C138.762 10.9547 138.663 11.5787 138.663 12.272C138.663 12.9973 138.765 13.6453 138.967 14.216C139.175 14.7813 139.466 15.2613 139.839 15.656C140.213 16.0507 140.655 16.352 141.167 16.56C141.679 16.768 142.245 16.872 142.863 16.872ZM152.557 9.768C153.149 9.768 153.683 9.86667 154.157 10.064C154.637 10.2613 155.043 10.5413 155.373 10.904C155.709 11.2667 155.965 11.7067 156.141 12.224C156.323 12.736 156.413 13.3093 156.413 13.944C156.413 14.584 156.323 15.16 156.141 15.672C155.965 16.184 155.709 16.6213 155.373 16.984C155.043 17.3467 154.637 17.6267 154.157 17.824C153.683 18.016 153.149 18.112 152.557 18.112C151.965 18.112 151.429 18.016 150.949 17.824C150.475 17.6267 150.069 17.3467 149.733 16.984C149.397 16.6213 149.139 16.184 148.957 15.672C148.776 15.16 148.685 14.584 148.685 13.944C148.685 13.3093 148.776 12.736 148.957 12.224C149.139 11.7067 149.397 11.2667 149.733 10.904C150.069 10.5413 150.475 10.2613 150.949 10.064C151.429 9.86667 151.965 9.768 152.557 9.768ZM152.557 17C153.357 17 153.955 16.7333 154.349 16.2C154.744 15.6613 154.941 14.912 154.941 13.952C154.941 12.9867 154.744 12.2347 154.349 11.696C153.955 11.1573 153.357 10.888 152.557 10.888C152.152 10.888 151.8 10.9573 151.501 11.096C151.203 11.2347 150.952 11.4347 150.749 11.696C150.552 11.9573 150.403 12.28 150.301 12.664C150.205 13.0427 150.157 13.472 150.157 13.952C150.157 14.432 150.205 14.8613 150.301 15.24C150.403 15.6187 150.552 15.9387 150.749 16.2C150.952 16.456 151.203 16.6533 151.501 16.792C151.8 16.9307 152.152 17 152.557 17ZM161.448 9.768C162.04 9.768 162.573 9.86667 163.048 10.064C163.528 10.2613 163.933 10.5413 164.264 10.904C164.6 11.2667 164.856 11.7067 165.032 12.224C165.213 12.736 165.304 13.3093 165.304 13.944C165.304 14.584 165.213 15.16 165.032 15.672C164.856 16.184 164.6 16.6213 164.264 16.984C163.933 17.3467 163.528 17.6267 163.048 17.824C162.573 18.016 162.04 18.112 161.448 18.112C160.856 18.112 160.32 18.016 159.84 17.824C159.365 17.6267 158.96 17.3467 158.624 16.984C158.288 16.6213 158.029 16.184 157.848 15.672C157.667 15.16 157.576 14.584 157.576 13.944C157.576 13.3093 157.667 12.736 157.848 12.224C158.029 11.7067 158.288 11.2667 158.624 10.904C158.96 10.5413 159.365 10.2613 159.84 10.064C160.32 9.86667 160.856 9.768 161.448 9.768ZM161.448 17C162.248 17 162.845 16.7333 163.24 16.2C163.635 15.6613 163.832 14.912 163.832 13.952C163.832 12.9867 163.635 12.2347 163.24 11.696C162.845 11.1573 162.248 10.888 161.448 10.888C161.043 10.888 160.691 10.9573 160.392 11.096C160.093 11.2347 159.843 11.4347 159.64 11.696C159.443 11.9573 159.293 12.28 159.192 12.664C159.096 13.0427 159.048 13.472 159.048 13.952C159.048 14.432 159.096 14.8613 159.192 15.24C159.293 15.6187 159.443 15.9387 159.64 16.2C159.843 16.456 160.093 16.6533 160.392 16.792C160.691 16.9307 161.043 17 161.448 17ZM169.787 9.76C170.139 9.76 170.467 9.8 170.771 9.88C171.08 9.95467 171.36 10.0667 171.611 10.216H173.811V10.744C173.811 10.92 173.699 11.032 173.475 11.08L172.555 11.208C172.736 11.5547 172.827 11.9413 172.827 12.368C172.827 12.7627 172.749 13.1227 172.595 13.448C172.445 13.768 172.235 14.0427 171.963 14.272C171.696 14.5013 171.376 14.6773 171.003 14.8C170.635 14.9227 170.229 14.984 169.787 14.984C169.408 14.984 169.051 14.9387 168.715 14.848C168.544 14.9547 168.413 15.0693 168.323 15.192C168.237 15.3147 168.195 15.4347 168.195 15.552C168.195 15.744 168.272 15.8907 168.427 15.992C168.581 16.088 168.787 16.1573 169.043 16.2C169.299 16.2427 169.589 16.2693 169.915 16.28C170.24 16.2907 170.571 16.3093 170.907 16.336C171.248 16.3573 171.581 16.3973 171.907 16.456C172.232 16.5147 172.523 16.6107 172.779 16.744C173.035 16.8773 173.24 17.0613 173.395 17.296C173.549 17.5307 173.627 17.8347 173.627 18.208C173.627 18.5547 173.539 18.8907 173.363 19.216C173.192 19.5413 172.944 19.8293 172.619 20.08C172.293 20.336 171.896 20.5387 171.427 20.688C170.957 20.8427 170.427 20.92 169.835 20.92C169.243 20.92 168.723 20.8613 168.275 20.744C167.832 20.6267 167.464 20.4693 167.171 20.272C166.877 20.0747 166.656 19.8453 166.507 19.584C166.363 19.328 166.291 19.0587 166.291 18.776C166.291 18.376 166.416 18.0373 166.667 17.76C166.923 17.4773 167.272 17.2533 167.715 17.088C167.485 16.9813 167.301 16.84 167.163 16.664C167.029 16.4827 166.963 16.2427 166.963 15.944C166.963 15.8267 166.984 15.7067 167.027 15.584C167.069 15.456 167.133 15.3307 167.219 15.208C167.309 15.0853 167.419 14.968 167.547 14.856C167.675 14.744 167.824 14.6453 167.995 14.56C167.595 14.336 167.28 14.04 167.051 13.672C166.827 13.2987 166.715 12.864 166.715 12.368C166.715 11.9733 166.789 11.616 166.939 11.296C167.093 10.9707 167.307 10.696 167.579 10.472C167.851 10.2427 168.173 10.0667 168.547 9.944C168.925 9.82133 169.339 9.76 169.787 9.76ZM172.315 18.44C172.315 18.2373 172.259 18.0747 172.147 17.952C172.035 17.8293 171.883 17.736 171.691 17.672C171.499 17.6027 171.277 17.552 171.027 17.52C170.776 17.488 170.512 17.4667 170.235 17.456C169.957 17.44 169.675 17.424 169.387 17.408C169.099 17.392 168.824 17.3627 168.563 17.32C168.259 17.464 168.011 17.64 167.819 17.848C167.632 18.056 167.539 18.304 167.539 18.592C167.539 18.7733 167.584 18.9413 167.675 19.096C167.771 19.256 167.915 19.392 168.107 19.504C168.299 19.6213 168.539 19.712 168.827 19.776C169.12 19.8453 169.464 19.88 169.859 19.88C170.243 19.88 170.587 19.8453 170.891 19.776C171.195 19.7067 171.451 19.608 171.659 19.48C171.872 19.352 172.035 19.2 172.147 19.024C172.259 18.848 172.315 18.6533 172.315 18.44ZM169.787 14.04C170.075 14.04 170.328 14 170.547 13.92C170.771 13.84 170.957 13.728 171.107 13.584C171.256 13.44 171.368 13.2693 171.443 13.072C171.517 12.8693 171.555 12.648 171.555 12.408C171.555 11.912 171.403 11.5173 171.099 11.224C170.8 10.9307 170.363 10.784 169.787 10.784C169.216 10.784 168.779 10.9307 168.475 11.224C168.176 11.5173 168.027 11.912 168.027 12.408C168.027 12.648 168.064 12.8693 168.139 13.072C168.219 13.2693 168.333 13.44 168.483 13.584C168.632 13.728 168.816 13.84 169.035 13.92C169.253 14 169.504 14.04 169.787 14.04ZM176.815 6.216V18H175.391V6.216H176.815ZM182.532 9.768C183.018 9.768 183.466 9.85067 183.876 10.016C184.287 10.176 184.642 10.4107 184.94 10.72C185.239 11.024 185.471 11.4027 185.636 11.856C185.807 12.304 185.892 12.816 185.892 13.392C185.892 13.616 185.868 13.7653 185.82 13.84C185.772 13.9147 185.682 13.952 185.548 13.952H180.156C180.167 14.464 180.236 14.9093 180.364 15.288C180.492 15.6667 180.668 15.984 180.892 16.24C181.116 16.4907 181.383 16.68 181.692 16.808C182.002 16.9307 182.348 16.992 182.732 16.992C183.09 16.992 183.396 16.952 183.652 16.872C183.914 16.7867 184.138 16.696 184.324 16.6C184.511 16.504 184.666 16.416 184.788 16.336C184.916 16.2507 185.026 16.208 185.116 16.208C185.234 16.208 185.324 16.2533 185.388 16.344L185.788 16.864C185.612 17.0773 185.402 17.264 185.156 17.424C184.911 17.5787 184.647 17.7067 184.364 17.808C184.087 17.9093 183.799 17.984 183.5 18.032C183.202 18.0853 182.906 18.112 182.612 18.112C182.052 18.112 181.535 18.0187 181.06 17.832C180.591 17.64 180.183 17.3627 179.836 17C179.495 16.632 179.228 16.1787 179.036 15.64C178.844 15.1013 178.748 14.4827 178.748 13.784C178.748 13.2187 178.834 12.6907 179.004 12.2C179.18 11.7093 179.431 11.2853 179.756 10.928C180.082 10.5653 180.479 10.2827 180.948 10.08C181.418 9.872 181.946 9.768 182.532 9.768ZM182.564 10.816C181.876 10.816 181.335 11.016 180.94 11.416C180.546 11.8107 180.3 12.36 180.204 13.064H184.612C184.612 12.7333 184.567 12.432 184.476 12.16C184.386 11.8827 184.252 11.6453 184.076 11.448C183.9 11.2453 183.684 11.0907 183.428 10.984C183.178 10.872 182.89 10.816 182.564 10.816Z" fill="black"/>
</svg>
