<svg width="81" height="60" viewBox="0 0 81 60" fill="none" xmlns="http://www.w3.org/2000/svg">
<rect width="81" height="60" rx="30" fill="white"/>
<path fill-rule="evenodd" clip-rule="evenodd" d="M50.0367 40H45.8849V33.5036C45.8849 31.9543 45.8586 29.9615 43.7276 29.9615C41.5677 29.9615 41.2379 31.6499 41.2379 33.3925V40H37.0904V26.6407H41.0708V28.4673H41.1276C41.6814 27.4167 43.0356 26.3092 45.0556 26.3092C49.2599 26.3092 50.0367 29.0753 50.0367 32.6734V40ZM32.4092 24.8159C31.0751 24.8159 30 23.7372 30 22.4075C30 21.0786 31.0751 20 32.4092 20C33.7372 20 34.8159 21.0786 34.8159 22.4075C34.8159 23.7372 33.7372 24.8159 32.4092 24.8159ZM34.486 40H30.3298V26.6407H34.486V40Z" fill="#0077B5"/>
</svg>
