<svg width="81" height="60" viewBox="0 0 81 60" fill="none" xmlns="http://www.w3.org/2000/svg">
<rect width="81" height="60" rx="30" fill="white"/>
<g clip-path="url(#clip0_189_73)">
<path d="M35.5475 39.5057C44.6046 39.5057 49.557 32.0019 49.557 25.4962C49.557 25.2833 49.557 25.0703 49.5437 24.8593C50.5073 24.162 51.3391 23.2988 52 22.3099C51.1017 22.7083 50.1488 22.9698 49.173 23.0856C50.2005 22.4696 50.9693 21.5015 51.3365 20.3612C50.3698 20.9351 49.3121 21.3395 48.2091 21.557C47.4668 20.7677 46.4851 20.2451 45.4158 20.07C44.3465 19.8949 43.2494 20.0771 42.2941 20.5884C41.3388 21.0997 40.5787 21.9116 40.1313 22.8985C39.684 23.8853 39.5743 24.9921 39.8194 26.0475C37.8617 25.9494 35.9465 25.4408 34.1982 24.5545C32.4498 23.6682 30.9074 22.4241 29.6711 20.903C29.0408 21.9867 28.8472 23.2699 29.1298 24.4913C29.4124 25.7127 30.1498 26.7804 31.192 27.4772C30.4138 27.4509 29.6532 27.239 28.9734 26.8593V26.9221C28.9732 28.0576 29.3655 29.1583 30.0836 30.0379C30.8018 30.9176 31.8018 31.522 32.9144 31.749C32.1892 31.9466 31.4282 31.9752 30.6901 31.8327C31.0044 32.8116 31.6168 33.6678 32.4418 34.2814C33.2667 34.895 34.2629 35.2354 35.2909 35.2548C33.5456 36.6215 31.3916 37.3621 29.1749 37.3574C28.7823 37.3576 28.39 37.3348 28 37.289C30.2515 38.7352 32.8716 39.5027 35.5475 39.5" fill="#1DA1F2"/>
</g>
<defs>
<clipPath id="clip0_189_73">
<rect width="24" height="19.5038" fill="white" transform="translate(28 20)"/>
</clipPath>
</defs>
</svg>
