<svg width="24" height="24" viewBox="0 0 24 24" fill="none" xmlns="http://www.w3.org/2000/svg">
<g clip-path="url(#clip0_223_1489)">
<path d="M19.2 6.71997C19.2 6.71997 7.00946 6.71997 4.80002 6.71997C3.32354 6.71997 2.40002 8.15997 2.40002 9.11997V19.3843C2.40002 20.6083 3.3917 21.6 4.6157 21.6H19.3843C20.6079 21.6 21.6 20.6083 21.6 19.3843V9.04605C21.6 7.82349 20.4235 6.71997 19.2 6.71997Z" stroke="white" stroke-width="1.5" stroke-miterlimit="10" stroke-linecap="round" stroke-linejoin="round"/>
<path d="M17.76 5.27998V3.67582C17.76 2.07694 17.4149 1.61566 15.4311 2.13886C13.9738 2.52334 5.44658 4.88734 5.44658 4.88734C2.8205 5.8771 2.4197 6.7195 2.4197 8.63902L2.40002 9.81742" stroke="white" stroke-width="1.5" stroke-miterlimit="10" stroke-linejoin="round"/>
<path d="M18.481 15.36C17.8181 15.36 17.28 14.8233 17.28 14.1604C17.28 13.4976 17.8181 12.96 18.481 12.96C19.1419 12.96 19.68 13.4976 19.68 14.1604C19.68 14.8233 19.1419 15.36 18.481 15.36Z" fill="white"/>
</g>
<defs>
<clipPath id="clip0_223_1489">
<rect width="24" height="24" fill="white"/>
</clipPath>
</defs>
</svg>
