<svg width="24" height="24" viewBox="0 0 24 24" fill="none" xmlns="http://www.w3.org/2000/svg">
<g clip-path="url(#clip0_223_1483)">
<path d="M10.5 4.5C10.6989 4.5 10.8897 4.42098 11.0303 4.28033C11.171 4.13968 11.25 3.94891 11.25 3.75C11.25 3.55109 11.171 3.36032 11.0303 3.21967C10.8897 3.07902 10.6989 3 10.5 3H6C5.80109 3 5.61032 3.07902 5.46967 3.21967C5.32902 3.36032 5.25 3.55109 5.25 3.75C5.25 3.94891 5.32902 4.13968 5.46967 4.28033C5.61032 4.42098 5.80109 4.5 6 4.5H10.5Z" fill="white" fill-opacity="0.4"/>
<path d="M15.75 6.63V3.63C15.754 3.15535 15.664 2.68461 15.4853 2.24486C15.3067 1.80511 15.0428 1.40503 14.7089 1.06766C14.375 0.730283 13.9777 0.462268 13.5398 0.279036C13.1019 0.0958033 12.6322 0.000972392 12.1575 0L4.3425 0C3.39032 0.00198165 2.4777 0.381112 1.80441 1.05441C1.13111 1.7277 0.751982 2.64032 0.75 3.5925V20.4075C0.751982 21.3597 1.13111 22.2723 1.80441 22.9456C2.4777 23.6189 3.39032 23.998 4.3425 24H12.1575C13.1097 23.998 14.0223 23.6189 14.6956 22.9456C15.3689 22.2723 15.748 21.3597 15.75 20.4075V20.37C17.0852 19.7852 18.2211 18.824 19.0188 17.6039C19.8164 16.3838 20.2412 14.9577 20.2412 13.5C20.2412 12.0423 19.8164 10.6162 19.0188 9.39612C18.2211 8.17602 17.0852 7.21479 15.75 6.63ZM12.1575 22.5H4.3425C3.78753 22.5 3.2553 22.2795 2.86288 21.8871C2.47046 21.4947 2.25 20.9625 2.25 20.4075V3.5925C2.25 3.03753 2.47046 2.5053 2.86288 2.11288C3.2553 1.72046 3.78753 1.5 4.3425 1.5H12.1575C12.7125 1.5 13.2447 1.72046 13.6371 2.11288C14.0295 2.5053 14.25 3.03753 14.25 3.5925V6.15C13.7562 6.05074 13.2537 6.00049 12.75 6C10.7822 5.99979 8.8945 6.77915 7.5 8.1675V7.5C7.5 7.30109 7.42098 7.11032 7.28033 6.96967C7.13968 6.82902 6.94891 6.75 6.75 6.75C6.55109 6.75 6.36032 6.82902 6.21967 6.96967C6.07902 7.11032 6 7.30109 6 7.5V19.5C6 19.6989 6.07902 19.8897 6.21967 20.0303C6.36032 20.171 6.55109 20.25 6.75 20.25C6.94891 20.25 7.13968 20.171 7.28033 20.0303C7.42098 19.8897 7.5 19.6989 7.5 19.5V18.8325C8.8945 20.2208 10.7822 21.0002 12.75 21C13.2359 20.9986 13.7206 20.9509 14.1975 20.8575C14.0951 21.3225 13.8371 21.7387 13.4662 22.0374C13.0953 22.336 12.6337 22.4992 12.1575 22.5ZM12.75 19.5C11.6772 19.499 10.6244 19.2105 9.70101 18.6644C8.77766 18.1183 8.0176 17.3346 7.5 16.395V10.605C8.01075 9.67781 8.75772 8.90226 9.66507 8.35704C10.5724 7.81183 11.6079 7.51638 12.6663 7.50066C13.7248 7.48495 14.7685 7.74954 15.6916 8.26757C16.6148 8.78561 17.3844 9.53865 17.9225 10.4503C18.4605 11.3619 18.7478 12.3996 18.7552 13.4582C18.7626 14.5167 18.4898 15.5583 17.9645 16.4774C17.4392 17.3964 16.6802 18.1601 15.7643 18.691C14.8485 19.2218 13.8086 19.5009 12.75 19.5Z" fill="white" fill-opacity="0.4"/>
<path d="M12.75 11.25H14.25C14.4489 11.25 14.6397 11.171 14.7803 11.0303C14.921 10.8897 15 10.6989 15 10.5C15 10.3011 14.921 10.1103 14.7803 9.96967C14.6397 9.82902 14.4489 9.75 14.25 9.75H13.5C13.5 9.55109 13.421 9.36032 13.2803 9.21967C13.1397 9.07902 12.9489 9 12.75 9C12.5511 9 12.3603 9.07902 12.2197 9.21967C12.079 9.36032 12 9.55109 12 9.75V9.885C11.504 10.065 11.087 10.4136 10.8219 10.8698C10.5569 11.3261 10.4606 11.861 10.55 12.3811C10.6393 12.9011 10.9086 13.3732 11.3108 13.7149C11.7129 14.0565 12.2223 14.2459 12.75 14.25C12.9489 14.25 13.1397 14.329 13.2803 14.4697C13.421 14.6103 13.5 14.8011 13.5 15C13.5 15.1989 13.421 15.3897 13.2803 15.5303C13.1397 15.671 12.9489 15.75 12.75 15.75H11.25C11.0511 15.75 10.8603 15.829 10.7197 15.9697C10.579 16.1103 10.5 16.3011 10.5 16.5C10.5 16.6989 10.579 16.8897 10.7197 17.0303C10.8603 17.171 11.0511 17.25 11.25 17.25H12C12 17.4489 12.079 17.6397 12.2197 17.7803C12.3603 17.921 12.5511 18 12.75 18C12.9489 18 13.1397 17.921 13.2803 17.7803C13.421 17.6397 13.5 17.4489 13.5 17.25V17.115C13.996 16.935 14.413 16.5864 14.6781 16.1302C14.9431 15.6739 15.0394 15.139 14.95 14.6189C14.8607 14.0989 14.5914 13.6268 14.1892 13.2851C13.7871 12.9435 13.2777 12.7541 12.75 12.75C12.5511 12.75 12.3603 12.671 12.2197 12.5303C12.079 12.3897 12 12.1989 12 12C12 11.8011 12.079 11.6103 12.2197 11.4697C12.3603 11.329 12.5511 11.25 12.75 11.25Z" fill="white" fill-opacity="0.4"/>
<path d="M22.5 3.75002H20.5575L20.7825 3.53252C20.9237 3.39129 21.003 3.19974 21.003 3.00002C21.003 2.80029 20.9237 2.60874 20.7825 2.46752C20.6412 2.32629 20.4497 2.24695 20.25 2.24695C20.0502 2.24695 19.8587 2.32629 19.7175 2.46752L18.2175 3.96752C18.1472 4.03724 18.0914 4.12019 18.0533 4.21158C18.0152 4.30298 17.9956 4.40101 17.9956 4.50002C17.9956 4.59903 18.0152 4.69706 18.0533 4.78845C18.0914 4.87984 18.1472 4.96279 18.2175 5.03252L19.7175 6.53252C19.7872 6.60281 19.8701 6.65861 19.9615 6.69669C20.0529 6.73476 20.1509 6.75437 20.25 6.75437C20.349 6.75437 20.447 6.73476 20.5384 6.69669C20.6298 6.65861 20.7127 6.60281 20.7825 6.53252C20.8527 6.46279 20.9085 6.37984 20.9466 6.28845C20.9847 6.19706 21.0043 6.09903 21.0043 6.00002C21.0043 5.90101 20.9847 5.80298 20.9466 5.71158C20.9085 5.62019 20.8527 5.53724 20.7825 5.46752L20.5575 5.25002H22.5C22.6989 5.25002 22.8896 5.171 23.0303 5.03035C23.1709 4.88969 23.25 4.69893 23.25 4.50002C23.25 4.3011 23.1709 4.11034 23.0303 3.96969C22.8896 3.82903 22.6989 3.75002 22.5 3.75002Z" fill="white" fill-opacity="0.4"/>
</g>
<defs>
<clipPath id="clip0_223_1483">
<rect width="24" height="24" fill="white"/>
</clipPath>
</defs>
</svg>
