<svg width="24" height="24" viewBox="0 0 24 24" fill="none" xmlns="http://www.w3.org/2000/svg">
<path fill-rule="evenodd" clip-rule="evenodd" d="M3.48206 3.39845C8.15274 -1.17056 15.7464 -1.12234 20.4454 3.48164C25.1469 8.08682 25.1961 15.5286 20.5242 20.1037C15.8535 24.6787 8.25612 24.6317 3.55467 20.0265C2.23223 18.7365 1.23305 17.1638 0.635556 15.4319C0.0380635 13.7 -0.141472 11.8559 0.111042 10.0446C0.144173 9.8069 0.272355 9.59181 0.467389 9.44666C0.662423 9.30152 0.908334 9.23821 1.15102 9.27066C1.39371 9.30311 1.6133 9.42867 1.76148 9.61971C1.90966 9.81075 1.97429 10.0516 1.94116 10.2893C1.72682 11.8244 1.87877 13.3872 2.3851 14.855C2.89143 16.3228 3.73833 17.6556 4.85926 18.7486C8.85304 22.6594 15.2812 22.6823 19.2196 18.8258C23.1568 14.9681 23.1334 8.6715 19.1408 4.75951C15.1495 0.85114 8.72504 0.825824 4.78665 4.67754L5.70725 4.68115C5.82847 4.68171 5.94838 4.70564 6.06016 4.75159C6.17193 4.79754 6.27337 4.86461 6.35869 4.94896C6.444 5.03331 6.51152 5.13329 6.55738 5.2432C6.60325 5.35311 6.62657 5.4708 6.626 5.58953C6.62543 5.70827 6.601 5.82573 6.55409 5.93522C6.50718 6.0447 6.43871 6.14406 6.3526 6.22763C6.26648 6.3112 6.16441 6.37733 6.0522 6.42226C5.93999 6.46719 5.81985 6.49002 5.69863 6.48947L2.56515 6.475C2.32183 6.47373 2.08887 6.37841 1.91693 6.20977C1.74499 6.04112 1.64798 5.8128 1.64701 5.57446L1.63101 2.50756C1.63037 2.38882 1.6536 2.27112 1.69939 2.16118C1.74518 2.05124 1.81263 1.95122 1.89789 1.86681C1.98315 1.7824 2.08454 1.71527 2.19629 1.66925C2.30803 1.62322 2.42793 1.59921 2.54915 1.59858C2.67037 1.59794 2.79053 1.6207 2.90277 1.66556C3.015 1.71041 3.11712 1.77648 3.2033 1.85999C3.28947 1.9435 3.358 2.04282 3.40499 2.15227C3.45197 2.26173 3.47649 2.37918 3.47713 2.49791L3.48206 3.39966V3.39845ZM11.9988 6.02654C12.2436 6.02654 12.4784 6.1218 12.6515 6.29136C12.8246 6.46093 12.9219 6.6909 12.9219 6.9307V11.3792L15.7292 14.1278C15.8174 14.2112 15.8878 14.3109 15.9362 14.4212C15.9846 14.5315 16.0102 14.6501 16.0113 14.7702C16.0124 14.8902 15.9891 15.0093 15.9428 15.1204C15.8964 15.2316 15.8279 15.3325 15.7413 15.4175C15.6546 15.5024 15.5516 15.5696 15.4382 15.6151C15.3248 15.6606 15.2032 15.6836 15.0807 15.6826C14.9581 15.6816 14.837 15.6567 14.7243 15.6094C14.6117 15.562 14.5098 15.4932 14.4246 15.4069L11.077 12.1278V6.9319C11.077 6.69211 11.1742 6.46213 11.3474 6.29257C11.5205 6.12301 11.7552 6.02775 12.0001 6.02775L11.9988 6.02654Z" fill="white"/>
</svg>
