<svg width="27" height="25" viewBox="0 0 27 25" fill="none" xmlns="http://www.w3.org/2000/svg">
<path d="M18.0146 24.2488C17.746 24.2488 17.4773 24.1519 17.2652 23.9441C16.8551 23.5424 16.8551 22.8776 17.2652 22.4759L24.3496 15.5368C24.7597 15.1351 25.4384 15.1351 25.8485 15.5368C26.2586 15.9385 26.2586 16.6033 25.8485 17.005L18.7641 23.9441C18.552 24.138 18.2833 24.2488 18.0146 24.2488Z" fill="#292D32"/>
<path d="M25.0995 17.2963H1.06054C0.480778 17.2963 0 16.8254 0 16.2575C0 15.6896 0.480778 15.2187 1.06054 15.2187H25.0995C25.6792 15.2187 26.16 15.6896 26.16 16.2575C26.16 16.8254 25.6792 17.2963 25.0995 17.2963Z" fill="#292D32"/>
<path d="M1.05994 9.01326C0.791265 9.01326 0.522595 8.9163 0.310486 8.70854C-0.0995892 8.30688 -0.0995892 7.64205 0.310486 7.24038L7.3949 0.30125C7.80497 -0.100417 8.48372 -0.100417 8.8938 0.30125C9.30387 0.702916 9.30387 1.36774 8.8938 1.76941L1.80938 8.70854C1.61142 8.90245 1.32861 9.01326 1.05994 9.01326Z" fill="#292D32"/>
<path d="M25.0995 9.01301H1.06054C0.480778 9.01301 0 8.54209 0 7.97422C0 7.40634 0.480778 6.93542 1.06054 6.93542H25.0995C25.6792 6.93542 26.16 7.40634 26.16 7.97422C26.16 8.54209 25.6792 9.01301 25.0995 9.01301Z" fill="#292D32"/>
</svg>
